<?xml version="1.0" standalone="no"?><!DOCTYPE svg PUBLIC "-//W3C//DTD SVG 1.1//EN" "http://www.w3.org/Graphics/SVG/1.1/DTD/svg11.dtd"><svg height="1000" node-id="1" sillyvg="true" template-height="1000" template-width="1000" version="1.1" viewBox="0 0 1000 1000" width="1000" xmlns="http://www.w3.org/2000/svg" xmlns:xlink="http://www.w3.org/1999/xlink"><defs node-id="167"><linearGradient gradientUnits="objectBoundingBox" id="XMLID_2_" node-id="5" spreadMethod="pad" x1="488.6559" x2="510.6241" y1="794.4468" y2="213.8537"><stop offset="0" stop-color="#c7d8b6"></stop><stop offset="0.5" stop-color="#2d97a8"></stop><stop offset="1" stop-color="#0f543a"></stop></linearGradient><linearGradient gradientUnits="objectBoundingBox" id="SVGID_1_" node-id="12" spreadMethod="pad" x1="413.48" x2="229.9847" y1="364.848" y2="510.8953"><stop offset="0" stop-color="#ffffff"></stop><stop offset="0.4798" stop-color="#ffffff" stop-opacity="0"></stop></linearGradient><linearGradient gradientUnits="objectBoundingBox" id="SVGID_2_" node-id="16" spreadMethod="pad" x1="257.1601" x2="487.0461" y1="274.0999" y2="441.8996"><stop offset="0" stop-color="#ffffff"></stop><stop offset="0.6289" stop-color="#ffffff" stop-opacity="0"></stop></linearGradient><linearGradient gradientUnits="objectBoundingBox" id="SVGID_3_" node-id="20" spreadMethod="pad" x1="301.1274" x2="433.4115" y1="190.2362" y2="299.2007"><stop offset="0" stop-color="#ffffff"></stop><stop offset="0.8017" stop-color="#ffffff" stop-opacity="0"></stop></linearGradient><linearGradient gradientUnits="objectBoundingBox" id="SVGID_4_" node-id="24" spreadMethod="pad" x1="476.6195" x2="294.2616" y1="287.5377" y2="510.5487"><stop offset="0" stop-color="#697dd3"></stop><stop offset="0.0143" stop-color="#7083d5" stop-opacity="0.9679"></stop><stop offset="0.1199" stop-color="#a3afe4" stop-opacity="0.7312"></stop><stop offset="0.2194" stop-color="#cbd2f0" stop-opacity="0.5083"></stop><stop offset="0.3098" stop-color="#e7ebf8" stop-opacity="0.3055"></stop><stop offset="0.3884" stop-color="#f9fafd" stop-opacity="0.1294"></stop><stop offset="0.4461" stop-color="#ffffff" stop-opacity="0"></stop></linearGradient><linearGradient gradientUnits="objectBoundingBox" id="XMLID_4_" node-id="40" spreadMethod="pad" x1="681.8765" x2="664.5925" y1="526.2651" y2="599.8615"><stop offset="0" stop-color="#7aaf93"></stop><stop offset="1" stop-color="#9ec6ac"></stop></linearGradient><linearGradient gradientUnits="objectBoundingBox" id="SVGID_5_" node-id="46" spreadMethod="pad" x1="796.4913" x2="757.6722" y1="441.9002" y2="607.1946"><stop offset="0" stop-color="#7aaf93"></stop><stop offset="1" stop-color="#9ec6ac"></stop></linearGradient><linearGradient gradientUnits="objectBoundingBox" id="XMLID_6_" node-id="53" spreadMethod="pad" x1="265.347" x2="281.9191" y1="459.3899" y2="566.4104"><stop offset="0" stop-color="#498d78"></stop><stop offset="1" stop-color="#5fa58b"></stop></linearGradient><linearGradient gradientUnits="objectBoundingBox" id="SVGID_6_" node-id="59" spreadMethod="pad" x1="429.1657" x2="450.2076" y1="382.188" y2="518.075"><stop offset="0" stop-color="#58ac92"></stop><stop offset="0.9944" stop-color="#6cb19e"></stop></linearGradient><linearGradient gradientUnits="objectBoundingBox" id="XMLID_8_" node-id="66" spreadMethod="pad" x1="515.1368" x2="524.0954" y1="643.6158" y2="512.3523"><stop offset="0" stop-color="#639780"></stop><stop offset="1" stop-color="#498971"></stop></linearGradient><linearGradient gradientUnits="objectBoundingBox" id="SVGID_7_" node-id="72" spreadMethod="pad" x1="724.0524" x2="494.415" y1="598.1548" y2="516.5574"><stop offset="0" stop-color="#87c192"></stop><stop offset="1" stop-color="#a6bfa1"></stop></linearGradient><linearGradient gradientUnits="objectBoundingBox" id="SVGID_10_" node-id="93" spreadMethod="pad" x1="6.9376" x2="7.5396" y1="-1344.3993" y2="-1254.5753"><stop offset="0.357" stop-color="#4bc2ac"></stop><stop offset="0.4028" stop-color="#62cab7" stop-opacity="0.9287"></stop><stop offset="0.5079" stop-color="#92dacd" stop-opacity="0.7653"></stop><stop offset="0.6128" stop-color="#b9e7df" stop-opacity="0.6022"></stop><stop offset="0.7156" stop-color="#d8f2ed" stop-opacity="0.4423"></stop><stop offset="0.8156" stop-color="#edf9f7" stop-opacity="0.2867"></stop><stop offset="0.9119" stop-color="#fbfdfd" stop-opacity="0.137"></stop><stop offset="1" stop-color="#ffffff" stop-opacity="0"></stop></linearGradient><linearGradient gradientUnits="objectBoundingBox" id="SVGID_11_" node-id="103" spreadMethod="pad" x1="-39.9851" x2="-39.3831" y1="-1778.9916" y2="-1689.1676"><stop offset="0.357" stop-color="#4bc2ac"></stop><stop offset="0.4028" stop-color="#62cab7" stop-opacity="0.9287"></stop><stop offset="0.5079" stop-color="#92dacd" stop-opacity="0.7653"></stop><stop offset="0.6128" stop-color="#b9e7df" stop-opacity="0.6022"></stop><stop offset="0.7156" stop-color="#d8f2ed" stop-opacity="0.4423"></stop><stop offset="0.8156" stop-color="#edf9f7" stop-opacity="0.2867"></stop><stop offset="0.9119" stop-color="#fbfdfd" stop-opacity="0.137"></stop><stop offset="1" stop-color="#ffffff" stop-opacity="0"></stop></linearGradient><linearGradient gradientUnits="objectBoundingBox" id="SVGID_12_" node-id="113" spreadMethod="pad" x1="-161.487" x2="-161.0954" y1="-1532.8997" y2="-1474.4675"><stop offset="0.357" stop-color="#4bc2ac"></stop><stop offset="0.4028" stop-color="#62cab7" stop-opacity="0.9287"></stop><stop offset="0.5079" stop-color="#92dacd" stop-opacity="0.7653"></stop><stop offset="0.6128" stop-color="#b9e7df" stop-opacity="0.6022"></stop><stop offset="0.7156" stop-color="#d8f2ed" stop-opacity="0.4423"></stop><stop offset="0.8156" stop-color="#edf9f7" stop-opacity="0.2867"></stop><stop offset="0.9119" stop-color="#fbfdfd" stop-opacity="0.137"></stop><stop offset="1" stop-color="#ffffff" stop-opacity="0"></stop></linearGradient><linearGradient gradientUnits="objectBoundingBox" id="SVGID_13_" node-id="123" spreadMethod="pad" x1="-182.7606" x2="-181.9287" y1="-1389.1205" y2="-1264.9983"><stop offset="0.357" stop-color="#4bc2ac"></stop><stop offset="0.4028" stop-color="#62cab7" stop-opacity="0.9287"></stop><stop offset="0.5079" stop-color="#92dacd" stop-opacity="0.7653"></stop><stop offset="0.6128" stop-color="#b9e7df" stop-opacity="0.6022"></stop><stop offset="0.7156" stop-color="#d8f2ed" stop-opacity="0.4423"></stop><stop offset="0.8156" stop-color="#edf9f7" stop-opacity="0.2867"></stop><stop offset="0.9119" stop-color="#fbfdfd" stop-opacity="0.137"></stop><stop offset="1" stop-color="#ffffff" stop-opacity="0"></stop></linearGradient><radialGradient cx="571.7169" cy="339.5115" fx="571.7169" fy="339.5115" gradientUnits="objectBoundingBox" id="SVGID_14_" node-id="134" r="94.389" rev="1" spreadMethod="pad"><stop offset="0" stop-color="#ffffff"></stop><stop offset="0.9292" stop-color="#ffffff" stop-opacity="0.0708"></stop><stop offset="1" stop-color="#ffffff" stop-opacity="0"></stop></radialGradient><clipPath id="XMLID_3_" node-id="10"><path d="M 302.89 348.04 C 302.89 348.04 274.21 248.47 380.95 186.34 C 487.68 124.21 614.33 170.41 692.39 232.54 C 770.45 294.67 795.94 395.83 789.57 452.38 C 783.20 508.94 768.86 592.57 690.80 660.28 C 690.80 660.28 675.66 672.23 706.73 677.00 C 737.79 681.78 774.43 735.95 709.12 792.50 C 709.12 792.50 690.80 833.92 622.30 823.57 C 622.30 823.57 338.73 823.57 380.15 823.57 C 380.15 823.57 341.92 759.84 338.73 697.71 C 335.55 635.59 310.06 613.28 292.53 605.32 C 275.01 597.35 205.31 573.85 209.69 549.16 C 212.90 531.09 239.96 505.75 250.36 453.80 C 250.36 453.80 257.49 433.26 236.78 412.56 C 216.07 391.85 243.94 387.86 253.50 382.29 C 263.06 376.71 294.92 358.39 302.89 348.04 Z" fill="#000000" fill-rule="nonzero" node-id="328" stroke="none" target-height="709.711" target-width="590.6279" target-x="205.313" target-y="124.21"></path></clipPath><clipPath id="XMLID_5_" node-id="44"><path d="M 504.89 552.83 C 504.89 552.83 631.02 560.44 678.86 540.87 C 678.86 540.87 805.99 631.11 827.23 634.38 L 530.99 603.93 L 504.89 552.83 Z" fill="#000000" fill-rule="nonzero" node-id="332" stroke="none" target-height="93.50696" target-width="322.33902" target-x="504.89297" target-y="540.869"></path></clipPath><clipPath id="XMLID_7_" node-id="57"><path d="M 111.29 500.64 C 111.29 500.64 181.97 501.73 293.96 462.58 C 293.96 462.58 377.68 522.38 450.53 535.43 L 292.87 594.15 L 111.29 584.36 L 111.29 500.64 Z" fill="#000000" fill-rule="nonzero" node-id="336" stroke="none" target-height="131.56296" target-width="339.23602" target-x="111.292" target-y="462.584"></path></clipPath><clipPath id="XMLID_9_" node-id="70"><path d="M 847.39 611.54 C 847.39 611.54 613.62 593.06 473.36 504.99 C 473.36 504.99 262.43 590.88 139.56 611.54 L 713.65 718.10 L 888.71 705.05 L 847.39 611.54 Z" fill="#000000" fill-rule="nonzero" node-id="340" stroke="none" target-height="213.11002" target-width="749.14496" target-x="139.562" target-y="504.988"></path></clipPath><clipPath id="SVGID_9_" node-id="84"><path d="M 162.98 525.73 C 162.98 525.73 325.70 637.75 480.24 643.64 C 634.77 649.54 904.03 681.38 969.58 737.97 L 969.58 825.23 L 162.98 825.23 L 162.98 525.73" fill="#000000" fill-rule="nonzero" node-id="344" stroke="none" target-height="299.49597" target-width="806.607" target-x="162.977" target-y="525.731"></path></clipPath></defs><g node-id="600"><path d="M 302.89 348.04 C 302.89 348.04 274.21 248.47 380.95 186.34 C 487.68 124.21 614.33 170.41 692.39 232.54 C 770.45 294.67 795.94 395.83 789.57 452.38 C 783.20 508.94 768.86 592.57 690.80 660.28 C 690.80 660.28 675.66 672.23 706.73 677.00 C 737.79 681.78 774.43 735.95 709.12 792.50 C 709.12 792.50 690.80 833.92 622.30 823.57 C 622.30 823.57 338.73 823.57 380.15 823.57 C 380.15 823.57 341.92 759.84 338.73 697.71 C 335.55 635.59 310.06 613.28 292.53 605.32 C 275.01 597.35 205.31 573.85 209.69 549.16 C 212.90 531.09 239.96 505.75 250.36 453.80 C 250.36 453.80 257.49 433.26 236.78 412.56 C 216.07 391.85 243.94 387.86 253.50 382.29 C 263.06 376.71 294.92 358.39 302.89 348.04 Z" fill="url(#XMLID_2_)" fill-rule="nonzero" group-id="1" node-id="352" stroke="none" target-height="709.711" target-width="590.6279" target-x="205.313" target-y="124.21"></path></g><g node-id="601"><g clip-path="url(#XMLID_3_)" group-id="2" node-id="355"><path d="M 357.01 409.11 C 356.22 409.11 355.44 409.12 354.65 409.14 C 354.74 407.66 354.79 406.16 354.79 404.65 C 354.79 361.20 319.56 325.98 276.12 325.98 C 232.67 325.98 197.45 361.20 197.45 404.65 C 197.45 448.10 232.67 483.32 276.12 483.32 C 278.12 483.32 280.10 483.25 282.06 483.10 C 282.06 483.42 282.05 483.74 282.05 484.06 C 282.05 525.46 315.61 559.02 357.01 559.02 C 398.41 559.02 431.97 525.46 431.97 484.06 C 431.97 442.67 398.41 409.11 357.01 409.11 Z" fill="url(#SVGID_1_)" fill-rule="nonzero" group-id="2" node-id="357" stroke="none" target-height="233.038" target-width="234.52199" target-x="197.447" target-y="325.983"></path></g></g><g node-id="602"><g clip-path="url(#XMLID_3_)" group-id="3" node-id="360"><path d="M 818.91 375.91 C 775.58 357.28 725.62 375.82 704.64 417.35 C 681.54 421.35 660.46 434.68 647.13 455.06 C 608.99 444.63 568.01 463.62 551.94 500.99 C 534.35 541.88 553.24 589.29 594.13 606.88 C 628.25 621.55 666.89 610.83 688.98 583.13 C 728.61 598.04 772.96 581.82 793.88 545.70 C 824.46 542.19 852.36 522.86 865.39 492.55 C 884.76 447.51 863.95 395.29 818.91 375.91 Z" fill="url(#SVGID_2_)" fill-rule="nonzero" group-id="3" node-id="362" stroke="none" target-height="264.27496" target-width="350.4131" target-x="534.35" target-y="357.278"></path></g></g><g node-id="603"><g clip-path="url(#XMLID_3_)" group-id="4" node-id="365"><path d="M 777.65 295.30 C 752.43 286.17 724.91 296.50 711.51 318.58 C 689.84 310.99 666.59 317.61 652.00 333.62 C 620.69 331.22 590.33 348.90 577.61 378.84 C 562.89 386.34 550.87 399.21 544.80 415.97 C 532.12 450.98 550.23 489.65 585.25 502.33 C 612.98 512.37 642.99 503.10 660.58 481.42 C 685.48 476.55 707.27 459.12 716.54 433.53 C 718.19 428.96 719.37 424.34 720.10 419.71 C 728.50 415.06 735.72 408.24 740.85 399.68 C 769.35 409.47 800.54 394.63 810.84 366.19 C 821.25 337.45 806.39 305.71 777.65 295.30 Z" fill="url(#SVGID_3_)" fill-rule="nonzero" group-id="4" node-id="367" stroke="none" target-height="226.20001" target-width="289.127" target-x="532.125" target-y="286.169"></path></g></g><g node-id="604"><g clip-path="url(#XMLID_3_)" group-id="5" node-id="370"><path d="M 477.50 382.95 C 471.44 382.95 465.56 383.73 459.95 385.19 C 459.58 354.24 435.70 329.06 405.62 327.24 C 405.63 327.00 405.64 326.77 405.64 326.53 C 405.64 304.22 387.85 286.14 365.91 286.14 C 364.43 286.14 362.97 286.23 361.54 286.39 C 361.72 284.65 361.82 282.88 361.82 281.09 C 361.82 254.36 340.51 232.69 314.21 232.69 C 287.91 232.69 266.60 254.36 266.60 281.09 C 266.60 307.83 287.91 329.50 314.21 329.50 C 318.36 329.50 322.38 328.96 326.22 327.94 C 326.75 343.44 335.85 356.71 348.85 363.01 C 345.92 370.05 344.30 377.80 344.30 385.93 C 344.30 418.40 370.19 444.73 402.13 444.73 C 403.96 444.73 405.76 444.63 407.54 444.46 C 407.06 447.85 406.81 451.30 406.81 454.82 C 406.81 494.52 438.46 526.69 477.50 526.69 C 516.54 526.69 548.19 494.52 548.19 454.82 C 548.19 415.13 516.54 382.95 477.50 382.95 Z" fill="url(#SVGID_4_)" fill-rule="nonzero" group-id="5" node-id="372" stroke="none" target-height="294.00702" target-width="281.59198" target-x="266.596" target-y="232.685"></path></g></g><g node-id="605"><g clip-path="url(#XMLID_3_)" group-id="6" id="sillyvg_g_1" node-id="375"><path d="M 687.20 587.62 C 687.20 587.62 750.26 579.29 777.08 551.74 C 777.08 551.74 831.26 619.40 841.59 620.60 L 745.73 626.00 L 687.20 587.62 Z" fill="#b9d1af" fill-opacity="0.5" fill-rule="nonzero" group-id="6,25" node-id="379" stroke="none" target-height="74.257996" target-width="154.39606" target-x="687.196" target-y="551.742"></path><path d="M 297.94 511.15 C 297.94 511.15 384.93 500.28 401.60 479.26 C 401.60 479.26 470.37 517.76 478.80 518.85 L 388.37 551.74 L 297.94 511.15 Z" fill="#91bfa2" fill-rule="nonzero" group-id="6" node-id="382" stroke="none" target-height="72.48697" target-width="180.85297" target-x="297.945" target-y="479.256"></path><path d="M 509.79 546.85 C 509.79 546.85 557.63 535.98 579.92 523.47 C 579.92 523.47 620.69 564.79 647.87 564.79 L 508.54 559.97 L 509.79 546.85 Z" fill="#a2c6ac" fill-rule="nonzero" group-id="6" node-id="384" stroke="none" target-height="41.317017" target-width="139.33405" target-x="508.53796" target-y="523.472"></path><path d="M 504.89 552.83 C 504.89 552.83 631.02 560.44 678.86 540.87 C 678.86 540.87 805.99 631.11 827.23 634.38 L 530.99 603.93 L 504.89 552.83 Z" fill="url(#XMLID_4_)" fill-rule="nonzero" group-id="6,26,40" node-id="390" stroke="none" target-height="93.50696" target-width="322.33902" target-x="504.89297" target-y="540.869"></path><g clip-path="url(#XMLID_5_)" group-id="6,26,41" node-id="393"><path d="M 654.40 491.40 C 654.40 491.40 718.37 588.17 687.20 670.26 L 873.33 670.26 L 687.20 450.62 L 654.40 491.40 Z" fill="url(#SVGID_5_)" fill-rule="nonzero" group-id="6,26,41" node-id="395" stroke="none" target-height="219.63303" target-width="218.93799" target-x="654.396" target-y="450.624"></path></g><path d="M 111.29 500.64 C 111.29 500.64 181.97 501.73 293.96 462.58 C 293.96 462.58 377.68 522.38 450.53 535.43 L 292.87 594.15 L 111.29 584.36 L 111.29 500.64 Z" fill="url(#XMLID_6_)" fill-rule="nonzero" group-id="6,27,42" node-id="403" stroke="none" target-height="131.56296" target-width="339.23602" target-x="111.292" target-y="462.584"></path><g clip-path="url(#XMLID_7_)" group-id="6,27,43" node-id="406"><path d="M 297.31 409.37 C 297.31 409.37 271.82 602.13 378.56 731.17 L 595.21 463.53 L 297.31 409.37 Z" fill="url(#SVGID_6_)" fill-rule="nonzero" group-id="6,27,43" node-id="408" stroke="none" target-height="321.79898" target-width="323.391" target-x="271.823" target-y="409.368"></path></g><path d="M 847.39 611.54 C 847.39 611.54 613.62 593.06 473.36 504.99 C 473.36 504.99 262.43 590.88 139.56 611.54 L 713.65 718.10 L 888.71 705.05 L 847.39 611.54 Z" fill="url(#XMLID_8_)" fill-rule="nonzero" group-id="6,28,44" node-id="416" stroke="none" target-height="213.11002" target-width="749.14496" target-x="139.562" target-y="504.988"></path><g clip-path="url(#XMLID_9_)" group-id="6,28,45" node-id="419"><path d="M 478.80 453.89 C 478.80 453.89 450.53 615.35 520.66 708.31 L 888.71 802.91 L 931.66 656.12 L 764.39 430.06 L 478.80 453.89 Z" fill="url(#SVGID_7_)" fill-rule="nonzero" group-id="6,28,45" node-id="421" stroke="none" target-height="372.84805" target-width="481.128" target-x="450.528" target-y="430.059"></path></g></g></g><g node-id="606"><g clip-path="url(#XMLID_3_)" group-id="7" node-id="426"><path d="M 348.29 661.07 L 381.74 579.83 L 398.47 661.07 Z" fill="#27594e" fill-rule="nonzero" group-id="7" node-id="428" stroke="none" target-height="81.24603" target-width="50.181" target-x="348.29" target-y="579.826"></path></g></g><g node-id="607"><g clip-path="url(#XMLID_3_)" group-id="8" node-id="431"><path d="M 431.93 673.02 L 433.99 541.59 L 477.33 682.58 Z" fill="#27594e" fill-rule="nonzero" group-id="8" node-id="433" stroke="none" target-height="140.98596" target-width="45.402008" target-x="431.926" target-y="541.593"></path></g></g><g node-id="608"><g clip-path="url(#XMLID_3_)" group-id="9" node-id="436"><path d="M 563.35 682.58 L 602.92 612.09 L 602.92 682.58 Z" fill="#27594e" fill-rule="nonzero" group-id="9" node-id="438" stroke="none" target-height="70.49298" target-width="39.56299" target-x="563.353" target-y="612.086"></path></g></g><g node-id="609"><g clip-path="url(#XMLID_3_)" group-id="10" node-id="441"><path d="M 649.38 682.58 L 663.54 545.68 L 685.22 682.58 Z" fill="#27594e" fill-rule="nonzero" group-id="10" node-id="443" stroke="none" target-height="136.901" target-width="35.843994" target-x="649.379" target-y="545.678"></path></g></g><g node-id="610"><g clip-path="url(#XMLID_3_)" group-id="11" id="sillyvg_g_2" node-id="446"><path d="M 162.98 525.73 C 162.98 525.73 325.70 637.75 480.24 643.64 C 634.77 649.54 904.03 681.38 969.58 737.97 L 969.58 825.23 L 162.98 825.23 L 162.98 525.73" fill="#ecefda" fill-rule="nonzero" group-id="11,29" node-id="450" stroke="none" target-height="299.49597" target-width="806.607" target-x="162.977" target-y="525.731"></path><g clip-path="url(#SVGID_9_)" group-id="11,30" node-id="453"><path d="M 360.24 614.87 L 321.21 661.87 L 374.31 625.36 Z" fill="#a7c2b1" fill-rule="nonzero" group-id="11,30" node-id="455" stroke="none" target-height="46.996033" target-width="53.100983" target-x="321.208" target-y="614.873"></path></g><g clip-path="url(#SVGID_9_)" group-id="11,31" node-id="458"><path d="M 404.44 673.02 L 423.56 628.81 L 449.85 631.20 Z" fill="#a7c2b1" fill-rule="nonzero" group-id="11,31" node-id="460" stroke="none" target-height="44.20703" target-width="45.402985" target-x="404.445" target-y="628.813"></path></g><g clip-path="url(#SVGID_9_)" group-id="11,32" node-id="463"><path d="M 568.13 639.57 L 592.03 645.54 L 566.41 677.13 Z" fill="#a7c2b1" fill-rule="nonzero" group-id="11,32" node-id="465" stroke="none" target-height="37.561035" target-width="25.61499" target-x="566.413" target-y="639.566"></path></g><g clip-path="url(#SVGID_9_)" group-id="11,33" node-id="468"><path d="M 641.01 645.54 L 668.50 647.93 L 642.21 689.75 Z" fill="#a7c2b1" fill-rule="nonzero" group-id="11,33" node-id="470" stroke="none" target-height="44.20703" target-width="27.47998" target-x="641.015" target-y="645.54"></path></g></g></g><g node-id="611"><g clip-path="url(#XMLID_3_)" group-id="12" node-id="474"><path d="M 209.50 723.20 L 307.67 500.97 L 307.67 744.71 Z" fill="#1c3d2c" fill-rule="nonzero" group-id="12" node-id="476" stroke="none" target-height="243.738" target-width="98.17099" target-x="209.496" target-y="500.97"></path></g></g><g node-id="612"><g clip-path="url(#XMLID_3_)" group-id="13" node-id="479"><path d="M 376.96 854.63 L 441.48 718.42 L 460.60 871.36 Z" fill="#1c3d2c" fill-rule="nonzero" group-id="13" node-id="481" stroke="none" target-height="152.93402" target-width="83.63602" target-x="376.965" target-y="718.423"></path></g></g><g node-id="613"><g clip-path="url(#XMLID_3_)" group-id="14" node-id="484"><path d="M 546.63 871.36 L 546.63 673.02 L 602.92 871.36 Z" fill="#1c3d2c" fill-rule="nonzero" group-id="14" node-id="486" stroke="none" target-height="198.33698" target-width="56.29004" target-x="546.626" target-y="673.02"></path></g></g><g node-id="614"><g clip-path="url(#XMLID_3_)" group-id="15" node-id="489"><path d="M 394.42 158.63 L 461.27 205.29 C 462.73 206.25 464.71 205.84 465.66 204.38 L 465.66 204.38 C 466.62 202.92 466.21 200.94 464.75 199.99 L 395.35 157.22 C 393.89 156.26 392.96 157.68 394.42 158.63 Z" fill="url(#SVGID_10_)" fill-rule="nonzero" group-id="15" node-id="491" stroke="none" target-height="49.995026" target-width="73.656006" target-x="392.965" target-y="156.258"></path></g></g><g node-id="615"><g clip-path="url(#XMLID_3_)" group-id="16" node-id="494"><path d="M 731.99 436.35 L 798.83 483.01 C 800.29 483.97 802.27 483.56 803.22 482.10 L 803.22 482.10 C 804.18 480.64 803.77 478.66 802.31 477.70 L 732.91 434.93 C 731.46 433.97 730.52 435.39 731.99 436.35 Z" fill="url(#SVGID_11_)" fill-rule="nonzero" group-id="16" node-id="496" stroke="none" target-height="49.995026" target-width="73.65698" target-x="730.525" target-y="433.972"></path></g></g><g node-id="616"><g clip-path="url(#XMLID_3_)" group-id="17" node-id="499"><path d="M 484.87 419.13 L 528.36 449.49 C 529.31 450.11 530.59 449.84 531.22 448.89 L 531.22 448.89 C 531.84 447.94 531.57 446.66 530.62 446.03 L 485.48 418.21 C 484.53 417.59 483.92 418.51 484.87 419.13 Z" fill="url(#SVGID_12_)" fill-rule="nonzero" group-id="17" node-id="501" stroke="none" target-height="32.522003" target-width="47.916016" target-x="483.92297" target-y="417.589"></path></g></g><g node-id="617"><g clip-path="url(#XMLID_3_)" group-id="18" node-id="504"><path d="M 300.08 323.99 L 392.44 388.47 C 394.46 389.80 397.20 389.23 398.52 387.21 L 398.52 387.21 C 399.84 385.19 399.28 382.46 397.26 381.14 L 301.36 322.04 C 299.35 320.71 298.06 322.67 300.08 323.99 Z" fill="url(#SVGID_13_)" fill-rule="nonzero" group-id="18" node-id="506" stroke="none" target-height="69.086" target-width="101.78198" target-x="298.062" target-y="320.71"></path></g></g><g node-id="618"><g clip-path="url(#XMLID_3_)" group-id="19" node-id="509"><path d="M 647.14 339.51 C 647.14 381.17 613.37 414.94 571.72 414.94 C 530.06 414.94 496.29 381.17 496.29 339.51 C 496.29 297.86 530.06 264.09 571.72 264.09 C 613.37 264.09 647.14 297.86 647.14 339.51 Z" fill="#ffffff" fill-rule="nonzero" group-id="19" node-id="511" stroke="none" target-height="150.84601" target-width="150.84598" target-x="496.29398" target-y="264.089"></path></g></g><g node-id="619"><g clip-path="url(#XMLID_3_)" group-id="20" node-id="514"><path d="M 666.11 339.51 C 666.11 391.64 623.85 433.90 571.72 433.90 C 519.59 433.90 477.33 391.64 477.33 339.51 C 477.33 287.38 519.59 245.12 571.72 245.12 C 623.85 245.12 666.11 287.38 666.11 339.51 Z" fill="url(#SVGID_14_)" fill-rule="nonzero" group-id="20" node-id="516" stroke="none" target-height="188.77802" target-width="188.77798" target-x="477.32797" target-y="245.12299"></path></g></g><g node-id="620"><g clip-path="url(#XMLID_3_)" group-id="21" node-id="519"><path d="M 600.04 291.98 C 600.04 295.45 598.66 298.79 596.20 301.24 C 593.75 303.70 590.41 305.08 586.94 305.08 C 583.47 305.08 580.13 303.70 577.68 301.24 C 575.22 298.79 573.84 295.45 573.84 291.98 C 573.84 288.50 575.22 285.17 577.68 282.72 C 580.13 280.26 583.47 278.88 586.94 278.88 C 590.41 278.88 593.75 280.26 596.20 282.72 C 598.66 285.17 600.04 288.50 600.04 291.98 Z" fill="#eff0e2" fill-rule="nonzero" group-id="21" node-id="521" stroke="none" target-height="26.202026" target-width="26.202026" target-x="573.839" target-y="278.878"></path></g></g><g node-id="621"><g clip-path="url(#XMLID_3_)" group-id="22" node-id="524"><path d="M 627.09 310.81 C 627.09 312.33 626.49 313.78 625.41 314.86 C 624.34 315.93 622.88 316.54 621.36 316.54 C 619.84 316.54 618.39 315.93 617.31 314.86 C 616.24 313.78 615.63 312.33 615.63 310.81 C 615.63 309.29 616.24 307.83 617.31 306.76 C 618.39 305.68 619.84 305.08 621.36 305.08 C 622.88 305.08 624.34 305.68 625.41 306.76 C 626.49 307.83 627.09 309.29 627.09 310.81 Z" fill="#eff0e2" fill-rule="nonzero" group-id="22" node-id="526" stroke="none" target-height="11.455994" target-width="11.456055" target-x="615.634" target-y="305.08002"></path></g></g><g node-id="622"><g clip-path="url(#XMLID_3_)" group-id="23" node-id="529"><path d="M 627.09 344.64 C 627.09 349.34 625.22 353.85 621.90 357.17 C 618.57 360.50 614.07 362.36 609.36 362.36 C 604.66 362.36 600.15 360.50 596.83 357.17 C 593.51 353.85 591.64 349.34 591.64 344.64 C 591.64 339.94 593.51 335.43 596.83 332.10 C 600.15 328.78 604.66 326.91 609.36 326.91 C 614.07 326.91 618.57 328.78 621.90 332.10 C 625.22 335.43 627.09 339.94 627.09 344.64 Z" fill="#eff0e2" fill-rule="nonzero" group-id="23" node-id="531" stroke="none" target-height="35.452026" target-width="35.452026" target-x="591.638" target-y="326.91098"></path></g></g><g clip-path="url(#XMLID_3_)" group-id="24" id="sillyvg_g_3" node-id="534"><path d="M 384.03 226.56 C 384.03 227.61 383.19 228.46 382.14 228.46 C 381.10 228.46 380.25 227.61 380.25 226.56 C 380.25 225.52 381.10 224.67 382.14 224.67 C 383.19 224.67 384.03 225.52 384.03 226.56 Z" fill="#ffffff" fill-opacity="0.6" fill-rule="nonzero" group-id="24,34" node-id="538" stroke="none" target-height="3.7839966" target-width="3.7839966" target-x="380.25" target-y="224.672"></path><path d="M 681.09 291.98 C 681.09 292.34 680.80 292.63 680.44 292.63 C 680.09 292.63 679.80 292.34 679.80 291.98 C 679.80 291.62 680.09 291.33 680.44 291.33 C 680.80 291.33 681.09 291.62 681.09 291.98 Z" fill="#ffffff" fill-rule="nonzero" group-id="24" node-id="541" stroke="none" target-height="1.2940063" target-width="1.2939453" target-x="679.796" target-y="291.332"></path><path d="M 445.65 374.32 C 445.65 374.43 445.61 374.53 445.53 374.60 C 445.46 374.68 445.36 374.72 445.25 374.72 C 445.15 374.72 445.05 374.68 444.97 374.60 C 444.90 374.53 444.85 374.43 444.85 374.32 C 444.85 374.22 444.90 374.11 444.97 374.04 C 445.05 373.96 445.15 373.92 445.25 373.92 C 445.36 373.92 445.46 373.96 445.53 374.04 C 445.61 374.11 445.65 374.22 445.65 374.32 Z" fill="#ffffff" fill-rule="nonzero" group-id="24" node-id="543" stroke="none" target-height="0.79599" target-width="0.79599" target-x="444.85498" target-y="373.92303"></path><path d="M 574.37 203.66 C 574.37 203.80 574.31 203.94 574.21 204.03 C 574.11 204.13 573.98 204.19 573.84 204.19 C 573.70 204.19 573.56 204.13 573.46 204.03 C 573.36 203.94 573.31 203.80 573.31 203.66 C 573.31 203.52 573.36 203.38 573.46 203.29 C 573.56 203.19 573.70 203.13 573.84 203.13 C 573.98 203.13 574.11 203.19 574.21 203.29 C 574.31 203.38 574.37 203.52 574.37 203.66 Z" fill="#ffffff" fill-rule="nonzero" group-id="24" node-id="545" stroke="none" target-height="1.0600128" target-width="1.0600586" target-x="573.30896" target-y="203.13"></path><path d="M 438.06 226.56 C 438.06 226.87 437.93 227.17 437.72 227.39 C 437.50 227.61 437.20 227.73 436.89 227.73 C 436.58 227.73 436.28 227.61 436.06 227.39 C 435.84 227.17 435.72 226.87 435.72 226.56 C 435.72 226.25 435.84 225.96 436.06 225.74 C 436.28 225.52 436.58 225.39 436.89 225.39 C 437.20 225.39 437.50 225.52 437.72 225.74 C 437.93 225.96 438.06 226.25 438.06 226.56 Z" fill="#ffffff" fill-rule="nonzero" group-id="24" node-id="547" stroke="none" target-height="2.3379974" target-width="2.3380127" target-x="435.72" target-y="225.39499"></path><path d="M 722.26 518.89 C 722.26 519.21 722.14 519.51 721.91 519.74 C 721.69 519.96 721.38 520.09 721.07 520.09 C 720.75 520.09 720.45 519.96 720.22 519.74 C 720.00 519.51 719.87 519.21 719.87 518.89 C 719.87 518.57 720.00 518.27 720.22 518.05 C 720.45 517.82 720.75 517.70 721.07 517.70 C 721.38 517.70 721.69 517.82 721.91 518.05 C 722.14 518.27 722.26 518.57 722.26 518.89 Z" fill="#ffffff" fill-rule="nonzero" group-id="24" node-id="549" stroke="none" target-height="2.3900146" target-width="2.3900146" target-x="719.872" target-y="517.696"></path><path d="M 461.44 477.91 C 461.44 478.13 461.35 478.35 461.19 478.50 C 461.04 478.66 460.82 478.75 460.60 478.75 C 460.38 478.75 460.17 478.66 460.01 478.50 C 459.85 478.35 459.76 478.13 459.76 477.91 C 459.76 477.69 459.85 477.48 460.01 477.32 C 460.17 477.16 460.38 477.07 460.60 477.07 C 460.82 477.07 461.04 477.16 461.19 477.32 C 461.35 477.48 461.44 477.69 461.44 477.91 Z" fill="#ffffff" fill-rule="nonzero" group-id="24" node-id="551" stroke="none" target-height="1.6739807" target-width="1.6740112" target-x="459.764" target-y="477.07404"></path><path d="M 574.46 442.50 C 574.46 442.84 574.18 443.12 573.84 443.12 C 573.50 443.12 573.22 442.84 573.22 442.50 C 573.22 442.16 573.50 441.88 573.84 441.88 C 574.18 441.88 574.46 442.16 574.46 442.50 Z" fill="#ffffff" fill-rule="nonzero" group-id="24" node-id="553" stroke="none" target-height="1.2399597" target-width="1.2399902" target-x="573.219" target-y="441.88202"></path><path d="M 715.38 469.55 C 715.38 470.26 715.10 470.94 714.60 471.44 C 714.09 471.94 713.41 472.22 712.70 472.22 C 711.99 472.22 711.31 471.94 710.81 471.44 C 710.31 470.94 710.03 470.26 710.03 469.55 C 710.03 468.84 710.31 468.16 710.81 467.65 C 711.31 467.15 711.99 466.87 712.70 466.87 C 713.41 466.87 714.09 467.15 714.60 467.65 C 715.10 468.16 715.38 468.84 715.38 469.55 Z" fill="#ffffff" fill-rule="nonzero" group-id="24" node-id="555" stroke="none" target-height="5.3519897" target-width="5.3519897" target-x="710.02704" target-y="466.871"></path><path d="M 637.73 491.06 C 637.73 492.32 636.71 493.34 635.45 493.34 C 634.20 493.34 633.18 492.32 633.18 491.06 C 633.18 489.81 634.20 488.79 635.45 488.79 C 636.71 488.79 637.73 489.81 637.73 491.06 Z" fill="#ffffff" fill-opacity="0.46" fill-rule="nonzero" group-id="24,35" node-id="559" stroke="none" target-height="4.548004" target-width="4.5479736" target-x="633.18" target-y="488.788"></path><path d="M 523.79 469.55 C 523.79 469.83 523.68 470.10 523.48 470.30 C 523.28 470.50 523.01 470.61 522.73 470.61 C 522.45 470.61 522.18 470.50 521.98 470.30 C 521.78 470.10 521.67 469.83 521.67 469.55 C 521.67 469.27 521.78 469.00 521.98 468.80 C 522.18 468.60 522.45 468.49 522.73 468.49 C 523.01 468.49 523.28 468.60 523.48 468.80 C 523.68 469.00 523.79 469.27 523.79 469.55 Z" fill="#ffffff" fill-rule="nonzero" group-id="24" node-id="562" stroke="none" target-height="2.1240234" target-width="2.1240234" target-x="521.66797" target-y="468.485"></path><path d="M 705.33 399.41 C 705.33 399.96 704.89 400.41 704.34 400.41 C 703.79 400.41 703.34 399.96 703.34 399.41 C 703.34 398.86 703.79 398.42 704.34 398.42 C 704.89 398.42 705.33 398.86 705.33 399.41 Z" fill="#ffffff" fill-opacity="0.51" fill-rule="nonzero" group-id="24,36" node-id="566" stroke="none" target-height="1.9920044" target-width="1.9919434" target-x="703.343" target-y="398.416"></path><path d="M 410.82 270.51 C 410.82 271.39 410.10 272.11 409.23 272.11 C 408.35 272.11 407.63 271.39 407.63 270.51 C 407.63 269.64 408.35 268.92 409.23 268.92 C 410.10 268.92 410.82 269.64 410.82 270.51 Z" fill="#ffffff" fill-rule="nonzero" group-id="24" node-id="569" stroke="none" target-height="3.1859741" target-width="3.1859436" target-x="407.63205" target-y="268.92203"></path><path d="M 723.06 316.54 C 723.06 317.06 722.85 317.57 722.47 317.94 C 722.10 318.32 721.60 318.53 721.07 318.53 C 720.54 318.53 720.03 318.32 719.66 317.94 C 719.29 317.57 719.08 317.06 719.08 316.54 C 719.08 316.01 719.29 315.50 719.66 315.13 C 720.03 314.75 720.54 314.55 721.07 314.55 C 721.60 314.55 722.10 314.75 722.47 315.13 C 722.85 315.50 723.06 316.01 723.06 316.54 Z" fill="#ffffff" fill-opacity="0.32" fill-rule="nonzero" group-id="24,37" node-id="573" stroke="none" target-height="3.9819946" target-width="3.9820557" target-x="719.076" target-y="314.545"></path><path d="M 616.50 245.12 C 616.50 245.60 616.11 245.99 615.63 245.99 C 615.16 245.99 614.77 245.60 614.77 245.12 C 614.77 244.65 615.16 244.26 615.63 244.26 C 616.11 244.26 616.50 244.65 616.50 245.12 Z" fill="#ffffff" fill-rule="nonzero" group-id="24" node-id="576" stroke="none" target-height="1.723999" target-width="1.723999" target-x="614.772" target-y="244.261"></path><path d="M 524.52 196.30 C 524.52 197.29 523.72 198.09 522.73 198.09 C 521.74 198.09 520.94 197.29 520.94 196.30 C 520.94 195.31 521.74 194.50 522.73 194.50 C 523.72 194.50 524.52 195.31 524.52 196.30 Z" fill="#ffffff" fill-rule="nonzero" group-id="24" node-id="578" stroke="none" target-height="3.5839996" target-width="3.5839844" target-x="520.938" target-y="194.50401"></path><path d="M 478.64 291.98 C 478.64 292.33 478.50 292.66 478.26 292.91 C 478.01 293.15 477.68 293.29 477.33 293.29 C 476.98 293.29 476.65 293.15 476.40 292.91 C 476.16 292.66 476.02 292.33 476.02 291.98 C 476.02 291.63 476.16 291.30 476.40 291.05 C 476.65 290.81 476.98 290.67 477.33 290.67 C 477.68 290.67 478.01 290.81 478.26 291.05 C 478.50 291.30 478.64 291.63 478.64 291.98 Z" fill="#ffffff" fill-opacity="0.44" fill-rule="nonzero" group-id="24,38" node-id="582" stroke="none" target-height="2.6220093" target-width="2.6220093" target-x="476.017" target-y="290.668"></path><path d="M 493.53 226.56 C 493.53 227.61 492.68 228.46 491.64 228.46 C 490.59 228.46 489.74 227.61 489.74 226.56 C 489.74 225.52 490.59 224.67 491.64 224.67 C 492.68 224.67 493.53 225.52 493.53 226.56 Z" fill="#ffffff" fill-rule="nonzero" group-id="24" node-id="585" stroke="none" target-height="3.7839966" target-width="3.7839966" target-x="489.744" target-y="224.672"></path><path d="M 410.51 336.27 C 410.51 336.98 409.94 337.56 409.23 337.56 C 408.51 337.56 407.94 336.98 407.94 336.27 C 407.94 335.56 408.51 334.99 409.23 334.99 C 409.94 334.99 410.51 335.56 410.51 336.27 Z" fill="#ffffff" fill-rule="nonzero" group-id="24" node-id="587" stroke="none" target-height="2.5739746" target-width="2.573944" target-x="407.93802" target-y="334.98602"></path><path d="M 287.26 391.05 C 287.26 391.66 287.01 392.24 286.59 392.67 C 286.16 393.10 285.57 393.34 284.97 393.34 C 284.36 393.34 283.78 393.10 283.35 392.67 C 282.92 392.24 282.68 391.66 282.68 391.05 C 282.68 390.44 282.92 389.86 283.35 389.43 C 283.78 389.00 284.36 388.76 284.97 388.76 C 285.57 388.76 286.16 389.00 286.59 389.43 C 287.01 389.86 287.26 390.44 287.26 391.05 Z" fill="#ffffff" fill-rule="nonzero" group-id="24" node-id="589" stroke="none" target-height="4.580017" target-width="4.580017" target-x="282.676" target-y="388.758"></path><path d="M 323.20 414.93 C 323.20 415.57 322.95 416.18 322.50 416.62 C 322.05 417.07 321.44 417.32 320.81 417.32 C 320.18 417.32 319.57 417.07 319.12 416.62 C 318.67 416.18 318.42 415.57 318.42 414.93 C 318.42 414.30 318.67 413.69 319.12 413.24 C 319.57 412.80 320.18 412.54 320.81 412.54 C 321.44 412.54 322.05 412.80 322.50 413.24 C 322.95 413.69 323.20 414.30 323.20 414.93 Z" fill="#ffffff" fill-opacity="0.49" fill-rule="nonzero" group-id="24,39" node-id="593" stroke="none" target-height="4.78006" target-width="4.7800293" target-x="318.41998" target-y="412.54395"></path><path d="M 427.93 423.30 C 427.93 424.39 427.05 425.28 425.95 425.28 C 424.86 425.28 423.97 424.39 423.97 423.30 C 423.97 422.20 424.86 421.32 425.95 421.32 C 427.05 421.32 427.93 422.20 427.93 423.30 Z" fill="#ffffff" fill-rule="nonzero" group-id="24" node-id="596" stroke="none" target-height="3.961975" target-width="3.9620056" target-x="423.971" target-y="421.31702"></path><path d="M 346.61 291.98 C 346.61 293.47 345.40 294.68 343.91 294.68 C 342.42 294.68 341.20 293.47 341.20 291.98 C 341.20 290.49 342.42 289.27 343.91 289.27 C 345.40 289.27 346.61 290.49 346.61 291.98 Z" fill="#ffffff" fill-rule="nonzero" group-id="24" node-id="598" stroke="none" target-height="5.409973" target-width="5.4099426" target-x="341.204" target-y="289.27402"></path></g></svg>