<?xml version="1.0" standalone="no"?><!DOCTYPE svg PUBLIC "-//W3C//DTD SVG 1.1//EN" "http://www.w3.org/Graphics/SVG/1.1/DTD/svg11.dtd"><svg height="1000" node-id="1" sillyvg="true" template-height="1000" template-width="1000" version="1.1" viewBox="0 0 1000 1000" width="1000" xmlns="http://www.w3.org/2000/svg" xmlns:xlink="http://www.w3.org/1999/xlink"><defs node-id="299"><linearGradient gradientUnits="objectBoundingBox" id="XMLID_2_" node-id="5" spreadMethod="pad" x1="495.1995" x2="495.1995" y1="784.3057" y2="133.0097"><stop offset="0" stop-color="#55b2b9"></stop><stop offset="0.5112" stop-color="#49abb8"></stop><stop offset="0.5423" stop-color="#449fac"></stop><stop offset="0.7278" stop-color="#295c6c"></stop><stop offset="0.8622" stop-color="#183243"></stop><stop offset="0.931" stop-color="#112234"></stop></linearGradient><linearGradient gradientUnits="objectBoundingBox" id="SVGID_1_" node-id="15" spreadMethod="pad" x1="283.1067" x2="248.4265" y1="418.652" y2="607.054"><stop offset="0" stop-color="#ffffff"></stop><stop offset="0.6256" stop-color="#ffffff" stop-opacity="0"></stop></linearGradient><linearGradient gradientUnits="objectBoundingBox" id="SVGID_2_" node-id="19" spreadMethod="pad" x1="755.7985" x2="786.591" y1="453.4034" y2="610.0501"><stop offset="0" stop-color="#ffffff"></stop><stop offset="0.8874" stop-color="#ffffff" stop-opacity="0"></stop></linearGradient><linearGradient gradientUnits="objectBoundingBox" id="SVGID_3_" node-id="23" spreadMethod="pad" x1="703.4079" x2="740.8778" y1="415.3804" y2="605.9965"><stop offset="0" stop-color="#ffffff"></stop><stop offset="0.6269" stop-color="#ffffff" stop-opacity="0"></stop></linearGradient><linearGradient gradientUnits="objectBoundingBox" id="SVGID_4_" node-id="27" spreadMethod="pad" x1="372.7966" x2="232.367" y1="342.578" y2="533.6581"><stop offset="0" stop-color="#ffffff"></stop><stop offset="0.661" stop-color="#ffffff" stop-opacity="0"></stop></linearGradient><linearGradient gradientUnits="objectBoundingBox" id="SVGID_6_" node-id="48" spreadMethod="pad" x1="495.4509" x2="495.4509" y1="648.6795" y2="548.8051"><stop offset="0" stop-color="#d2edcc"></stop><stop offset="0.5112" stop-color="#75d3b8"></stop><stop offset="0.7448" stop-color="#5ecbb1"></stop><stop offset="1" stop-color="#49c3aa"></stop></linearGradient><linearGradient gradientUnits="objectBoundingBox" id="SVGID_7_" node-id="54" spreadMethod="pad" x1="492.6027" x2="492.6027" y1="709.956" y2="584.4721"><stop offset="0" stop-color="#aae7c8"></stop><stop offset="0.2741" stop-color="#5fb9b3"></stop><stop offset="0.4161" stop-color="#3da4a9"></stop><stop offset="1" stop-color="#3ba7aa"></stop></linearGradient><linearGradient gradientUnits="objectBoundingBox" id="SVGID_8_" node-id="60" spreadMethod="pad" x1="511.1164" x2="511.1164" y1="764.157" y2="689.6772"><stop offset="0" stop-color="#b3edc7"></stop><stop offset="0.1023" stop-color="#9bdec1"></stop><stop offset="0.5112" stop-color="#3da4a9"></stop><stop offset="0.7961" stop-color="#1d8088"></stop><stop offset="1" stop-color="#0a6b74"></stop></linearGradient><linearGradient gradientUnits="objectBoundingBox" id="SVGID_9_" node-id="67" spreadMethod="pad" x1="550.8141" x2="550.8141" y1="820.9771" y2="726.5695"><stop offset="0" stop-color="#3cceb2"></stop><stop offset="0.2851" stop-color="#289489"></stop><stop offset="0.5804" stop-color="#165e63"></stop><stop offset="0.7241" stop-color="#0f4954"></stop></linearGradient><linearGradient gradientUnits="objectBoundingBox" id="SVGID_10_" node-id="73" spreadMethod="pad" x1="1031.0808" x2="1030.1921" y1="-1192.8579" y2="-1066.2068"><stop offset="0" stop-color="#cae682"></stop><stop offset="0.2364" stop-color="#92c199"></stop><stop offset="0.4932" stop-color="#5b9daf"></stop><stop offset="0.6178" stop-color="#468fb8"></stop><stop offset="0.675" stop-color="#4289b1" stop-opacity="0.8504"></stop><stop offset="0.7596" stop-color="#38799d" stop-opacity="0.6289"></stop><stop offset="0.8613" stop-color="#275e7c" stop-opacity="0.3628"></stop><stop offset="0.9755" stop-color="#103a4f" stop-opacity="0.0642"></stop><stop offset="1" stop-color="#0b3144" stop-opacity="0"></stop></linearGradient><linearGradient gradientUnits="objectBoundingBox" id="SVGID_11_" node-id="84" spreadMethod="pad" x1="1196.1001" x2="1194.9059" y1="-1190.2719" y2="-1077.8112"><stop offset="0" stop-color="#cae682"></stop><stop offset="0.2364" stop-color="#92c199"></stop><stop offset="0.4932" stop-color="#5b9daf"></stop><stop offset="0.6178" stop-color="#468fb8"></stop><stop offset="0.675" stop-color="#4289b1" stop-opacity="0.8504"></stop><stop offset="0.7596" stop-color="#38799d" stop-opacity="0.6289"></stop><stop offset="0.8613" stop-color="#275e7c" stop-opacity="0.3628"></stop><stop offset="0.9755" stop-color="#103a4f" stop-opacity="0.0642"></stop><stop offset="1" stop-color="#0b3144" stop-opacity="0"></stop></linearGradient><linearGradient gradientUnits="objectBoundingBox" id="SVGID_12_" node-id="95" spreadMethod="pad" x1="1144.2792" x2="1142.9116" y1="-1101.8362" y2="-975.1894"><stop offset="0" stop-color="#cae682"></stop><stop offset="0.2364" stop-color="#92c199"></stop><stop offset="0.4932" stop-color="#5b9daf"></stop><stop offset="0.6178" stop-color="#468fb8"></stop><stop offset="0.675" stop-color="#4289b1" stop-opacity="0.8504"></stop><stop offset="0.7596" stop-color="#38799d" stop-opacity="0.6289"></stop><stop offset="0.8613" stop-color="#275e7c" stop-opacity="0.3628"></stop><stop offset="0.9755" stop-color="#103a4f" stop-opacity="0.0642"></stop><stop offset="1" stop-color="#0b3144" stop-opacity="0"></stop></linearGradient><linearGradient gradientUnits="objectBoundingBox" id="SVGID_13_" node-id="106" spreadMethod="pad" x1="1351.7997" x2="1350.7246" y1="-1103.1147" y2="-990.6527"><stop offset="0" stop-color="#cae682"></stop><stop offset="0.2364" stop-color="#92c199"></stop><stop offset="0.4932" stop-color="#5b9daf"></stop><stop offset="0.6178" stop-color="#468fb8"></stop><stop offset="0.6462" stop-color="#4289b1" stop-opacity="0.8654"></stop><stop offset="0.6882" stop-color="#38799d" stop-opacity="0.666"></stop><stop offset="0.7386" stop-color="#275e7c" stop-opacity="0.4265"></stop><stop offset="0.7953" stop-color="#103a4f" stop-opacity="0.1578"></stop><stop offset="0.8074" stop-color="#0b3144" stop-opacity="0.1"></stop></linearGradient><linearGradient gradientUnits="objectBoundingBox" id="SVGID_14_" node-id="117" spreadMethod="pad" x1="1229.5662" x2="1228.1986" y1="-1266.9805" y2="-1140.3336"><stop offset="0" stop-color="#cae682"></stop><stop offset="0.2364" stop-color="#92c199"></stop><stop offset="0.4932" stop-color="#5b9daf"></stop><stop offset="0.6178" stop-color="#468fb8"></stop><stop offset="0.675" stop-color="#4289b1" stop-opacity="0.8504"></stop><stop offset="0.7596" stop-color="#38799d" stop-opacity="0.6289"></stop><stop offset="0.8613" stop-color="#275e7c" stop-opacity="0.3628"></stop><stop offset="0.9755" stop-color="#103a4f" stop-opacity="0.0642"></stop><stop offset="1" stop-color="#0b3144" stop-opacity="0"></stop></linearGradient><linearGradient gradientUnits="objectBoundingBox" id="SVGID_15_" node-id="128" spreadMethod="pad" x1="1469.059" x2="1467.9839" y1="-1268.2589" y2="-1155.797"><stop offset="0" stop-color="#cae682"></stop><stop offset="0.2364" stop-color="#92c199"></stop><stop offset="0.4932" stop-color="#5b9daf"></stop><stop offset="0.6178" stop-color="#468fb8"></stop><stop offset="0.6462" stop-color="#4289b1" stop-opacity="0.8654"></stop><stop offset="0.6882" stop-color="#38799d" stop-opacity="0.666"></stop><stop offset="0.7386" stop-color="#275e7c" stop-opacity="0.4265"></stop><stop offset="0.7953" stop-color="#103a4f" stop-opacity="0.1578"></stop><stop offset="0.8074" stop-color="#0b3144" stop-opacity="0.1"></stop></linearGradient><linearGradient gradientUnits="objectBoundingBox" id="SVGID_16_" node-id="139" spreadMethod="pad" x1="726.9429" x2="795.058" y1="254.2519" y2="349.7612"><stop offset="0" stop-color="#cae682"></stop><stop offset="0.2364" stop-color="#92c199"></stop><stop offset="0.4932" stop-color="#5b9daf"></stop><stop offset="0.6178" stop-color="#468fb8"></stop><stop offset="0.675" stop-color="#4289b1"></stop><stop offset="0.7596" stop-color="#38799d"></stop><stop offset="0.8613" stop-color="#275e7c"></stop><stop offset="0.9755" stop-color="#103a4f"></stop><stop offset="1" stop-color="#0b3144"></stop></linearGradient><radialGradient cx="530.6065" cy="525.5171" fx="530.6065" fy="525.5171" gradientUnits="objectBoundingBox" id="SVGID_5_" node-id="39" r="177.1932" rev="1" spreadMethod="pad"><stop offset="0" stop-color="#ffffff"></stop><stop offset="0.8579" stop-color="#ffffff" stop-opacity="0.1421"></stop><stop offset="1" stop-color="#ffffff" stop-opacity="0"></stop></radialGradient><clipPath id="XMLID_3_" node-id="13"><path d="M 241.24 556.80 C 241.24 556.80 206.35 507.67 187.84 495.56 C 187.84 495.56 243.38 436.09 250.50 398.54 C 250.50 398.54 304.62 126.71 546.01 133.12 C 546.01 133.12 638.58 142.38 691.27 181.54 C 691.27 181.54 725.45 218.57 763.19 220.70 C 763.19 220.70 737.55 234.23 717.62 232.10 C 717.62 232.10 693.40 234.23 695.54 241.35 C 695.54 241.35 808.05 277.92 802.35 421.63 C 796.65 565.35 759.63 596.68 745.39 629.43 C 745.39 629.43 737.08 654.12 741.35 669.07 C 741.35 669.07 730.67 641.30 729.25 632.99 C 729.25 632.99 716.90 642.01 710.50 669.07 C 710.50 669.07 703.14 651.98 701.95 638.21 C 701.95 638.21 673.82 671.44 682.72 720.93 C 682.72 720.93 700.53 709.89 704.09 720.93 C 704.09 720.93 714.41 783.59 738.98 784.31 L 449.17 784.31 C 449.17 784.31 444.18 687.11 416.41 697.79 C 388.64 708.47 313.16 727.70 283.97 705.62 C 254.77 683.55 241.24 556.80 241.24 556.80 Z" fill="#000000" fill-rule="nonzero" node-id="530" stroke="none" target-height="657.59204" target-width="620.209" target-x="187.838" target-y="126.713"></path></clipPath></defs><g node-id="748"><path d="M 241.24 556.80 C 241.24 556.80 206.35 507.67 187.84 495.56 C 187.84 495.56 243.38 436.09 250.50 398.54 C 250.50 398.54 304.62 126.71 546.01 133.12 C 546.01 133.12 638.58 142.38 691.27 181.54 C 691.27 181.54 725.45 218.57 763.19 220.70 C 763.19 220.70 737.55 234.23 717.62 232.10 C 717.62 232.10 693.40 234.23 695.54 241.35 C 695.54 241.35 808.05 277.92 802.35 421.63 C 796.65 565.35 759.63 596.68 745.39 629.43 C 745.39 629.43 737.08 654.12 741.35 669.07 C 741.35 669.07 730.67 641.30 729.25 632.99 C 729.25 632.99 716.90 642.01 710.50 669.07 C 710.50 669.07 703.14 651.98 701.95 638.21 C 701.95 638.21 673.82 671.44 682.72 720.93 C 682.72 720.93 700.53 709.89 704.09 720.93 C 704.09 720.93 714.41 783.59 738.98 784.31 L 449.17 784.31 C 449.17 784.31 444.18 687.11 416.41 697.79 C 388.64 708.47 313.16 727.70 283.97 705.62 C 254.77 683.55 241.24 556.80 241.24 556.80 Z" fill="url(#XMLID_2_)" fill-rule="nonzero" group-id="1" node-id="538" stroke="none" target-height="657.59204" target-width="620.209" target-x="187.838" target-y="126.713"></path></g><g node-id="749"><g clip-path="url(#XMLID_3_)" group-id="2" node-id="541"><path d="M 296.51 475.40 C 287.18 439.83 254.82 413.59 216.32 413.59 C 170.53 413.59 133.41 450.71 133.41 496.50 C 133.41 536.63 161.93 570.10 199.81 577.76 C 203.41 627.15 244.59 666.11 294.89 666.11 C 347.56 666.11 390.26 623.41 390.26 570.74 C 390.26 518.61 348.43 476.27 296.51 475.40 Z" fill="url(#SVGID_1_)" fill-rule="nonzero" group-id="2" node-id="543" stroke="none" target-height="252.51602" target-width="256.851" target-x="133.413" target-y="413.59"></path></g></g><g node-id="750"><g clip-path="url(#XMLID_3_)" group-id="3" node-id="546"><path d="M 799.03 446.18 C 766.55 446.18 739.55 469.62 733.99 500.50 C 703.15 502.47 678.74 528.10 678.74 559.43 C 678.74 592.06 705.18 618.50 737.80 618.50 C 763.87 618.50 785.98 601.61 793.81 578.18 C 795.54 578.31 797.27 578.40 799.03 578.40 C 835.54 578.40 865.14 548.80 865.14 512.29 C 865.14 475.78 835.54 446.18 799.03 446.18 Z" fill="url(#SVGID_2_)" fill-rule="nonzero" group-id="3" node-id="548" stroke="none" target-height="172.31802" target-width="186.406" target-x="678.736" target-y="446.18198"></path></g></g><g node-id="751"><g clip-path="url(#XMLID_3_)" group-id="4" node-id="551"><path d="M 761.72 403.29 C 725.34 403.29 695.70 432.10 694.33 468.15 C 688.86 466.68 683.12 465.88 677.19 465.88 C 640.83 465.88 611.35 495.36 611.35 531.72 C 611.35 568.08 640.83 597.56 677.19 597.56 C 712.27 597.56 740.93 570.12 742.91 535.54 C 748.88 537.28 755.19 538.22 761.72 538.22 C 798.98 538.22 829.19 508.02 829.19 470.76 C 829.19 433.50 798.98 403.29 761.72 403.29 Z" fill="url(#SVGID_3_)" fill-rule="nonzero" group-id="4" node-id="553" stroke="none" target-height="194.26398" target-width="217.83698" target-x="611.351" target-y="403.294"></path></g></g><g node-id="752"><g clip-path="url(#XMLID_3_)" group-id="5" node-id="556"><path d="M 353.38 442.25 C 352.12 442.25 350.87 442.30 349.62 442.38 C 349.62 442.36 349.62 442.33 349.62 442.31 C 349.62 388.44 305.95 344.77 252.09 344.77 C 198.22 344.77 154.55 388.44 154.55 442.31 C 154.55 496.18 198.22 539.85 252.09 539.85 C 270.15 539.85 287.06 534.92 301.57 526.35 C 311.13 545.28 330.73 558.27 353.38 558.27 C 385.43 558.27 411.40 532.30 411.40 500.26 C 411.40 468.22 385.42 442.25 353.38 442.25 Z" fill="url(#SVGID_4_)" fill-rule="nonzero" group-id="5" node-id="558" stroke="none" target-height="213.50198" target-width="256.851" target-x="154.547" target-y="344.77"></path></g></g><g node-id="753"><g clip-path="url(#XMLID_3_)" group-id="6" id="sillyvg_g_1" node-id="561"><path d="M 353.41 525.52 C 353.41 517.81 353.90 510.22 354.86 502.77 C 355.79 495.50 357.17 488.36 358.95 481.39" fill="none" group-id="6,19" node-id="565" stroke="#ffffff" stroke-linecap="round" stroke-opacity="0.38" stroke-width="2" target-height="44.12503" target-width="5.5379944" target-x="353.413" target-y="481.392"></path><path d="M 380.60 619.88 C 374.25 609.81 368.89 599.06 364.65 587.76" fill="none" group-id="6,20" node-id="570" stroke="#ffffff" stroke-linecap="round" stroke-opacity="0.38" stroke-width="2" target-height="32.123047" target-width="15.948944" target-x="364.65305" target-y="587.756"></path><path d="M 702.73 567.77 C 699.48 581.05 694.74 593.74 688.68 605.65" fill="none" group-id="6,21" node-id="575" stroke="#ffffff" stroke-linecap="round" stroke-opacity="0.38" stroke-width="2" target-height="37.88202" target-width="14.044983" target-x="688.685" target-y="567.773"></path><path d="M 681.62 432.77 C 689.75 445.98 696.20 460.34 700.66 475.55" fill="none" group-id="6,22" node-id="580" stroke="#ffffff" stroke-linecap="round" stroke-opacity="0.38" stroke-width="2" target-height="42.774994" target-width="19.036987" target-x="681.619" target-y="432.772"></path><path d="M 587.41 357.62 C 601.57 362.41 614.92 368.94 627.22 376.96" fill="none" group-id="6,23" node-id="585" stroke="#ffffff" stroke-linecap="round" stroke-opacity="0.38" stroke-width="2" target-height="19.333008" target-width="39.815002" target-x="587.406" target-y="357.623"></path><path d="M 479.97 355.67 C 489.72 352.76 499.82 350.68 510.20 349.49" fill="none" group-id="6,24" node-id="590" stroke="#ffffff" stroke-linecap="round" stroke-opacity="0.38" stroke-width="2" target-height="6.179016" target-width="30.231018" target-x="479.969" target-y="349.486"></path><path d="M 383.70 426.41 C 391.56 414.78 400.76 404.14 411.09 394.70" fill="none" group-id="6,25" node-id="595" stroke="#ffffff" stroke-linecap="round" stroke-opacity="0.38" stroke-width="2" target-height="31.715973" target-width="27.393005" target-x="383.697" target-y="394.69803"></path><path d="M 707.80 525.52 C 707.80 540.08 706.04 554.23 702.73 567.77 C 700.46 577.07 697.45 586.08 693.77 594.74 C 687.51 609.48 679.31 623.19 669.49 635.57 C 665.11 641.09 660.40 646.34 655.41 651.30 C 646.52 660.12 636.71 668.00 626.12 674.79 C 620.12 678.64 613.86 682.14 607.39 685.25 C 592.94 692.21 577.39 697.27 561.09 700.10 C 551.18 701.82 541.00 702.71 530.61 702.71 C 512.26 702.71 494.56 699.92 477.91 694.74 C 465.38 690.85 453.45 685.60 442.28 679.16 C 430.95 672.64 420.42 664.89 410.85 656.12 C 402.54 648.49 394.96 640.08 388.22 631.01 C 380.68 620.85 374.21 609.86 368.95 598.19 C 363.14 585.28 358.83 571.56 356.24 557.24 C 354.38 546.94 353.41 536.34 353.41 525.52 C 353.41 504.84 356.95 485.00 363.46 466.55 C 368.51 452.24 375.34 438.77 383.69 426.41 C 390.02 417.06 397.21 408.35 405.15 400.38 C 412.47 393.05 420.42 386.35 428.93 380.38 C 440.19 372.48 452.40 365.85 465.37 360.72 C 485.56 352.72 507.57 348.32 530.60 348.32 C 547.26 348.32 563.38 350.62 578.66 354.92 C 593.94 359.21 608.38 365.50 621.69 373.50 C 636.25 382.24 649.44 393.01 660.89 405.42 C 663.17 407.89 665.38 410.43 667.52 413.03 C 675.51 422.74 682.49 433.32 688.29 444.60 C 694.19 456.08 698.87 468.28 702.17 481.04 C 705.85 495.25 707.80 510.15 707.80 525.52 Z" fill="url(#SVGID_5_)" fill-opacity="0.36" fill-rule="nonzero" group-id="6,26" node-id="600" stroke="none" target-height="354.38705" target-width="354.38806" target-x="353.412" target-y="348.32297"></path><path d="M 662.95 525.52 C 662.95 598.61 603.70 657.86 530.61 657.86 C 457.51 657.86 398.26 598.61 398.26 525.52 C 398.26 452.42 457.51 393.17 530.61 393.17 C 603.70 393.17 662.95 452.42 662.95 525.52 Z" fill="#ffffff" fill-rule="nonzero" group-id="6" node-id="603" stroke="none" target-height="264.69202" target-width="264.692" target-x="398.26102" target-y="393.17102"></path><path d="M 489.84 466.56 C 489.84 485.61 474.39 501.06 455.34 501.06 C 436.29 501.06 420.84 485.61 420.84 466.56 C 420.84 447.50 436.29 432.06 455.34 432.06 C 474.39 432.06 489.84 447.50 489.84 466.56 Z" fill="#eff0e2" fill-rule="nonzero" group-id="6" node-id="605" stroke="none" target-height="68.99597" target-width="68.99597" target-x="420.84103" target-y="432.05902"></path><path d="M 541.90 422.49 C 541.90 434.70 532.00 444.60 519.79 444.60 C 507.58 444.60 497.68 434.70 497.68 422.49 C 497.68 410.28 507.58 400.38 519.79 400.38 C 532.00 400.38 541.90 410.28 541.90 422.49 Z" fill="#eff0e2" fill-rule="nonzero" group-id="6" node-id="607" stroke="none" target-height="44.22003" target-width="44.22" target-x="497.67697" target-y="400.38397"></path><path d="M 530.61 473.61 C 530.61 480.46 525.06 486.00 518.22 486.00 C 511.38 486.00 505.83 480.46 505.83 473.61 C 505.83 466.77 511.38 461.23 518.22 461.23 C 525.06 461.23 530.61 466.77 530.61 473.61 Z" fill="#eff0e2" fill-rule="nonzero" group-id="6" node-id="609" stroke="none" target-height="24.776031" target-width="24.776031" target-x="505.83096" target-y="461.226"></path></g></g><g node-id="754"><g clip-path="url(#XMLID_3_)" group-id="7" node-id="612"><path d="M 155.79 658.88 C 155.79 658.88 295.53 561.50 463.41 603.16 C 631.28 644.81 835.11 553.75 835.11 553.75 L 789.53 649.57 L 563.10 672.83 L 232.70 681.43 L 155.79 658.88 Z" fill="url(#SVGID_6_)" fill-rule="nonzero" group-id="7" node-id="614" stroke="none" target-height="127.685" target-width="679.31006" target-x="155.795" target-y="553.75"></path></g></g><g node-id="755"><g clip-path="url(#XMLID_3_)" group-id="8" node-id="617"><path d="M 204.22 688.01 C 204.22 688.01 332.39 609.49 429.23 637.98 C 526.07 666.46 751.08 636.55 780.99 612.34 L 761.05 696.37 L 526.07 724.93 L 258.72 728.47 L 204.22 688.01 Z" fill="url(#SVGID_7_)" fill-rule="nonzero" group-id="8" node-id="619" stroke="none" target-height="118.97595" target-width="576.774" target-x="204.21602" target-y="609.494"></path></g></g><g node-id="756"><g clip-path="url(#XMLID_3_)" group-id="9" node-id="622"><path d="M 265.45 715.88 C 265.45 715.88 369.42 652.60 487.62 688.01 C 605.82 723.42 718.51 668.94 718.51 668.94 L 778.14 757.52 L 678.45 764.16 L 244.09 755.85 L 265.45 715.88 Z" fill="url(#SVGID_8_)" fill-rule="nonzero" group-id="9" node-id="624" stroke="none" target-height="111.55499" target-width="534.049" target-x="244.093" target-y="652.603"></path></g></g><g node-id="757"><g clip-path="url(#XMLID_3_)" group-id="10" node-id="627"><path d="M 338.80 730.19 C 338.80 730.19 410.36 699.21 507.56 744.07 C 604.75 788.93 741.59 700.28 741.59 700.28 L 774.58 820.98 L 327.05 806.02 L 338.80 730.19 Z" fill="url(#SVGID_9_)" fill-rule="nonzero" group-id="10" node-id="629" stroke="none" target-height="121.763" target-width="447.53296" target-x="327.047" target-y="699.214"></path></g></g><g node-id="758"><g clip-path="url(#XMLID_3_)" group-id="11" node-id="632"><path d="M 487.89 159.66 L 596.93 262.21 C 598.55 263.83 598.05 266.99 595.82 269.22 L 595.82 269.22 C 593.59 271.45 590.43 271.95 588.80 270.33 L 486.26 161.29 C 484.63 159.66 486.26 158.04 487.89 159.66 Z" fill="url(#SVGID_10_)" fill-opacity="0.38" fill-rule="nonzero" group-id="11" node-id="634" stroke="none" target-height="113.916" target-width="113.91702" target-x="484.634" target-y="158.036"></path></g></g><g node-id="759"><g clip-path="url(#XMLID_3_)" group-id="12" node-id="637"><path d="M 490.15 162.42 L 593.25 261.02 C 594.80 262.57 594.80 265.11 593.25 266.65 L 593.25 266.65 C 591.70 268.20 589.17 268.20 587.62 266.65 L 489.02 163.55 C 487.47 162.00 488.60 160.87 490.15 162.42 Z" fill="url(#SVGID_11_)" fill-rule="nonzero" group-id="12" node-id="639" stroke="none" target-height="107.33099" target-width="107.331024" target-x="487.46896" target-y="160.871"></path></g></g><g node-id="760"><g clip-path="url(#XMLID_3_)" group-id="13" node-id="642"><path d="M 311.62 203.49 L 420.66 306.04 C 422.29 307.66 421.79 310.82 419.56 313.05 L 419.56 313.05 C 417.32 315.29 414.17 315.79 412.54 314.16 L 310.00 205.12 C 308.37 203.50 310.00 201.87 311.62 203.49 Z" fill="url(#SVGID_12_)" fill-opacity="0.38" fill-rule="nonzero" group-id="13" node-id="644" stroke="none" target-height="113.916" target-width="113.915985" target-x="308.371" target-y="201.869"></path></g></g><g node-id="761"><g clip-path="url(#XMLID_3_)" group-id="14" node-id="647"><path d="M 313.88 206.25 L 416.99 304.86 C 418.54 306.40 418.54 308.94 416.99 310.49 L 416.99 310.49 C 415.44 312.04 412.90 312.04 411.36 310.49 L 312.75 207.38 C 311.21 205.83 312.33 204.70 313.88 206.25 Z" fill="url(#SVGID_13_)" fill-rule="nonzero" group-id="14" node-id="649" stroke="none" target-height="107.33101" target-width="107.32999" target-x="311.207" target-y="204.704"></path></g></g><g node-id="762"><g clip-path="url(#XMLID_3_)" group-id="15" node-id="652"><path d="M 345.48 403.18 L 454.52 505.73 C 456.15 507.35 455.65 510.51 453.42 512.74 L 453.42 512.74 C 451.18 514.98 448.03 515.48 446.40 513.85 L 343.86 404.81 C 342.23 403.19 343.86 401.56 345.48 403.18 Z" fill="url(#SVGID_14_)" fill-opacity="0.38" fill-rule="nonzero" group-id="15" node-id="654" stroke="none" target-height="113.91699" target-width="113.915985" target-x="342.231" target-y="401.55798"></path></g></g><g node-id="763"><g clip-path="url(#XMLID_3_)" group-id="16" node-id="657"><path d="M 347.74 405.94 L 450.85 504.54 C 452.40 506.09 452.40 508.63 450.85 510.18 L 450.85 510.18 C 449.30 511.72 446.76 511.72 445.22 510.18 L 346.62 407.07 C 345.07 405.52 346.20 404.39 347.74 405.94 Z" fill="url(#SVGID_15_)" fill-rule="nonzero" group-id="16" node-id="659" stroke="none" target-height="107.33099" target-width="107.33099" target-x="345.066" target-y="404.393"></path></g></g><g node-id="764"><g clip-path="url(#XMLID_3_)" group-id="17" node-id="662"><path d="M 824.76 302.55 C 824.76 337.55 796.39 365.92 761.39 365.92 C 726.38 365.92 698.01 337.55 698.01 302.55 C 698.01 267.55 726.38 239.17 761.39 239.17 C 796.39 239.17 824.76 267.55 824.76 302.55 Z" fill="url(#SVGID_16_)" fill-rule="nonzero" group-id="17" node-id="664" stroke="none" target-height="126.74802" target-width="126.74805" target-x="698.011" target-y="239.17197"></path></g></g><g clip-path="url(#XMLID_3_)" group-id="18" id="sillyvg_g_4" node-id="667"><path d="M 414.28 203.62 C 414.28 205.19 413.00 206.46 411.43 206.46 C 409.85 206.46 408.58 205.19 408.58 203.62 C 408.58 202.04 409.85 200.77 411.43 200.77 C 413.00 200.77 414.28 202.04 414.28 203.62 Z" fill="#ffffff" fill-rule="nonzero" group-id="18" node-id="669" stroke="none" target-height="5.695999" target-width="5.696045" target-x="408.57898" target-y="200.768"></path><path d="M 448.09 304.84 C 448.09 305.38 447.88 305.89 447.50 306.27 C 447.12 306.65 446.61 306.86 446.07 306.86 C 445.54 306.86 445.03 306.65 444.65 306.27 C 444.27 305.89 444.06 305.38 444.06 304.84 C 444.06 304.31 444.27 303.80 444.65 303.42 C 445.03 303.04 445.54 302.83 446.07 302.83 C 446.61 302.83 447.12 303.04 447.50 303.42 C 447.88 303.80 448.09 304.31 448.09 304.84 Z" fill="#ffffff" fill-rule="nonzero" group-id="18" node-id="671" stroke="none" target-height="4.028015" target-width="4.0279846" target-x="444.06003" target-y="302.83"></path><path d="M 553.84 380.92 C 553.84 381.68 553.54 382.40 553.01 382.93 C 552.47 383.47 551.75 383.77 550.99 383.77 C 550.24 383.77 549.51 383.47 548.98 382.93 C 548.44 382.40 548.14 381.68 548.14 380.92 C 548.14 380.16 548.44 379.44 548.98 378.91 C 549.51 378.37 550.24 378.07 550.99 378.07 C 551.75 378.07 552.47 378.37 553.01 378.91 C 553.54 379.44 553.84 380.16 553.84 380.92 Z" fill="#ffffff" fill-rule="nonzero" group-id="18" node-id="673" stroke="none" target-height="5.695984" target-width="5.696045" target-x="548.144" target-y="378.07202"></path><path d="M 732.82 482.77 C 732.82 483.44 732.28 483.97 731.62 483.97 C 730.96 483.97 730.42 483.44 730.42 482.77 C 730.42 482.11 730.96 481.57 731.62 481.57 C 732.28 481.57 732.82 482.11 732.82 482.77 Z" fill="#ffffff" fill-rule="nonzero" group-id="18" node-id="675" stroke="none" target-height="2.4019775" target-width="2.4019775" target-x="730.419" target-y="481.573"></path><path d="M 689.96 217.14 C 689.96 217.73 689.49 218.21 688.90 218.21 C 688.31 218.21 687.83 217.73 687.83 217.14 C 687.83 216.56 688.31 216.08 688.90 216.08 C 689.49 216.08 689.96 216.56 689.96 217.14 Z" fill="#ffffff" fill-rule="nonzero" group-id="18" node-id="677" stroke="none" target-height="2.1360016" target-width="2.1359863" target-x="687.828" target-y="216.07701"></path><path d="M 401.13 429.10 C 401.13 429.36 401.03 429.61 400.85 429.80 C 400.66 429.98 400.41 430.08 400.15 430.08 C 399.89 430.08 399.64 429.98 399.46 429.80 C 399.28 429.61 399.17 429.36 399.17 429.10 C 399.17 428.84 399.28 428.59 399.46 428.41 C 399.64 428.23 399.89 428.12 400.15 428.12 C 400.41 428.12 400.66 428.23 400.85 428.41 C 401.03 428.59 401.13 428.84 401.13 429.10 Z" fill="#ffffff" fill-rule="nonzero" group-id="18" node-id="679" stroke="none" target-height="1.9580078" target-width="1.9580078" target-x="399.174" target-y="428.124"></path><path d="M 428.52 173.00 C 428.52 174.57 427.24 175.84 425.67 175.84 C 424.10 175.84 422.82 174.57 422.82 173.00 C 422.82 171.42 424.10 170.15 425.67 170.15 C 427.24 170.15 428.52 171.42 428.52 173.00 Z" fill="#ffffff" fill-opacity="0.56" fill-rule="nonzero" group-id="18,27" node-id="683" stroke="none" target-height="5.6960144" target-width="5.695984" target-x="422.82" target-y="170.14899"></path><path d="M 257.97 466.61 C 257.97 467.72 257.07 468.62 255.96 468.62 C 254.85 468.62 253.95 467.72 253.95 466.61 C 253.95 465.49 254.85 464.59 255.96 464.59 C 257.07 464.59 257.97 465.49 257.97 466.61 Z" fill="#ffffff" fill-rule="nonzero" group-id="18" node-id="686" stroke="none" target-height="4.028015" target-width="4.0279694" target-x="253.94502" target-y="464.59198"></path><path d="M 691.74 276.60 C 691.74 277.36 691.44 278.08 690.91 278.62 C 690.38 279.15 689.65 279.45 688.90 279.45 C 688.14 279.45 687.42 279.15 686.88 278.62 C 686.35 278.08 686.05 277.36 686.05 276.60 C 686.05 275.85 686.35 275.12 686.88 274.59 C 687.42 274.06 688.14 273.75 688.90 273.75 C 689.65 273.75 690.38 274.06 690.91 274.59 C 691.44 275.12 691.74 275.85 691.74 276.60 Z" fill="#ffffff" fill-opacity="0.47" fill-rule="nonzero" group-id="18,28" node-id="690" stroke="none" target-height="5.695984" target-width="5.696045" target-x="686.048" target-y="273.755"></path><path d="M 474.44 386.62 C 474.44 387.15 474.23 387.66 473.85 388.04 C 473.47 388.42 472.96 388.63 472.43 388.63 C 471.89 388.63 471.38 388.42 471.00 388.04 C 470.63 387.66 470.41 387.15 470.41 386.62 C 470.41 386.08 470.63 385.57 471.00 385.19 C 471.38 384.82 471.89 384.60 472.43 384.60 C 472.96 384.60 473.47 384.82 473.85 385.19 C 474.23 385.57 474.44 386.08 474.44 386.62 Z" fill="#ffffff" fill-rule="nonzero" group-id="18" node-id="693" stroke="none" target-height="4.0279846" target-width="4.0279846" target-x="470.413" target-y="384.60303"></path><path d="M 359.33 455.81 C 359.33 456.16 359.19 456.49 358.95 456.73 C 358.70 456.98 358.37 457.12 358.02 457.12 C 357.68 457.12 357.34 456.98 357.10 456.73 C 356.85 456.49 356.71 456.16 356.71 455.81 C 356.71 455.46 356.85 455.13 357.10 454.88 C 357.34 454.64 357.68 454.50 358.02 454.50 C 358.37 454.50 358.70 454.64 358.95 454.88 C 359.19 455.13 359.33 455.46 359.33 455.81 Z" fill="#ffffff" fill-rule="nonzero" group-id="18" node-id="695" stroke="none" target-height="2.6140442" target-width="2.6140137" target-x="356.715" target-y="454.50198"></path><path d="M 763.59 439.07 C 763.59 439.37 763.47 439.65 763.26 439.86 C 763.05 440.06 762.77 440.18 762.48 440.18 C 762.18 440.18 761.90 440.06 761.69 439.86 C 761.48 439.65 761.37 439.37 761.37 439.07 C 761.37 438.78 761.48 438.50 761.69 438.29 C 761.90 438.08 762.18 437.96 762.48 437.96 C 762.77 437.96 763.05 438.08 763.26 438.29 C 763.47 438.50 763.59 438.78 763.59 439.07 Z" fill="#ffffff" fill-rule="nonzero" group-id="18" node-id="697" stroke="none" target-height="2.2179565" target-width="2.2180176" target-x="761.367" target-y="437.963"></path><path d="M 735.74 386.62 C 735.74 386.96 735.61 387.28 735.37 387.52 C 735.13 387.76 734.81 387.89 734.47 387.89 C 734.13 387.89 733.81 387.76 733.57 387.52 C 733.33 387.28 733.19 386.96 733.19 386.62 C 733.19 386.28 733.33 385.95 733.57 385.71 C 733.81 385.48 734.13 385.34 734.47 385.34 C 734.81 385.34 735.13 385.48 735.37 385.71 C 735.61 385.95 735.74 386.28 735.74 386.62 Z" fill="#ffffff" fill-opacity="0.5" fill-rule="nonzero" group-id="18,29" node-id="701" stroke="none" target-height="2.552002" target-width="2.552002" target-x="733.192" target-y="385.341"></path><path d="M 708.42 378.07 C 708.42 378.63 707.97 379.08 707.41 379.08 C 706.85 379.08 706.40 378.63 706.40 378.07 C 706.40 377.51 706.85 377.06 707.41 377.06 C 707.97 377.06 708.42 377.51 708.42 378.07 Z" fill="#ffffff" fill-rule="nonzero" group-id="18" node-id="704" stroke="none" target-height="2.0180054" target-width="2.0179443" target-x="706.4" target-y="377.063"></path><path d="M 311.97 426.25 C 311.97 429.53 309.32 432.19 306.04 432.19 C 302.76 432.19 300.11 429.53 300.11 426.25 C 300.11 422.98 302.76 420.32 306.04 420.32 C 309.32 420.32 311.97 422.98 311.97 426.25 Z" fill="#ffffff" fill-opacity="0.49" fill-rule="nonzero" group-id="18,30" node-id="708" stroke="none" target-height="11.86795" target-width="11.867981" target-x="300.107" target-y="420.32104"></path><path d="M 467.20 164.22 C 467.20 165.79 465.93 167.06 464.36 167.06 C 462.78 167.06 461.51 165.79 461.51 164.22 C 461.51 162.64 462.78 161.37 464.36 161.37 C 465.93 161.37 467.20 162.64 467.20 164.22 Z" fill="#ffffff" fill-opacity="0.63" fill-rule="nonzero" group-id="18,31" node-id="713" stroke="none" target-height="5.6960144" target-width="5.695984" target-x="461.509" target-y="161.36699"></path><path d="M 441.21 247.76 C 441.21 248.30 441.00 248.81 440.62 249.19 C 440.24 249.57 439.73 249.78 439.20 249.78 C 438.66 249.78 438.15 249.57 437.77 249.19 C 437.40 248.81 437.18 248.30 437.18 247.76 C 437.18 247.23 437.40 246.72 437.77 246.34 C 438.15 245.96 438.66 245.75 439.20 245.75 C 439.73 245.75 440.24 245.96 440.62 246.34 C 441.00 246.72 441.21 247.23 441.21 247.76 Z" fill="#ffffff" fill-rule="nonzero" group-id="18" node-id="716" stroke="none" target-height="4.028015" target-width="4.0279846" target-x="437.184" target-y="245.75"></path><path d="M 400.15 249.49 C 400.15 252.01 398.11 254.05 395.58 254.05 C 393.06 254.05 391.01 252.01 391.01 249.49 C 391.01 246.96 393.06 244.92 395.58 244.92 C 398.11 244.92 400.15 246.96 400.15 249.49 Z" fill="#ffffff" fill-rule="nonzero" group-id="18" node-id="718" stroke="none" target-height="9.138016" target-width="9.1380005" target-x="391.015" target-y="244.916"></path><path d="M 439.20 348.88 C 439.20 350.45 437.92 351.73 436.35 351.73 C 434.78 351.73 433.50 350.45 433.50 348.88 C 433.50 347.30 434.78 346.03 436.35 346.03 C 437.92 346.03 439.20 347.30 439.20 348.88 Z" fill="#ffffff" fill-opacity="0.63" fill-rule="nonzero" group-id="18,32" node-id="722" stroke="none" target-height="5.695984" target-width="5.695984" target-x="433.501" target-y="346.02902"></path><path d="M 495.20 149.50 C 495.20 151.07 493.92 152.35 492.35 152.35 C 490.78 152.35 489.50 151.07 489.50 149.50 C 489.50 147.93 490.78 146.65 492.35 146.65 C 493.92 146.65 495.20 147.93 495.20 149.50 Z" fill="#ffffff" fill-rule="nonzero" group-id="18" node-id="725" stroke="none" target-height="5.6960144" target-width="5.6959534" target-x="489.50302" target-y="146.65099"></path><path d="M 608.00 285.50 C 608.00 285.80 607.88 286.08 607.67 286.29 C 607.47 286.50 607.18 286.61 606.89 286.61 C 606.59 286.61 606.31 286.50 606.10 286.29 C 605.90 286.08 605.78 285.80 605.78 285.50 C 605.78 285.21 605.90 284.93 606.10 284.72 C 606.31 284.51 606.59 284.39 606.89 284.39 C 607.18 284.39 607.47 284.51 607.67 284.72 C 607.88 284.93 608.00 285.21 608.00 285.50 Z" fill="#ffffff" fill-rule="nonzero" group-id="18" node-id="727" stroke="none" target-height="2.2180176" target-width="2.2180176" target-x="605.77997" target-y="284.39398"></path><path d="M 441.21 383.77 C 441.21 384.30 441.00 384.82 440.62 385.19 C 440.24 385.57 439.73 385.78 439.20 385.78 C 438.66 385.78 438.15 385.57 437.77 385.19 C 437.40 384.82 437.18 384.30 437.18 383.77 C 437.18 383.23 437.40 382.72 437.77 382.34 C 438.15 381.97 438.66 381.76 439.20 381.76 C 439.73 381.76 440.24 381.97 440.62 382.34 C 441.00 382.72 441.21 383.23 441.21 383.77 Z" fill="#ffffff" fill-rule="nonzero" group-id="18" node-id="729" stroke="none" target-height="4.0279846" target-width="4.0279846" target-x="437.184" target-y="381.75504"></path><path d="M 310.40 332.86 C 310.40 333.26 310.24 333.64 309.96 333.93 C 309.68 334.21 309.29 334.37 308.89 334.37 C 308.49 334.37 308.10 334.21 307.82 333.93 C 307.54 333.64 307.38 333.26 307.38 332.86 C 307.38 332.45 307.54 332.07 307.82 331.79 C 308.10 331.50 308.49 331.34 308.89 331.34 C 309.29 331.34 309.68 331.50 309.96 331.79 C 310.24 332.07 310.40 332.45 310.40 332.86 Z" fill="#ffffff" fill-rule="nonzero" group-id="18" node-id="731" stroke="none" target-height="3.026001" target-width="3.026001" target-x="307.377" target-y="331.343"></path><path d="M 375.70 211.45 C 375.70 211.98 375.49 212.50 375.11 212.87 C 374.73 213.25 374.22 213.46 373.69 213.46 C 373.15 213.46 372.64 213.25 372.26 212.87 C 371.89 212.50 371.67 211.98 371.67 211.45 C 371.67 210.91 371.89 210.40 372.26 210.02 C 372.64 209.65 373.15 209.44 373.69 209.44 C 374.22 209.44 374.73 209.65 375.11 210.02 C 375.49 210.40 375.70 210.91 375.70 211.45 Z" fill="#ffffff" fill-rule="nonzero" group-id="18" node-id="733" stroke="none" target-height="4.028015" target-width="4.028015" target-x="371.67398" target-y="209.435"></path><path d="M 540.31 159.82 C 540.31 160.58 540.01 161.30 539.48 161.84 C 538.94 162.37 538.22 162.67 537.46 162.67 C 536.71 162.67 535.98 162.37 535.45 161.84 C 534.92 161.30 534.62 160.58 534.62 159.82 C 534.62 159.07 534.92 158.34 535.45 157.81 C 535.98 157.28 536.71 156.98 537.46 156.98 C 538.22 156.98 538.94 157.28 539.48 157.81 C 540.01 158.34 540.31 159.07 540.31 159.82 Z" fill="#ffffff" fill-rule="nonzero" group-id="18" node-id="735" stroke="none" target-height="5.6960144" target-width="5.696045" target-x="534.615" target-y="156.976"></path><path d="M 382.23 378.07 C 382.23 379.64 380.96 380.92 379.38 380.92 C 377.81 380.92 376.54 379.64 376.54 378.07 C 376.54 376.50 377.81 375.22 379.38 375.22 C 380.96 375.22 382.23 376.50 382.23 378.07 Z" fill="#ffffff" fill-opacity="0.19" fill-rule="nonzero" group-id="18,33" node-id="739" stroke="none" target-height="5.695984" target-width="5.695984" target-x="376.536" target-y="375.224"></path><path d="M 380.51 334.37 C 380.51 334.67 380.39 334.95 380.18 335.17 C 379.97 335.38 379.68 335.50 379.38 335.50 C 379.09 335.50 378.80 335.38 378.59 335.17 C 378.38 334.95 378.26 334.67 378.26 334.37 C 378.26 334.07 378.38 333.78 378.59 333.57 C 378.80 333.36 379.09 333.24 379.38 333.24 C 379.68 333.24 379.97 333.36 380.18 333.57 C 380.39 333.78 380.51 334.07 380.51 334.37 Z" fill="#ffffff" fill-rule="nonzero" group-id="18" node-id="742" stroke="none" target-height="2.2540283" target-width="2.2540283" target-x="378.257" target-y="333.24197"></path><path d="M 343.30 285.50 C 343.30 286.04 343.09 286.55 342.71 286.93 C 342.34 287.30 341.82 287.52 341.29 287.52 C 340.75 287.52 340.24 287.30 339.86 286.93 C 339.49 286.55 339.27 286.04 339.27 285.50 C 339.27 284.97 339.49 284.46 339.86 284.08 C 340.24 283.70 340.75 283.49 341.29 283.49 C 341.82 283.49 342.34 283.70 342.71 284.08 C 343.09 284.46 343.30 284.97 343.30 285.50 Z" fill="#ffffff" fill-opacity="0.49" fill-rule="nonzero" group-id="18,34" node-id="746" stroke="none" target-height="4.028015" target-width="4.028015" target-x="339.275" target-y="283.48898"></path></g></svg>