<?xml version="1.0" standalone="no"?><!DOCTYPE svg PUBLIC "-//W3C//DTD SVG 1.1//EN" "http://www.w3.org/Graphics/SVG/1.1/DTD/svg11.dtd"><svg height="1000" node-id="1" sillyvg="true" template-height="1000" template-width="1000" version="1.1" viewBox="0 0 1000 1000" width="1000" xmlns="http://www.w3.org/2000/svg" xmlns:xlink="http://www.w3.org/1999/xlink"><defs node-id="132"><linearGradient gradientUnits="objectBoundingBox" id="XMLID_2_" node-id="5" spreadMethod="pad" x1="535.1869" x2="535.1869" y1="877.1912" y2="178.0314"><stop offset="0" stop-color="#251017"></stop><stop offset="0.0045" stop-color="#2a1219"></stop><stop offset="0.08" stop-color="#7f3a41"></stop><stop offset="0.1333" stop-color="#b45359"></stop><stop offset="0.1592" stop-color="#c85d63"></stop><stop offset="0.3547" stop-color="#e6625e"></stop><stop offset="0.3821" stop-color="#e87160"></stop><stop offset="0.4434" stop-color="#ed8d65"></stop><stop offset="0.497" stop-color="#f09f68"></stop><stop offset="0.5363" stop-color="#f1a569"></stop><stop offset="0.6508" stop-color="#e55f5c"></stop><stop offset="0.7626" stop-color="#bc4e5a"></stop><stop offset="0.8464" stop-color="#5d233c"></stop><stop offset="1" stop-color="#321420"></stop></linearGradient><linearGradient gradientUnits="objectBoundingBox" id="SVGID_1_" node-id="24" spreadMethod="pad" x1="781.5439" x2="776.971" y1="100.3345" y2="218.7169"><stop offset="0" stop-color="#fffae6" stop-opacity="0.7"></stop><stop offset="0.3209" stop-color="#fffcef" stop-opacity="0.4696"></stop><stop offset="0.9749" stop-color="#ffffff" stop-opacity="0"></stop></linearGradient><linearGradient gradientUnits="objectBoundingBox" id="SVGID_2_" node-id="29" spreadMethod="pad" x1="243.9041" x2="249.7565" y1="93.5675" y2="213.5365"><stop offset="0.4017" stop-color="#fffae6" stop-opacity="0.7"></stop><stop offset="0.5986" stop-color="#fffcef" stop-opacity="0.4696"></stop><stop offset="1" stop-color="#ffffff" stop-opacity="0"></stop></linearGradient><linearGradient gradientUnits="objectBoundingBox" id="SVGID_3_" node-id="34" spreadMethod="pad" x1="749.5723" x2="801.1652" y1="376.6403" y2="483.2867"><stop offset="0" stop-color="#fffae6" stop-opacity="0.7"></stop><stop offset="0.3209" stop-color="#fffcef" stop-opacity="0.4696"></stop><stop offset="0.9749" stop-color="#ffffff" stop-opacity="0"></stop></linearGradient><linearGradient gradientUnits="objectBoundingBox" id="SVGID_4_" node-id="39" spreadMethod="pad" x1="323.977" x2="323.2867" y1="97.165" y2="254.081"><stop offset="0" stop-color="#fffae6" stop-opacity="0.7"></stop><stop offset="0.3209" stop-color="#fffcef" stop-opacity="0.4696"></stop><stop offset="0.9749" stop-color="#ffffff" stop-opacity="0"></stop></linearGradient><linearGradient gradientUnits="objectBoundingBox" id="SVGID_5_" node-id="44" spreadMethod="pad" x1="671.0007" x2="763.4581" y1="270.2607" y2="550.2796"><stop offset="0" stop-color="#fffae6" stop-opacity="0.7"></stop><stop offset="0.1586" stop-color="#fffcef" stop-opacity="0.4696"></stop><stop offset="0.4818" stop-color="#ffffff" stop-opacity="0"></stop></linearGradient><linearGradient gradientUnits="objectBoundingBox" id="SVGID_6_" node-id="49" spreadMethod="pad" x1="331.5464" x2="255.8754" y1="366.8328" y2="460.1105"><stop offset="0.4017" stop-color="#fffae6" stop-opacity="0.7"></stop><stop offset="0.5986" stop-color="#fffcef" stop-opacity="0.4696"></stop><stop offset="1" stop-color="#ffffff" stop-opacity="0"></stop></linearGradient><linearGradient gradientUnits="objectBoundingBox" id="SVGID_8_" node-id="64" spreadMethod="pad" x1="665.3583" x2="664.0892" y1="122.6966" y2="5.6642"><stop offset="0.6532" stop-color="#e5a25e"></stop><stop offset="0.7253" stop-color="#ebb985" stop-opacity="0.7919"></stop><stop offset="0.856" stop-color="#f6dec6" stop-opacity="0.4153"></stop><stop offset="0.9511" stop-color="#fcf6ef" stop-opacity="0.141"></stop><stop offset="1" stop-color="#ffffff" stop-opacity="0"></stop></linearGradient><linearGradient gradientUnits="objectBoundingBox" id="SVGID_9_" node-id="71" spreadMethod="pad" x1="406.2467" x2="405.3817" y1="466.5096" y2="386.7447"><stop offset="0.6532" stop-color="#e5a25e"></stop><stop offset="0.7253" stop-color="#ebb985" stop-opacity="0.7919"></stop><stop offset="0.856" stop-color="#f6dec6" stop-opacity="0.4153"></stop><stop offset="0.9511" stop-color="#fcf6ef" stop-opacity="0.141"></stop><stop offset="1" stop-color="#ffffff" stop-opacity="0"></stop></linearGradient><linearGradient gradientUnits="objectBoundingBox" id="SVGID_10_" node-id="78" spreadMethod="pad" x1="499.1334" x2="585.5845" y1="162.974" y2="162.974"><stop offset="0.6532" stop-color="#fffae6" stop-opacity="0.7"></stop><stop offset="0.7673" stop-color="#fffcef" stop-opacity="0.4696"></stop><stop offset="1" stop-color="#ffffff" stop-opacity="0"></stop></linearGradient><radialGradient cx="500.0425" cy="479.0114" fx="501.7923" fy="481.4102" gradientUnits="objectBoundingBox" id="SVGID_7_" node-id="54" r="200.6271" rev="1" spreadMethod="pad"><stop offset="0.6532" stop-color="#ffffff" stop-opacity="0.7"></stop><stop offset="0.948" stop-color="#ffffff" stop-opacity="0"></stop></radialGradient><clipPath id="XMLID_3_" node-id="21"><path d="M 306.58 279.47 C 306.58 279.47 292.35 308.53 282.27 314.46 C 272.19 320.39 268.63 335.81 269.22 363.69 C 269.81 391.56 228.89 421.81 181.45 450.87 C 181.45 450.87 166.62 457.98 181.45 475.77 C 196.28 493.57 209.62 524.41 183.23 581.93 C 156.84 639.46 185.01 648.95 214.07 656.66 C 243.13 664.37 310.74 652.51 320.82 734.94 C 320.82 734.94 347.80 802.43 335.79 842.37 L 523.94 842.37 C 523.94 842.37 471.46 784.76 502.30 701.73 C 502.30 701.73 511.19 678.01 571.09 711.22 C 630.99 744.43 649.97 702.92 665.39 696.99 C 680.81 691.06 688.52 713.59 712.83 684.53 C 737.15 655.47 749.60 584.31 737.15 556.43 C 737.15 556.43 733.59 542.20 749.01 565.33 C 764.43 588.46 791.26 589.20 803.05 581.42 C 814.84 573.63 830.63 566.29 833.74 555.84 C 836.86 545.39 827.74 532.27 852.87 527.15 C 878.00 522.04 912.69 463.32 889.56 422.40 C 889.56 422.40 877.55 399.94 890.68 384.59 C 903.80 369.25 906.47 330.55 824.40 294.52 C 742.34 258.49 756.35 304.53 734.33 303.86 C 712.31 303.20 712.53 295.78 699.19 279.47 C 685.85 263.16 663.61 251.15 648.93 242.70 C 634.25 234.25 622.24 198.22 583.54 195.11 C 544.85 192.00 531.06 169.31 505.70 160.86 C 480.35 152.41 329.42 151.22 306.58 279.47 Z" fill="#000000" fill-rule="nonzero" node-id="251" stroke="none" target-height="691.153" target-width="755.85596" target-x="156.837" target-y="151.221"></path></clipPath></defs><g node-id="477"><path d="M 306.58 279.47 C 306.58 279.47 292.35 308.53 282.27 314.46 C 272.19 320.39 268.63 335.81 269.22 363.69 C 269.81 391.56 228.89 421.81 181.45 450.87 C 181.45 450.87 166.62 457.98 181.45 475.77 C 196.28 493.57 209.62 524.41 183.23 581.93 C 156.84 639.46 185.01 648.95 214.07 656.66 C 243.13 664.37 310.74 652.51 320.82 734.94 C 320.82 734.94 347.80 802.43 335.79 842.37 L 523.94 842.37 C 523.94 842.37 471.46 784.76 502.30 701.73 C 502.30 701.73 511.19 678.01 571.09 711.22 C 630.99 744.43 649.97 702.92 665.39 696.99 C 680.81 691.06 688.52 713.59 712.83 684.53 C 737.15 655.47 749.60 584.31 737.15 556.43 C 737.15 556.43 733.59 542.20 749.01 565.33 C 764.43 588.46 791.26 589.20 803.05 581.42 C 814.84 573.63 830.63 566.29 833.74 555.84 C 836.86 545.39 827.74 532.27 852.87 527.15 C 878.00 522.04 912.69 463.32 889.56 422.40 C 889.56 422.40 877.55 399.94 890.68 384.59 C 903.80 369.25 906.47 330.55 824.40 294.52 C 742.34 258.49 756.35 304.53 734.33 303.86 C 712.31 303.20 712.53 295.78 699.19 279.47 C 685.85 263.16 663.61 251.15 648.93 242.70 C 634.25 234.25 622.24 198.22 583.54 195.11 C 544.85 192.00 531.06 169.31 505.70 160.86 C 480.35 152.41 329.42 151.22 306.58 279.47 Z" fill="url(#XMLID_2_)" fill-rule="nonzero" group-id="1" node-id="259" stroke="none" target-height="691.153" target-width="755.85596" target-x="156.837" target-y="151.221"></path></g><g node-id="478"><g clip-path="url(#XMLID_3_)" group-id="2" node-id="262"><path d="M 346.06 551.08 C 373.66 608.37 432.27 647.90 500.12 647.90 C 567.96 647.90 626.58 608.37 654.17 551.08 L 346.06 551.08 Z" fill="#fff5f5" fill-opacity="0.21" fill-rule="nonzero" group-id="2" node-id="264" stroke="none" target-height="96.828" target-width="308.10806" target-x="346.06296" target-y="551.076"></path></g></g><g node-id="479"><g clip-path="url(#XMLID_3_)" group-id="3" node-id="267"><path d="M 899.06 799.81 C 869.66 799.81 845.84 775.98 845.84 746.59 C 845.84 744.39 845.99 742.22 846.24 740.10 C 842.74 740.96 839.09 741.43 835.32 741.43 C 825.44 741.43 816.31 738.26 808.85 732.90 C 799.52 737.80 788.90 740.59 777.62 740.59 C 752.78 740.59 731.10 727.12 719.43 707.10 C 714.65 710.62 708.74 712.71 702.35 712.71 C 689.79 712.71 679.11 704.68 675.15 693.48 C 671.76 694.09 668.27 694.43 664.69 694.43 C 632.40 694.43 606.22 668.25 606.22 635.95 C 606.22 603.65 632.40 577.47 664.69 577.47 C 696.26 577.47 721.98 602.49 723.12 633.78 C 735.35 616.93 755.20 605.96 777.62 605.96 C 807.00 605.96 831.97 624.78 841.15 651.02 C 863.47 653.89 880.72 672.94 880.72 696.03 C 880.72 696.23 880.71 696.42 880.70 696.61 C 886.42 694.51 892.61 693.36 899.06 693.36 C 928.45 693.36 952.28 717.19 952.28 746.58 C 952.28 775.98 928.45 799.81 899.06 799.81 Z" fill="url(#SVGID_1_)" fill-rule="nonzero" group-id="3" node-id="269" stroke="none" target-height="222.33398" target-width="346.06403" target-x="606.216" target-y="577.473"></path></g></g><g node-id="480"><g clip-path="url(#XMLID_3_)" group-id="4" node-id="272"><path d="M 295.79 704.12 C 291.79 704.12 287.87 703.75 284.06 703.05 C 276.04 738.54 245.91 764.93 209.96 764.93 C 167.87 764.93 133.76 728.78 133.76 684.19 C 133.76 639.60 167.87 603.45 209.96 603.45 C 217.66 603.45 225.09 604.66 232.10 606.92 C 241.74 579.57 266.62 560.09 295.79 560.09 C 333.33 560.09 363.76 592.33 363.76 632.11 C 363.76 671.88 333.33 704.12 295.79 704.12 Z" fill="url(#SVGID_2_)" fill-rule="nonzero" group-id="4" node-id="274" stroke="none" target-height="204.83704" target-width="229.997" target-x="133.76" target-y="560.089"></path></g></g><g node-id="481"><g clip-path="url(#XMLID_3_)" group-id="5" node-id="277"><path d="M 899.06 328.84 C 869.66 328.84 845.84 352.67 845.84 382.06 C 845.84 384.26 845.99 386.42 846.24 388.55 C 842.74 387.69 839.09 387.22 835.32 387.22 C 825.44 387.22 816.31 390.39 808.85 395.75 C 799.52 390.85 788.90 388.06 777.62 388.06 C 752.78 388.06 731.10 401.53 719.43 421.55 C 714.65 418.02 708.74 415.94 702.35 415.94 C 689.79 415.94 679.11 423.97 675.15 435.17 C 671.76 434.55 668.27 434.22 664.69 434.22 C 632.40 434.22 606.22 460.40 606.22 492.69 C 606.22 524.99 632.40 551.17 664.69 551.17 C 696.26 551.17 721.98 526.15 723.12 494.86 C 735.35 511.72 755.20 522.69 777.62 522.69 C 807.00 522.69 831.97 503.87 841.15 477.62 C 863.47 474.76 880.72 455.71 880.72 432.61 C 880.72 432.42 880.71 432.23 880.70 432.03 C 886.42 434.14 892.61 435.29 899.06 435.29 C 928.45 435.29 952.28 411.46 952.28 382.06 C 952.28 352.67 928.45 328.84 899.06 328.84 Z" fill="url(#SVGID_3_)" fill-rule="nonzero" group-id="5" node-id="279" stroke="none" target-height="222.33502" target-width="346.06403" target-x="606.216" target-y="328.839"></path></g></g><g node-id="482"><g clip-path="url(#XMLID_3_)" group-id="6" node-id="282"><path d="M 434.00 408.35 C 424.13 403.67 413.21 403.86 403.95 407.95 C 400.66 392.82 390.66 379.31 375.58 372.15 C 367.24 368.19 358.37 366.67 349.77 367.27 C 346.91 355.98 339.23 346.00 327.89 340.62 C 324.48 339.00 320.95 337.91 317.40 337.29 C 314.70 319.96 303.76 304.22 286.72 296.12 C 259.34 283.12 226.60 294.77 213.59 322.15 C 200.59 349.53 212.24 382.26 239.62 395.27 C 251.55 400.94 264.49 401.92 276.38 398.96 C 280.33 405.17 286.01 410.38 293.14 413.77 C 295.92 415.09 298.78 416.05 301.66 416.70 C 300.81 436.82 311.83 456.46 331.17 465.64 C 350.17 474.67 371.89 471.09 386.94 458.29 C 390.46 464.71 395.94 470.11 403.06 473.49 C 421.05 482.04 442.55 474.38 451.10 456.39 C 459.64 438.41 451.99 416.90 434.00 408.35 Z" fill="url(#SVGID_4_)" fill-rule="nonzero" group-id="6" node-id="284" stroke="none" target-height="198.92099" target-width="259.05396" target-x="200.588" target-y="283.116"></path></g></g><g node-id="483"><g clip-path="url(#XMLID_3_)" group-id="7" node-id="287"><path d="M 864.00 267.52 C 829.60 267.52 800.24 289.10 788.69 319.45 C 781.39 315.39 772.98 313.07 764.02 313.07 C 749.47 313.07 736.35 319.19 727.08 328.99 C 715.38 321.53 701.50 317.20 686.59 317.20 C 665.41 317.20 646.27 325.94 632.56 340.00 C 615.81 327.00 594.79 319.27 571.95 319.27 C 517.29 319.27 472.97 363.58 472.97 418.24 C 472.97 472.91 517.29 517.22 571.95 517.22 C 610.37 517.22 643.67 495.33 660.08 463.35 C 668.33 466.45 677.26 468.15 686.59 468.15 C 720.66 468.15 749.45 445.58 758.84 414.57 C 760.54 414.74 762.27 414.83 764.03 414.83 C 778.73 414.83 791.97 408.59 801.26 398.61 C 816.03 416.93 838.64 428.66 864.00 428.66 C 908.50 428.66 944.57 392.59 944.57 348.09 C 944.57 303.59 908.50 267.52 864.00 267.52 Z" fill="url(#SVGID_5_)" fill-rule="nonzero" group-id="7" node-id="289" stroke="none" target-height="249.69797" target-width="471.59705" target-x="472.974" target-y="267.522"></path></g></g><g node-id="484"><g clip-path="url(#XMLID_3_)" group-id="8" node-id="292"><path d="M 295.79 424.52 C 291.79 424.52 287.87 424.89 284.06 425.60 C 276.04 390.11 245.91 363.72 209.96 363.72 C 167.87 363.72 133.76 399.87 133.76 444.46 C 133.76 489.05 167.87 525.20 209.96 525.20 C 217.66 525.20 225.09 523.98 232.10 521.73 C 241.74 549.08 266.62 568.56 295.79 568.56 C 333.33 568.56 363.76 536.31 363.76 496.54 C 363.76 456.77 333.33 424.52 295.79 424.52 Z" fill="url(#SVGID_6_)" fill-rule="nonzero" group-id="8" node-id="294" stroke="none" target-height="204.837" target-width="229.997" target-x="133.76" target-y="363.72"></path></g></g><g node-id="485"><g clip-path="url(#XMLID_3_)" group-id="9" node-id="297"><path d="M 686.32 477.47 C 686.32 581.00 602.40 664.92 498.87 664.92 C 395.34 664.92 311.42 581.00 311.42 477.47 C 311.42 373.95 395.34 290.02 498.87 290.02 C 602.40 290.02 686.32 373.95 686.32 477.47 Z" fill="url(#SVGID_7_)" fill-rule="nonzero" group-id="9" node-id="299" stroke="none" target-height="374.90204" target-width="374.90204" target-x="311.41998" target-y="290.02197"></path></g></g><g node-id="486"><g clip-path="url(#XMLID_3_)" group-id="10" node-id="302"><path d="M 654.17 551.08 C 664.97 528.67 671.01 503.54 671.01 477.01 C 671.01 382.62 594.50 306.11 500.12 306.11 C 405.74 306.11 329.22 382.62 329.22 477.01 C 329.22 503.54 335.27 528.67 346.06 551.08 L 654.17 551.08 Z" fill="#fff5f5" fill-rule="nonzero" group-id="10" node-id="304" stroke="none" target-height="244.96399" target-width="341.792" target-x="329.222" target-y="306.112"></path></g></g><g node-id="487"><g clip-path="url(#XMLID_3_)" group-id="11" node-id="307"><path d="M 173.35 527.11 C 173.35 527.11 244.61 520.63 280.24 523.87 C 280.24 523.87 285.42 524.73 304.85 518.90 C 324.28 513.07 324.93 521.06 335.51 523.01 C 346.09 524.95 392.95 518.90 405.69 518.04 C 418.43 517.18 441.75 528.84 454.49 530.78 C 467.23 532.72 545.82 542.01 565.25 535.10 C 584.69 528.19 592.89 532.94 599.80 532.51 C 606.71 532.08 614.49 521.28 632.19 522.14 C 649.90 523.01 662.42 532.51 683.15 532.51 L 689.20 556.77 L 159.75 549.62 L 173.35 527.11 Z" fill="#e29b71" fill-rule="nonzero" group-id="11" node-id="309" stroke="none" target-height="43.700012" target-width="529.447" target-x="159.749" target-y="513.074"></path></g></g><g node-id="488"><g clip-path="url(#XMLID_3_)" group-id="12" node-id="312"><path d="M 179.83 532.29 C 179.83 532.29 233.81 535.75 254.54 535.53 C 254.54 535.53 292.11 535.97 302.48 533.91 C 312.84 531.86 324.07 531.94 347.82 535.57 C 371.57 539.20 427.93 534.88 430.52 532.29 C 433.11 529.70 454.70 521.63 494.00 534.63 C 533.30 547.62 616.21 540.84 622.69 537.32 C 629.17 533.80 660.26 530.35 678.83 529.91 C 678.83 529.91 683.15 519.44 716.84 520.36 C 750.52 521.28 760.02 521.71 769.95 516.10 C 779.88 510.48 795.86 514.80 819.18 524.52 C 842.50 534.23 844.45 523.87 844.45 523.87 L 852.87 561.90 L 159.75 556.77 L 179.83 532.29 Z" fill="#f5b460" fill-rule="nonzero" group-id="12" node-id="314" stroke="none" target-height="51.423004" target-width="693.117" target-x="159.75" target-y="510.481"></path></g></g><g node-id="489"><g clip-path="url(#XMLID_3_)" group-id="13" node-id="317"><path d="M 181.77 537.47 C 181.77 537.47 458.37 536.94 707.12 544.33 C 707.12 544.33 711.65 536.16 738.21 537.46 L 844.45 537.32 L 842.07 561.91 L 164.93 559.50 L 181.77 537.47 Z" fill="#ad446c" fill-rule="nonzero" group-id="13" node-id="319" stroke="none" target-height="25.746033" target-width="679.51404" target-x="164.932" target-y="536.16"></path></g></g><g node-id="490"><g clip-path="url(#XMLID_3_)" group-id="14" node-id="322"><path d="M 170.11 548.55 C 170.11 548.55 255.62 544.73 407.20 548.55 C 407.20 548.55 433.11 549.76 446.71 546.86 C 460.32 543.95 486.88 543.94 509.55 548.80 C 532.22 553.67 588.58 547.17 597.64 548.80 C 606.71 550.43 689.63 550.21 716.19 550.65 C 742.75 551.08 733.68 538.55 799.75 550.65 C 799.75 550.65 841.21 538.62 849.63 547.76 L 849.63 569.21 L 164.93 569.21 L 170.11 548.55 Z" fill="#502038" fill-rule="nonzero" group-id="14" node-id="324" stroke="none" target-height="30.658997" target-width="684.6959" target-x="164.932" target-y="538.555"></path></g></g><g node-id="491"><g clip-path="url(#XMLID_3_)" group-id="15" node-id="327"><path d="M 176.16 551.08 C 176.16 551.08 208.98 542.44 224.53 557.12 C 240.07 571.80 239.21 563.17 242.67 557.12 C 242.67 557.12 393.81 544.55 436.13 556.88 C 478.45 569.21 595.05 560.96 613.19 556.88 C 631.33 552.80 688.33 559.23 719.43 556.88 C 750.52 554.53 779.88 544.55 800.61 556.88 C 800.61 556.88 827.39 548.00 842.07 556.88 L 842.07 575.26 L 170.11 575.26 L 176.16 551.08 Z" fill="#050000" fill-rule="nonzero" group-id="15" node-id="329" stroke="none" target-height="32.819946" target-width="671.957" target-x="170.114" target-y="542.439"></path></g></g><g node-id="492"><g clip-path="url(#XMLID_3_)" group-id="16" node-id="332"><path d="M 708.30 378.21 L 708.30 378.21 C 707.39 377.06 707.58 375.37 708.73 374.46 L 832.98 278.44 C 834.13 277.52 835.23 278.92 834.08 279.83 L 712.06 378.64 C 710.90 379.55 709.22 379.36 708.30 378.21 Z" fill="url(#SVGID_8_)" fill-rule="nonzero" group-id="16" node-id="334" stroke="none" target-height="102.031006" target-width="127.843994" target-x="707.389" target-y="277.522"></path></g></g><g node-id="493"><g clip-path="url(#XMLID_3_)" group-id="17" node-id="337"><path d="M 279.06 388.44 L 279.06 388.44 C 278.43 387.66 278.56 386.51 279.35 385.89 L 364.03 320.44 C 364.81 319.82 365.57 320.77 364.78 321.39 L 281.61 388.74 C 280.83 389.36 279.68 389.23 279.06 388.44 Z" fill="url(#SVGID_9_)" fill-rule="nonzero" group-id="17" node-id="339" stroke="none" target-height="69.540985" target-width="87.13397" target-x="278.432" target-y="319.819"></path></g></g><g node-id="494"><g clip-path="url(#XMLID_3_)" group-id="18" node-id="342"><path d="M 499.53 196.73 L 499.53 196.73 C 498.90 195.95 499.04 194.80 499.82 194.18 L 584.50 128.73 C 585.28 128.11 586.04 129.06 585.25 129.68 L 502.08 197.03 C 501.30 197.65 500.15 197.52 499.53 196.73 Z" fill="url(#SVGID_10_)" fill-rule="nonzero" group-id="18" node-id="344" stroke="none" target-height="69.54001" target-width="87.13403" target-x="498.904" target-y="128.109"></path></g></g><g node-id="495"><g clip-path="url(#XMLID_3_)" group-id="19" id="sillyvg_g_1" node-id="347"><path d="M 263.14 500.00 C 263.14 500.41 262.97 500.81 262.68 501.10 C 262.39 501.40 261.99 501.56 261.58 501.56 C 261.16 501.56 260.76 501.40 260.47 501.10 C 260.18 500.81 260.01 500.41 260.01 500.00 C 260.01 499.59 260.18 499.19 260.47 498.90 C 260.76 498.60 261.16 498.44 261.58 498.44 C 261.99 498.44 262.39 498.60 262.68 498.90 C 262.97 499.19 263.14 499.59 263.14 500.00 Z" fill="#ffffff" fill-rule="nonzero" group-id="19" node-id="349" stroke="none" target-height="3.1220093" target-width="3.1220093" target-x="260.01498" target-y="498.439"></path><path d="M 766.07 385.08 C 766.07 385.56 765.89 386.01 765.55 386.34 C 765.22 386.68 764.77 386.86 764.29 386.86 C 763.82 386.86 763.37 386.68 763.04 386.34 C 762.70 386.01 762.51 385.56 762.51 385.08 C 762.51 384.61 762.70 384.16 763.04 383.82 C 763.37 383.49 763.82 383.30 764.29 383.30 C 764.77 383.30 765.22 383.49 765.55 383.82 C 765.89 384.16 766.07 384.61 766.07 385.08 Z" fill="#ffffff" fill-rule="nonzero" group-id="19" node-id="351" stroke="none" target-height="3.5599976" target-width="3.5600586" target-x="762.514" target-y="383.30304"></path><path d="M 836.33 397.19 C 836.33 397.36 836.26 397.53 836.14 397.66 C 836.01 397.78 835.84 397.85 835.67 397.85 C 835.49 397.85 835.32 397.78 835.20 397.66 C 835.08 397.53 835.01 397.36 835.01 397.19 C 835.01 397.01 835.08 396.84 835.20 396.72 C 835.32 396.59 835.49 396.52 835.67 396.52 C 835.84 396.52 836.01 396.59 836.14 396.72 C 836.26 396.84 836.33 397.01 836.33 397.19 Z" fill="#ffffff" fill-rule="nonzero" group-id="19" node-id="353" stroke="none" target-height="1.3259888" target-width="1.3260498" target-x="835.006" target-y="396.525"></path><path d="M 842.38 497.11 C 842.38 497.70 842.15 498.26 841.74 498.67 C 841.32 499.09 840.76 499.32 840.18 499.32 C 839.59 499.32 839.03 499.09 838.62 498.67 C 838.21 498.26 837.97 497.70 837.97 497.11 C 837.97 496.53 838.21 495.97 838.62 495.55 C 839.03 495.14 839.59 494.91 840.18 494.91 C 840.76 494.91 841.32 495.14 841.74 495.55 C 842.15 495.97 842.38 496.53 842.38 497.11 Z" fill="#ffffff" fill-rule="nonzero" group-id="19" node-id="355" stroke="none" target-height="4.409973" target-width="4.410034" target-x="837.974" target-y="494.90903"></path><path d="M 827.01 338.09 C 827.01 339.43 825.93 340.52 824.58 340.52 C 823.24 340.52 822.15 339.43 822.15 338.09 C 822.15 336.74 823.24 335.65 824.58 335.65 C 825.93 335.65 827.01 336.74 827.01 338.09 Z" fill="#ffffff" fill-opacity="0.58" fill-rule="nonzero" group-id="19,24" node-id="359" stroke="none" target-height="4.866028" target-width="4.865967" target-x="822.1489" target-y="335.65298"></path><path d="M 723.41 481.21 C 723.41 481.76 723.19 482.29 722.80 482.68 C 722.41 483.07 721.88 483.29 721.33 483.29 C 720.78 483.29 720.25 483.07 719.86 482.68 C 719.47 482.29 719.26 481.76 719.26 481.21 C 719.26 480.66 719.47 480.13 719.86 479.74 C 720.25 479.35 720.78 479.13 721.33 479.13 C 721.88 479.13 722.41 479.35 722.80 479.74 C 723.19 480.13 723.41 480.66 723.41 481.21 Z" fill="#ffffff" fill-opacity="0.52" fill-rule="nonzero" group-id="19,25" node-id="364" stroke="none" target-height="4.1539917" target-width="4.1540527" target-x="719.256" target-y="479.135"></path><path d="M 787.09 450.59 C 787.09 450.86 786.87 451.07 786.61 451.07 C 786.34 451.07 786.12 450.86 786.12 450.59 C 786.12 450.33 786.34 450.11 786.61 450.11 C 786.87 450.11 787.09 450.33 787.09 450.59 Z" fill="#ffffff" fill-rule="nonzero" group-id="19" node-id="367" stroke="none" target-height="0.96398926" target-width="0.96398926" target-x="786.123" target-y="450.111"></path><path d="M 670.54 376.54 C 670.54 377.59 669.69 378.44 668.64 378.44 C 667.59 378.44 666.74 377.59 666.74 376.54 C 666.74 375.49 667.59 374.64 668.64 374.64 C 669.69 374.64 670.54 375.49 670.54 376.54 Z" fill="#ffffff" fill-rule="nonzero" group-id="19" node-id="369" stroke="none" target-height="3.7979736" target-width="3.7979736" target-x="666.741" target-y="374.639"></path><path d="M 711.60 333.10 C 711.60 334.28 710.64 335.24 709.47 335.24 C 708.29 335.24 707.33 334.28 707.33 333.10 C 707.33 331.92 708.29 330.97 709.47 330.97 C 710.64 330.97 711.60 331.92 711.60 333.10 Z" fill="#ffffff" fill-rule="nonzero" group-id="19" node-id="371" stroke="none" target-height="4.2719727" target-width="4.2719727" target-x="707.32904" target-y="330.966"></path><path d="M 554.00 256.91 C 554.00 257.17 553.79 257.39 553.52 257.39 C 553.26 257.39 553.05 257.17 553.05 256.91 C 553.05 256.65 553.26 256.44 553.52 256.44 C 553.79 256.44 554.00 256.65 554.00 256.91 Z" fill="#ffffff" fill-rule="nonzero" group-id="19" node-id="373" stroke="none" target-height="0.9500122" target-width="0.9499512" target-x="553.04803" target-y="256.436"></path><path d="M 623.19 301.06 C 623.19 301.47 623.02 301.86 622.74 302.15 C 622.45 302.44 622.05 302.60 621.64 302.60 C 621.23 302.60 620.84 302.44 620.55 302.15 C 620.26 301.86 620.10 301.47 620.10 301.06 C 620.10 300.65 620.26 300.26 620.55 299.97 C 620.84 299.68 621.23 299.52 621.64 299.52 C 622.05 299.52 622.45 299.68 622.74 299.97 C 623.02 300.26 623.19 300.65 623.19 301.06 Z" fill="#ffffff" fill-rule="nonzero" group-id="19" node-id="375" stroke="none" target-height="3.0859985" target-width="3.0860596" target-x="620.10095" target-y="299.516"></path><path d="M 577.26 222.73 C 577.26 223.26 576.83 223.68 576.31 223.68 C 575.78 223.68 575.36 223.26 575.36 222.73 C 575.36 222.21 575.78 221.78 576.31 221.78 C 576.83 221.78 577.26 222.21 577.26 222.73 Z" fill="#ffffff" fill-rule="nonzero" group-id="19" node-id="377" stroke="none" target-height="1.897995" target-width="1.8979492" target-x="575.36005" target-y="221.783"></path><path d="M 523.14 280.17 C 523.14 280.61 522.97 281.04 522.65 281.35 C 522.34 281.66 521.92 281.83 521.48 281.83 C 521.04 281.83 520.62 281.66 520.31 281.35 C 519.99 281.04 519.82 280.61 519.82 280.17 C 519.82 279.73 519.99 279.31 520.31 279.00 C 520.62 278.69 521.04 278.51 521.48 278.51 C 521.92 278.51 522.34 278.69 522.65 279.00 C 522.97 279.31 523.14 279.73 523.14 280.17 Z" fill="#ffffff" fill-rule="nonzero" group-id="19" node-id="379" stroke="none" target-height="3.3220215" target-width="3.3220215" target-x="519.819" target-y="278.511"></path><path d="M 243.42 457.48 C 243.42 458.46 242.62 459.26 241.64 459.26 C 240.65 459.26 239.86 458.46 239.86 457.48 C 239.86 456.49 240.65 455.70 241.64 455.70 C 242.62 455.70 243.42 456.49 243.42 457.48 Z" fill="#ffffff" fill-rule="nonzero" group-id="19" node-id="381" stroke="none" target-height="3.5599976" target-width="3.5599976" target-x="239.85799" target-y="455.696"></path><path d="M 289.82 443.71 C 289.82 444.76 288.97 445.61 287.92 445.61 C 286.87 445.61 286.02 444.76 286.02 443.71 C 286.02 442.66 286.87 441.81 287.92 441.81 C 288.97 441.81 289.82 442.66 289.82 443.71 Z" fill="#ffffff" fill-opacity="0.63" fill-rule="nonzero" group-id="19,26" node-id="385" stroke="none" target-height="3.7980042" target-width="3.7979736" target-x="286.023" target-y="441.81003"></path><path d="M 327.15 361.58 C 327.15 362.04 326.96 362.48 326.64 362.80 C 326.32 363.12 325.88 363.31 325.42 363.31 C 324.97 363.31 324.53 363.12 324.21 362.80 C 323.88 362.48 323.70 362.04 323.70 361.58 C 323.70 361.13 323.88 360.69 324.21 360.37 C 324.53 360.04 324.97 359.86 325.42 359.86 C 325.88 359.86 326.32 360.04 326.64 360.37 C 326.96 360.69 327.15 361.13 327.15 361.58 Z" fill="#ffffff" fill-rule="nonzero" group-id="19" node-id="388" stroke="none" target-height="3.442047" target-width="3.4420166" target-x="323.703" target-y="359.863"></path><path d="M 428.53 226.05 C 428.53 226.71 428.27 227.33 427.80 227.80 C 427.34 228.26 426.72 228.52 426.06 228.52 C 425.41 228.52 424.78 228.26 424.32 227.80 C 423.86 227.33 423.60 226.71 423.60 226.05 C 423.60 225.40 423.86 224.78 424.32 224.31 C 424.78 223.85 425.41 223.59 426.06 223.59 C 426.72 223.59 427.34 223.85 427.80 224.31 C 428.27 224.78 428.53 225.40 428.53 226.05 Z" fill="#ffffff" fill-opacity="0.21" fill-rule="nonzero" group-id="19,27" node-id="392" stroke="none" target-height="4.925995" target-width="4.926056" target-x="423.59998" target-y="223.592"></path><path d="M 370.76 243.14 C 370.76 243.58 370.58 244.01 370.27 244.32 C 369.96 244.63 369.54 244.81 369.10 244.81 C 368.66 244.81 368.23 244.63 367.92 244.32 C 367.61 244.01 367.44 243.58 367.44 243.14 C 367.44 242.70 367.61 242.28 367.92 241.97 C 368.23 241.66 368.66 241.48 369.10 241.48 C 369.54 241.48 369.96 241.66 370.27 241.97 C 370.58 242.28 370.76 242.70 370.76 243.14 Z" fill="#ffffff" fill-rule="nonzero" group-id="19" node-id="395" stroke="none" target-height="3.321991" target-width="3.3220215" target-x="367.43597" target-y="241.483"></path><path d="M 641.46 251.93 C 641.46 252.40 641.28 252.85 640.94 253.18 C 640.61 253.52 640.16 253.71 639.68 253.71 C 639.21 253.71 638.76 253.52 638.42 253.18 C 638.09 252.85 637.90 252.40 637.90 251.93 C 637.90 251.45 638.09 251.00 638.42 250.67 C 638.76 250.33 639.21 250.15 639.68 250.15 C 640.16 250.15 640.61 250.33 640.94 250.67 C 641.28 251.00 641.46 251.45 641.46 251.93 Z" fill="#ffffff" fill-rule="nonzero" group-id="19" node-id="397" stroke="none" target-height="3.560028" target-width="3.5600586" target-x="637.90295" target-y="250.14598"></path><path d="M 446.71 274.00 C 446.71 274.19 446.64 274.37 446.50 274.50 C 446.37 274.64 446.19 274.71 446.00 274.71 C 445.81 274.71 445.63 274.64 445.50 274.50 C 445.36 274.37 445.29 274.19 445.29 274.00 C 445.29 273.81 445.36 273.63 445.50 273.50 C 445.63 273.36 445.81 273.29 446.00 273.29 C 446.19 273.29 446.37 273.36 446.50 273.50 C 446.64 273.63 446.71 273.81 446.71 274.00 Z" fill="#ffffff" fill-rule="nonzero" group-id="19" node-id="399" stroke="none" target-height="1.4240112" target-width="1.4239502" target-x="445.28903" target-y="273.288"></path><path d="M 432.95 184.04 C 432.95 184.36 432.82 184.66 432.60 184.88 C 432.38 185.10 432.07 185.23 431.76 185.23 C 431.44 185.23 431.14 185.10 430.92 184.88 C 430.70 184.66 430.57 184.36 430.57 184.04 C 430.57 183.73 430.70 183.43 430.92 183.20 C 431.14 182.98 431.44 182.86 431.76 182.86 C 432.07 182.86 432.38 182.98 432.60 183.20 C 432.82 183.43 432.95 183.73 432.95 184.04 Z" fill="#ffffff" fill-rule="nonzero" group-id="19" node-id="401" stroke="none" target-height="2.3739777" target-width="2.374054" target-x="430.57196" target-y="182.856"></path><path d="M 496.32 245.52 C 496.32 246.70 495.36 247.65 494.18 247.65 C 493.00 247.65 492.05 246.70 492.05 245.52 C 492.05 244.34 493.00 243.38 494.18 243.38 C 495.36 243.38 496.32 244.34 496.32 245.52 Z" fill="#ffffff" fill-opacity="0.62" fill-rule="nonzero" group-id="19,28" node-id="405" stroke="none" target-height="4.272003" target-width="4.2719727" target-x="492.048" target-y="243.382"></path><path d="M 394.26 284.68 C 394.26 285.00 394.13 285.30 393.91 285.52 C 393.69 285.74 393.38 285.87 393.07 285.87 C 392.76 285.87 392.45 285.74 392.23 285.52 C 392.01 285.30 391.88 285.00 391.88 284.68 C 391.88 284.37 392.01 284.06 392.23 283.84 C 392.45 283.62 392.76 283.49 393.07 283.49 C 393.38 283.49 393.69 283.62 393.91 283.84 C 394.13 284.06 394.26 284.37 394.26 284.68 Z" fill="#ffffff" fill-rule="nonzero" group-id="19" node-id="408" stroke="none" target-height="2.3740234" target-width="2.374054" target-x="391.883" target-y="283.494"></path><path d="M 325.54 316.01 C 325.54 316.47 325.17 316.84 324.71 316.84 C 324.25 316.84 323.88 316.47 323.88 316.01 C 323.88 315.55 324.25 315.18 324.71 315.18 C 325.17 315.18 325.54 315.55 325.54 316.01 Z" fill="#ffffff" fill-rule="nonzero" group-id="19" node-id="410" stroke="none" target-height="1.6619873" target-width="1.6619873" target-x="323.881" target-y="315.181"></path></g></g><g node-id="496"><g clip-path="url(#XMLID_3_)" group-id="20" id="sillyvg_g_2" node-id="413"><path d="M 766.07 635.12 C 766.07 635.60 765.89 636.05 765.55 636.38 C 765.22 636.72 764.77 636.90 764.29 636.90 C 763.82 636.90 763.37 636.72 763.04 636.38 C 762.70 636.05 762.51 635.60 762.51 635.12 C 762.51 634.65 762.70 634.20 763.04 633.86 C 763.37 633.53 763.82 633.34 764.29 633.34 C 764.77 633.34 765.22 633.53 765.55 633.86 C 765.89 634.20 766.07 634.65 766.07 635.12 Z" fill="#ffffff" fill-opacity="0.4" fill-rule="nonzero" group-id="20" node-id="415" stroke="none" target-height="3.5600586" target-width="3.5600586" target-x="762.514" target-y="633.34296"></path><path d="M 836.33 623.02 C 836.33 623.19 836.26 623.36 836.14 623.49 C 836.01 623.61 835.84 623.68 835.67 623.68 C 835.49 623.68 835.32 623.61 835.20 623.49 C 835.08 623.36 835.01 623.19 835.01 623.02 C 835.01 622.84 835.08 622.67 835.20 622.55 C 835.32 622.42 835.49 622.36 835.67 622.36 C 835.84 622.36 836.01 622.42 836.14 622.55 C 836.26 622.67 836.33 622.84 836.33 623.02 Z" fill="#ffffff" fill-opacity="0.4" fill-rule="nonzero" group-id="20" node-id="417" stroke="none" target-height="1.3260498" target-width="1.3260498" target-x="835.006" target-y="622.355"></path><path d="M 827.01 682.12 C 827.01 683.46 825.93 684.55 824.58 684.55 C 823.24 684.55 822.15 683.46 822.15 682.12 C 822.15 680.78 823.24 679.69 824.58 679.69 C 825.93 679.69 827.01 680.78 827.01 682.12 Z" fill="#ffffff" fill-opacity="0.232" fill-rule="nonzero" group-id="20,29" node-id="421" stroke="none" target-height="4.865967" target-width="4.865967" target-x="822.1489" target-y="679.687"></path><path d="M 787.09 569.61 C 787.09 569.88 786.87 570.10 786.61 570.10 C 786.34 570.10 786.12 569.88 786.12 569.61 C 786.12 569.35 786.34 569.13 786.61 569.13 C 786.87 569.13 787.09 569.35 787.09 569.61 Z" fill="#ffffff" fill-opacity="0.4" fill-rule="nonzero" group-id="20" node-id="424" stroke="none" target-height="0.96398926" target-width="0.96398926" target-x="786.123" target-y="569.131"></path><path d="M 670.54 643.67 C 670.54 644.72 669.69 645.57 668.64 645.57 C 667.59 645.57 666.74 644.72 666.74 643.67 C 666.74 642.62 667.59 641.77 668.64 641.77 C 669.69 641.77 670.54 642.62 670.54 643.67 Z" fill="#ffffff" fill-opacity="0.4" fill-rule="nonzero" group-id="20" node-id="426" stroke="none" target-height="3.7979736" target-width="3.7979736" target-x="666.741" target-y="641.76904"></path><path d="M 711.60 687.10 C 711.60 688.28 710.64 689.24 709.47 689.24 C 708.29 689.24 707.33 688.28 707.33 687.10 C 707.33 685.92 708.29 684.97 709.47 684.97 C 710.64 684.97 711.60 685.92 711.60 687.10 Z" fill="#ffffff" fill-opacity="0.4" fill-rule="nonzero" group-id="20" node-id="428" stroke="none" target-height="4.2719727" target-width="4.2719727" target-x="707.32904" target-y="684.968"></path><path d="M 554.00 763.29 C 554.00 763.56 553.79 763.77 553.52 763.77 C 553.26 763.77 553.05 763.56 553.05 763.29 C 553.05 763.03 553.26 762.82 553.52 762.82 C 553.79 762.82 554.00 763.03 554.00 763.29 Z" fill="#ffffff" fill-opacity="0.4" fill-rule="nonzero" group-id="20" node-id="430" stroke="none" target-height="0.9499512" target-width="0.9499512" target-x="553.04803" target-y="762.82"></path><path d="M 623.19 719.15 C 623.19 719.56 623.02 719.95 622.74 720.24 C 622.45 720.53 622.05 720.69 621.64 720.69 C 621.23 720.69 620.84 720.53 620.55 720.24 C 620.26 719.95 620.10 719.56 620.10 719.15 C 620.10 718.74 620.26 718.35 620.55 718.06 C 620.84 717.77 621.23 717.60 621.64 717.60 C 622.05 717.60 622.45 717.77 622.74 718.06 C 623.02 718.35 623.19 718.74 623.19 719.15 Z" fill="#ffffff" fill-opacity="0.4" fill-rule="nonzero" group-id="20" node-id="432" stroke="none" target-height="3.0859985" target-width="3.0860596" target-x="620.10095" target-y="717.60394"></path><path d="M 577.26 797.47 C 577.26 798.00 576.83 798.42 576.31 798.42 C 575.78 798.42 575.36 798.00 575.36 797.47 C 575.36 796.95 575.78 796.52 576.31 796.52 C 576.83 796.52 577.26 796.95 577.26 797.47 Z" fill="#ffffff" fill-opacity="0.4" fill-rule="nonzero" group-id="20" node-id="434" stroke="none" target-height="1.8979492" target-width="1.8979492" target-x="575.36005" target-y="796.525"></path><path d="M 523.14 740.03 C 523.14 740.47 522.97 740.90 522.65 741.21 C 522.34 741.52 521.92 741.70 521.48 741.70 C 521.04 741.70 520.62 741.52 520.31 741.21 C 519.99 740.90 519.82 740.47 519.82 740.03 C 519.82 739.59 519.99 739.17 520.31 738.86 C 520.62 738.55 521.04 738.37 521.48 738.37 C 521.92 738.37 522.34 738.55 522.65 738.86 C 522.97 739.17 523.14 739.59 523.14 740.03 Z" fill="#ffffff" fill-opacity="0.4" fill-rule="nonzero" group-id="20" node-id="436" stroke="none" target-height="3.3220215" target-width="3.3220215" target-x="519.819" target-y="738.373"></path><path d="M 327.15 658.62 C 327.15 659.08 326.96 659.52 326.64 659.84 C 326.32 660.16 325.88 660.34 325.42 660.34 C 324.97 660.34 324.53 660.16 324.21 659.84 C 323.88 659.52 323.70 659.08 323.70 658.62 C 323.70 658.16 323.88 657.73 324.21 657.40 C 324.53 657.08 324.97 656.90 325.42 656.90 C 325.88 656.90 326.32 657.08 326.64 657.40 C 326.96 657.73 327.15 658.16 327.15 658.62 Z" fill="#ffffff" fill-opacity="0.4" fill-rule="nonzero" group-id="20" node-id="438" stroke="none" target-height="3.4420166" target-width="3.4420166" target-x="323.703" target-y="656.89996"></path><path d="M 428.53 794.15 C 428.53 794.80 428.27 795.43 427.80 795.89 C 427.34 796.35 426.72 796.61 426.06 796.61 C 425.41 796.61 424.78 796.35 424.32 795.89 C 423.86 795.43 423.60 794.80 423.60 794.15 C 423.60 793.50 423.86 792.87 424.32 792.41 C 424.78 791.95 425.41 791.69 426.06 791.69 C 426.72 791.69 427.34 791.95 427.80 792.41 C 428.27 792.87 428.53 793.50 428.53 794.15 Z" fill="#ffffff" fill-opacity="0.084" fill-rule="nonzero" group-id="20,30" node-id="442" stroke="none" target-height="4.9260254" target-width="4.926056" target-x="423.59998" target-y="791.688"></path><path d="M 370.76 777.06 C 370.76 777.50 370.58 777.92 370.27 778.24 C 369.96 778.55 369.54 778.72 369.10 778.72 C 368.66 778.72 368.23 778.55 367.92 778.24 C 367.61 777.92 367.44 777.50 367.44 777.06 C 367.44 776.62 367.61 776.20 367.92 775.89 C 368.23 775.58 368.66 775.40 369.10 775.40 C 369.54 775.40 369.96 775.58 370.27 775.89 C 370.58 776.20 370.76 776.62 370.76 777.06 Z" fill="#ffffff" fill-opacity="0.4" fill-rule="nonzero" group-id="20" node-id="445" stroke="none" target-height="3.3220215" target-width="3.3220215" target-x="367.43597" target-y="775.401"></path><path d="M 641.46 768.28 C 641.46 768.75 641.28 769.20 640.94 769.54 C 640.61 769.87 640.16 770.06 639.68 770.06 C 639.21 770.06 638.76 769.87 638.42 769.54 C 638.09 769.20 637.90 768.75 637.90 768.28 C 637.90 767.81 638.09 767.36 638.42 767.02 C 638.76 766.69 639.21 766.50 639.68 766.50 C 640.16 766.50 640.61 766.69 640.94 767.02 C 641.28 767.36 641.46 767.81 641.46 768.28 Z" fill="#ffffff" fill-opacity="0.4" fill-rule="nonzero" group-id="20" node-id="447" stroke="none" target-height="3.5601196" target-width="3.5600586" target-x="637.90295" target-y="766.49994"></path><path d="M 446.71 746.21 C 446.71 746.60 446.39 746.92 446.00 746.92 C 445.61 746.92 445.29 746.60 445.29 746.21 C 445.29 745.81 445.61 745.49 446.00 745.49 C 446.39 745.49 446.71 745.81 446.71 746.21 Z" fill="#ffffff" fill-opacity="0.4" fill-rule="nonzero" group-id="20" node-id="449" stroke="none" target-height="1.4239502" target-width="1.4239502" target-x="445.28903" target-y="745.494"></path><path d="M 432.95 836.16 C 432.95 836.48 432.82 836.78 432.60 837.00 C 432.38 837.22 432.07 837.35 431.76 837.35 C 431.44 837.35 431.14 837.22 430.92 837.00 C 430.70 836.78 430.57 836.48 430.57 836.16 C 430.57 835.85 430.70 835.55 430.92 835.32 C 431.14 835.10 431.44 834.98 431.76 834.98 C 432.07 834.98 432.38 835.10 432.60 835.32 C 432.82 835.55 432.95 835.85 432.95 836.16 Z" fill="#ffffff" fill-opacity="0.4" fill-rule="nonzero" group-id="20" node-id="451" stroke="none" target-height="2.3740234" target-width="2.374054" target-x="430.57196" target-y="834.976"></path><path d="M 496.32 774.69 C 496.32 775.87 495.36 776.82 494.18 776.82 C 493.00 776.82 492.05 775.87 492.05 774.69 C 492.05 773.51 493.00 772.55 494.18 772.55 C 495.36 772.55 496.32 773.51 496.32 774.69 Z" fill="#ffffff" fill-opacity="0.24800001" fill-rule="nonzero" group-id="20,31" node-id="455" stroke="none" target-height="4.2720947" target-width="4.2719727" target-x="492.048" target-y="772.55194"></path><path d="M 394.26 735.52 C 394.26 735.84 394.13 736.14 393.91 736.36 C 393.69 736.59 393.38 736.71 393.07 736.71 C 392.76 736.71 392.45 736.59 392.23 736.36 C 392.01 736.14 391.88 735.84 391.88 735.52 C 391.88 735.21 392.01 734.91 392.23 734.69 C 392.45 734.46 392.76 734.34 393.07 734.34 C 393.38 734.34 393.69 734.46 393.91 734.69 C 394.13 734.91 394.26 735.21 394.26 735.52 Z" fill="#ffffff" fill-opacity="0.4" fill-rule="nonzero" group-id="20" node-id="458" stroke="none" target-height="2.3740234" target-width="2.374054" target-x="391.883" target-y="734.338"></path><path d="M 325.54 704.19 C 325.54 704.65 325.17 705.02 324.71 705.02 C 324.25 705.02 323.88 704.65 323.88 704.19 C 323.88 703.74 324.25 703.36 324.71 703.36 C 325.17 703.36 325.54 703.74 325.54 704.19 Z" fill="#ffffff" fill-opacity="0.4" fill-rule="nonzero" group-id="20" node-id="460" stroke="none" target-height="1.6619873" target-width="1.6619873" target-x="323.881" target-y="703.363"></path></g></g><g node-id="497"><g clip-path="url(#XMLID_3_)" group-id="21" node-id="463"><path d="M 419.71 443.74 C 419.71 452.15 416.37 460.22 410.42 466.17 C 404.48 472.11 396.41 475.46 388.00 475.46 C 379.59 475.46 371.52 472.11 365.57 466.17 C 359.62 460.22 356.28 452.15 356.28 443.74 C 356.28 435.33 359.62 427.26 365.57 421.31 C 371.52 415.36 379.59 412.02 388.00 412.02 C 396.41 412.02 404.48 415.36 410.42 421.31 C 416.37 427.26 419.71 435.33 419.71 443.74 Z" fill="#eff0e2" fill-rule="nonzero" group-id="21" node-id="465" stroke="none" target-height="63.43402" target-width="63.43402" target-x="356.28" target-y="412.022"></path></g></g><g node-id="498"><g clip-path="url(#XMLID_3_)" group-id="22" node-id="468"><path d="M 457.39 382.11 C 457.39 391.16 450.06 398.49 441.02 398.49 C 431.97 398.49 424.64 391.16 424.64 382.11 C 424.64 373.07 431.97 365.74 441.02 365.74 C 450.06 365.74 457.39 373.07 457.39 382.11 Z" fill="#eff0e2" fill-rule="nonzero" group-id="22" node-id="470" stroke="none" target-height="32.75598" target-width="32.75598" target-x="424.638" target-y="365.73602"></path></g></g><g clip-path="url(#XMLID_3_)" group-id="23" node-id="473"><path d="M 449.16 502.34 C 449.16 506.11 447.66 509.74 444.99 512.41 C 442.32 515.08 438.70 516.58 434.92 516.58 C 431.15 516.58 427.52 515.08 424.85 512.41 C 422.18 509.74 420.68 506.11 420.68 502.34 C 420.68 494.47 427.06 488.10 434.92 488.10 C 442.79 488.10 449.16 494.47 449.16 502.34 Z" fill="#eff0e2" fill-rule="nonzero" group-id="23" node-id="475" stroke="none" target-height="28.482025" target-width="28.481995" target-x="420.682" target-y="488.09702"></path></g></svg>