<svg xmlns="http://www.w3.org/2000/svg" fill="none" viewBox="0 0 1024 1024" height="1024" width="1024">
<rect fill="#22518C" height="1024" width="1024"></rect>
<path fill="#FFFFFE" d="M126.621 153.649C134.613 147.127 145.4 146.009 155.318 147.251C147.243 160.44 135.192 171.641 119.747 175.161C124.198 169.467 129.374 164.415 133.66 158.618C127.035 161.31 121.589 165.989 116.123 170.482C118.546 164.312 121.01 157.666 126.621 153.649Z"></path>
<path fill="#FFFFFE" d="M869.45 148.514C878.25 147.52 887.774 147.852 895.249 153.214C901.978 157.334 904.876 164.995 907.071 172.18C901.729 167.604 896.346 163.028 890.155 159.695C893.406 166.03 898.623 170.979 903.054 176.507C888.188 172.718 876.511 161.827 869.45 148.514Z"></path>
<path fill="#FFFFFE" d="M767.044 185.203C776.134 181.58 785.658 176.859 795.741 178.971C805.534 180.979 814.127 186.466 823.341 190.131C814.376 205.701 792.511 212.037 776.693 203.444C771.226 200.67 767.562 195.638 763.855 190.98C773.131 194.375 783.09 196.322 792.967 194.438C784.353 191.228 775.119 189.779 767.044 185.203Z"></path>
<path fill="#FFFFFE" d="M330.605 184.147C342.366 182.077 354.375 183.692 365.99 185.99C342.821 196.736 317.396 206.488 291.39 203.382C302.405 193.527 315.781 186.073 330.605 184.147Z"></path>
<path fill="#FFFFFE" d="M657.329 187.191C683.458 181.787 712.134 187.584 732.032 205.95C705.778 209.387 680.104 199.262 657.329 187.191Z"></path>
<path fill="#FFFFFE" d="M377.73 191.456C391.354 186.963 406.986 194.355 412.431 207.565C405.433 202.989 398.435 197.378 389.677 196.984C380.587 195.535 372.098 199.51 364.292 203.589C367.729 198.599 371.394 192.926 377.73 191.456Z"></path>
<path fill="#FFFFFE" d="M911.067 190.317C907.402 219.635 894.751 249.802 870.051 267.402C867.794 269.079 865.578 270.797 863.404 272.516C879.947 272.536 897.112 270.3 912.93 276.636C923.987 280.322 933.822 287.382 940.592 296.927C931.772 299.266 923.179 295.871 916.16 290.695C915.829 295.167 914.98 300.426 909.431 300.819C899.017 303.987 893.116 293.324 888.209 286.264C881.5 275.166 866.841 274.773 855.433 276.139C843.817 279.162 832.533 284.173 820.338 284.276C810.503 284.814 800.834 281.315 793.111 275.352C812.449 280.839 833.755 281.564 852.244 272.661C859.015 269.203 869.243 264.606 866.344 255.144C866.531 246.303 857.027 244.088 850.712 241.086C845.308 239.264 845.722 232.535 843.921 228.145C841.809 219.511 835.37 213.093 829.676 206.654C845.412 204.79 860.899 214.563 867.028 228.932C868.187 232.473 871.562 236.241 869.595 240.071C865.744 238.518 863.818 234.046 860.506 231.603C866.117 240.568 870.734 250.693 867.897 261.542C869.636 260.114 871.438 258.726 873.26 257.381L873.922 260.321C892.66 241.21 906.077 216.695 911.067 190.317ZM875.082 273.572C884.109 277.588 892.412 283.117 901.626 286.699C895 278.893 885.372 273.841 875.082 273.572Z"></path>
<path fill="#FFFFFE" d="M917.796 211.54C932.083 209.718 943.242 220.008 949.495 231.748C940.592 233.404 934.484 225.226 925.912 225.516C918.583 225.909 914.546 218.683 910.301 214.004C915.726 214.377 921.171 215.08 926.637 215.577C923.676 214.19 920.736 212.844 917.796 211.54Z"></path>
<path fill="#FFFFFE" d="M585.276 243.84C594.22 235.868 607.037 236.696 618.217 236.614C601.902 241.541 585.089 248.809 575.834 264.006C576.807 256.532 579.147 248.747 585.276 243.84Z"></path>
<path fill="#FFFFFE" d="M373.961 284.587C381.312 271.771 398.725 276.988 410.63 278.624C397.834 277.009 386.446 284.007 373.961 284.587Z"></path>
<path fill="#FFFFFE" d="M402.969 285.332C424.047 282.081 447.506 289.639 460.446 307.155C446.284 299.039 431.915 288.231 414.585 290.074C400.154 289.763 389.511 300.302 377.047 305.644C384.107 297.237 391.292 287.154 402.969 285.332Z"></path>
<path fill="#FFFFFE" d="M286.007 331.67C286.38 326.535 291.825 324.671 296.111 323.822C304.31 321.938 312.551 324.423 320.46 326.514C308.679 326.411 297.684 333.533 286.007 331.67Z"></path>
<path fill="#FFFFFE" d="M830.732 346.039C836.591 343.886 842.43 347.157 847.109 350.49C854.832 355.936 860.568 363.638 865.019 371.899C859.47 370.636 853.942 369.373 848.455 368.11C850.236 369.58 853.776 372.52 855.557 373.991C848.683 375.543 841.208 378.732 834.293 375.647C828.268 372.562 825.204 366.081 821.539 360.739C825.804 360.615 830.09 360.574 834.396 360.574C832.678 355.956 829.034 351.174 830.732 346.039Z"></path>
<path fill="#FFFFFE" d="M98.5654 434.449C109.518 437.389 120.306 433.807 131.113 432.358C142.17 431.405 149.396 441.261 155.773 448.714C149.313 447.824 142.895 446.768 136.435 446.23C141.632 448.093 146.953 449.439 152.315 450.909C142.75 456.292 131.051 458.57 120.637 454.201C110.719 451.158 103.638 443.124 98.5654 434.449Z"></path>
<path fill="#FFFFFE" d="M835.804 515.012C845.95 510.933 856.675 505.798 867.918 507.806C875.641 509.069 881.127 515.094 886.179 520.561C875.785 527.559 865.185 538.76 851.416 535.696C842.471 533.605 838.827 524.349 835.328 516.937C842.803 519.318 850.463 521.264 858.352 521.741C850.919 519.215 843.279 517.331 835.804 515.012Z"></path>
<path fill="#FFFFFE" d="M756.692 547.353C775.264 535.551 800.379 535.737 818.185 548.968C828.807 556.214 833.548 568.575 840.05 579.135C829.324 580.356 817.957 580.936 808.06 575.863C795.016 570.397 786.962 557.747 774.291 551.701C770.688 549.899 766.941 548.284 763.4 546.483C767.914 546.462 772.759 546.504 776.982 548.533C787.149 553.109 792.138 564.538 802.491 568.824C806.86 570.832 811.746 570.377 816.446 570.397C810.193 567.561 803.05 566.049 798.06 561.039C792.097 555.283 787.273 547.456 778.784 545.199C771.392 542.259 763.98 546.276 756.692 547.353Z"></path>
<path fill="#FFFFFE" d="M221.531 642.616C225.672 638.061 230.186 633.236 236.46 631.828C246.999 629.033 257.165 634.375 266.73 638.102C259.96 643.154 253.769 651.043 244.638 651.167C236.646 649.158 229.689 644.231 221.531 642.616Z"></path>
<path fill="#FFFFFE" d="M758.058 638.599C767.23 634.789 776.838 629.634 787.107 631.415C794.23 632.408 798.93 638.289 803.878 642.927C795.617 644.065 788.805 649.221 780.875 651.291C771.661 651.271 765.243 643.299 758.058 638.599Z"></path>
<path fill="#FFFFFE" d="M470.384 650.525C477.858 646.86 483.656 640.711 490.219 635.742C487.465 645.846 480.633 655.701 470.28 658.973C463.841 661.354 457.36 658.331 451.356 656.219C457.774 654.645 464.421 653.527 470.384 650.525Z"></path>
<path fill="#FFFFFE" d="M513.575 643.982C520.035 664.604 530.615 683.984 545.481 699.782C562.273 719.555 583.64 735.974 608.382 744.339C635.547 754.029 664.658 755.478 692.341 763.098C692.279 762.435 692.113 761.089 692.051 760.427C694.059 760.51 698.097 760.675 700.105 760.758C697.496 761.731 694.929 762.787 692.444 764.029C718.864 770.282 746.443 781.691 763.11 804.155C750.729 791.733 736.649 780.862 720.106 774.61C723.688 780.676 728.119 786.515 729.817 793.492C732.094 801.816 730.624 810.512 729.63 818.918C726.048 811.899 723.647 804.114 718.346 798.151C711.617 790.428 702.59 785.293 693.479 780.925C695.881 784.589 698.387 788.171 700.871 791.836C665.114 772.311 626.126 759.764 589.21 742.807C570.513 733.821 555.274 719.514 541.485 704.275C547.075 728.106 557.759 750.55 571.797 770.531C590.949 797.861 621.923 815.481 654.741 820.305C661.635 821.692 668.861 822.314 675.156 825.751C676.895 825.668 680.353 825.544 682.092 825.481L680.332 826.103C678.924 826.641 677.578 827.241 676.294 827.966C684.431 836.641 686.854 849.106 682.257 860.162C674.058 851.901 670.994 839.333 676.025 828.546C674.7 827.076 673.313 825.689 671.967 824.322C648.281 821.009 623.766 817.344 603.123 804.404C608.445 813.68 611.053 824.301 609.604 834.985C607.326 826.91 605.732 818.504 601.343 811.237C593.268 797.074 578.878 788.213 569.436 775.106C554.84 755.147 543.162 732.599 537.675 708.375C536.164 702.598 536.391 696.262 533.286 691.024C524.548 676.551 514.01 661.457 513.575 643.982Z"></path>
<path fill="#FFFFFE" d="M611.26 733.345C628.3 732.724 641.986 722.04 657.515 716.657C647.825 731.274 628.031 738.521 611.26 733.345Z"></path>
<path fill="#FFFFFE" d="M530.366 718.251C542.085 735.684 546.475 759.35 537.551 778.916C528.668 759.93 529.745 738.624 530.366 718.251Z"></path>
<path fill="#FFFFFE" d="M632.193 738.686C648.384 736.989 662.733 727.589 679.152 727.278C664.72 738.852 645.403 741.171 627.576 742.765C616.168 743.925 604.801 739.639 596.746 731.605C606.871 739.204 619.853 741.73 632.193 738.686Z"></path>
<path fill="#FFFFFE" d="M519.91 856.187C530.822 857.284 542.023 855.255 552.728 858.133C559.105 859.789 564.302 865.628 564.467 872.357C563.473 875.794 559.084 876.27 556.496 878.237C556.185 882.627 558.504 889.066 552.997 891.095C546.226 893.021 538.835 890.019 534.176 885.049C528.089 878.693 524.279 870.639 520.49 862.854C528.565 866.767 536.35 871.446 545.005 874.014C537.882 866.518 529.145 860.742 519.91 856.187Z"></path>
<path fill="#FFFFFE" d="M177.865 869.417C193.642 862.315 212.194 865.753 227.018 873.662C215.693 872.337 203.456 870.411 192.835 875.815C187.099 877.968 181.509 883 175.049 881.261C170.287 878.093 173.206 870.97 177.865 869.417Z"></path>
<path fill="#FEFEFD" d="M389.428 710.528C388.641 705.29 393.072 701.729 396.053 698.167C395.577 703.344 393.486 709.162 396.488 714.027C400.111 720.177 407.482 723.262 414.46 723.303C429.139 723.924 442.908 718.044 456.242 712.702C443.405 723.075 426.862 729.577 410.194 728.335C400.505 727.775 390.546 720.591 389.428 710.528Z"></path>
<path fill="#FFFEFE" d="M709.276 843.453C712.071 843.329 714.887 843.287 717.724 843.35C728.987 846.766 735.323 857.491 739.65 867.657C727.931 861.818 716.254 854.965 709.276 843.453Z"></path>
</svg>
