<svg xmlns="http://www.w3.org/2000/svg" fill="none" viewBox="0 0 1024 1024" height="1024" width="1024">
<rect fill="#22518C" height="1024" width="1024"></rect>
<path fill="#FFFFFE" d="M229.194 93.8028C230.235 91.6148 229.475 87.1392 232.696 87C237.519 94.8172 242.501 102.654 246.183 111.088C249.524 118.806 248.304 127.638 244.342 134.898C228.654 127.996 225.212 108.841 229.194 93.8028Z"></path>
<path fill="#FFFFFE" d="M739.689 87.5841C740.137 87.6039 741.014 87.6634 741.443 87.703C745.107 99.4374 746.667 113.253 740.215 124.313C737.701 129.17 732.964 132.064 728.559 134.898C724.544 127.742 723.375 118.902 726.708 111.251C730.314 102.985 734.914 95.1757 739.689 87.5841Z"></path>
<path fill="#FFFFFE" d="M525.736 131.817C525.061 119.677 535.25 111.477 545.181 106.86C542.579 111.179 539.044 115.259 538.329 120.413C537.018 129.847 542.182 138.942 540.513 148.375C538.448 159.52 531.695 168.894 526.074 178.467C532.469 172.715 538.11 165.948 541.427 157.928C544.923 150.485 546.73 141.509 553.682 136.355C559.7 132.394 567.247 132.454 574.06 130.762C561.487 140.574 559.6 157.888 548.379 168.794C534.932 182.407 517.831 192.239 499.876 198.567C510.105 191.403 519.539 181.293 521.247 168.416C522.201 159.799 515.329 153.769 511.873 146.703C513.918 137.967 521.009 130.085 517.652 120.592C521.108 123.717 523.949 127.478 525.736 131.817Z"></path>
<path fill="#FFFFFE" d="M674.751 271.122C683.514 269.053 693.748 267.44 701.398 273.411C694.324 282.169 683.991 287.165 673.638 290.986C643.612 302.172 613.745 314.85 587.495 333.5C600.57 318.692 615.99 306.172 631.808 294.429C645.043 284.935 658.913 275.581 674.751 271.122Z"></path>
<path fill="#FFFFFE" d="M650.164 310.703C661.091 307.542 673.069 305.534 684.134 309.132C688.18 310.424 692.582 314.5 690.222 319.113C686.851 326.171 679.295 329.869 672.454 332.811C655.856 339.114 638.543 343.289 622.123 350.089C595.57 360.368 572.467 377.784 551.863 397.169C562.572 380.428 576.453 366.074 590.315 351.997C607.647 335.018 626.466 317.88 650.164 310.703Z"></path>
<path fill="#FFFFFE" d="M319.382 491.112C329.221 486.351 338.662 480.839 348.162 475.441C352.575 478.352 356.987 481.282 361.439 484.212C356.013 486.679 350.826 489.667 345.181 491.575C336.754 494.273 327.849 492.442 319.382 491.112Z"></path>
<path fill="#FFFFFE" d="M597.718 695.656C596.149 701.398 593.864 706.982 589.971 711.552C607.69 706.505 625.648 712.943 641.818 719.938C636.474 720.931 630.952 721.388 625.966 723.673C618.457 727.031 612.08 732.476 604.512 735.755C598.473 738.417 591.838 739.053 585.362 739.649C597.043 739.113 606.578 747.498 610.134 758.149C604.711 754.493 598.652 750.519 591.759 751.592C582.561 753.281 573.821 757.493 564.246 756.917C569.451 760.573 571.755 766.534 573.761 772.317C561.822 765.58 547.639 768.243 535.065 763.713C527.476 760.712 519.928 765.898 515.299 771.581C505.744 783.603 499.268 798.645 499.507 814.184C502.387 841.487 518.319 868.332 543.765 880.075C557.333 886.494 575.589 886.096 586.356 874.611C589.673 871.968 588.58 867.557 588.938 863.901C590.587 868.749 594.659 874.233 591.242 879.221C586.693 886.315 577.675 888.481 569.788 888.977C548.851 889.574 528.708 878.287 516.352 861.675C502.129 843.811 496.726 820.722 495.295 798.347C494.6 779.629 497.759 760.215 507.552 743.981C513.571 734.244 518.06 723.196 526.98 715.626C536.257 706.922 549.308 704.995 560.472 699.749C558.545 704.279 556.419 708.75 554.194 713.142C558.744 709.227 563.253 704.637 569.411 703.485C578.966 701.378 589.077 700.802 597.718 695.656ZM565.537 720.434C545.216 722.839 526.344 734.145 513.69 750.101C502.884 763.574 497.898 781.119 498.295 798.268C505.506 776.648 514.902 754.493 533.257 739.927C549.169 725.899 570.921 721.169 591.64 721.785C583.038 720.414 574.238 719.461 565.537 720.434Z"></path>
<path fill="#FEFEFD" d="M375.279 94.0095C379.662 99.9144 384.974 105.383 391.944 108.177C402.588 112.775 414.751 116.738 420.774 127.616C421.88 126.507 423.005 125.417 424.151 124.307C425.711 127.616 427.152 130.965 428.613 134.314C426.402 133.383 424.23 132.491 422.097 131.5C410.308 121.454 391.944 128.231 380.531 117.411C373.778 111.605 374.686 101.995 375.279 94.0095Z"></path>
<path fill="#FEFEFD" d="M659.144 123.452C665.618 122.422 672.79 119.666 678.986 123.234C692.673 130.311 701.418 145.436 701.398 160.719C701.359 180.463 694.525 199.988 683.07 216.024C671.495 234.023 652.111 245.897 631.054 249.386C641.433 241.774 650.577 231.823 655.598 219.89C659.463 210.276 655.897 199.691 649.322 192.178C653.586 193.764 657.829 195.369 662.092 196.995C660.02 189.343 654.582 183.456 647.39 180.225C651.534 179.808 655.737 179.471 659.921 179.174C653.884 171.602 645.537 165.06 635.477 164.466C626.093 163.375 618.164 169.144 610.275 173.148C618.523 161.413 632.588 152.473 647.47 155.268C657.61 156.437 664.881 164.248 670.121 172.335C670.738 169.441 671.416 166.567 672.133 163.693C676.576 168.331 680.939 173.703 681.237 180.423C682.413 195.567 676.974 210.811 667.949 222.923C662.57 230.277 655.08 235.689 648.685 242.111C665.658 235.411 677.91 220.227 684.106 203.496C690.362 187.48 690.103 168.192 679.962 153.781C676.556 147.993 670.36 145.099 664.423 142.601C670.3 142.76 676.197 143.196 682.014 144.088C679.185 138.954 676.795 133.503 672.95 129.023C669.603 124.88 663.925 124.642 659.144 123.452Z"></path>
<path fill="#FEFEFD" d="M469.491 138.601C474.768 145.583 473.872 154.331 474.828 162.504C477.098 171.767 481.818 180.237 485.96 188.786C490.062 182.935 492.293 175.992 495.24 169.545C500.139 159.627 495.26 147.25 502.867 138.403C502.628 142.687 501.075 147.428 503.703 151.296C507.686 158.536 515.791 165.281 513.442 174.385C509.957 185.394 499.342 191.702 490.48 198.109C491.018 200.648 491.536 203.187 492.034 205.726C502.987 215.605 518.699 211.856 532.021 211.677C540.246 210.824 548.809 213.839 553.967 220.445C558.627 225.662 558.946 232.961 560.041 239.507C551.876 232.346 540.346 231.692 530.647 235.976C534.59 231.315 541.521 229.708 544.408 224.273C535.347 215.029 521.905 216.894 510.196 216.716C503.126 216.973 497.888 211.796 492.213 208.523C490.142 218.164 501.194 221.298 508.224 223.718C517.643 224.095 527.162 223.242 536.423 225.622C522.662 236.135 502.051 228.875 492.312 216.12C491.735 225.622 492.372 236.135 486.219 244.129C484.367 240.856 481.937 237.682 481.459 233.874C480.464 221.932 479.448 209.614 482.973 197.951C473.334 192.258 462.581 185.632 458.797 174.504C455.471 160.659 474.469 152.605 469.491 138.601Z"></path>
<path fill="#593336" d="M593.336 150.669C592.023 155.493 591.154 160.77 587.477 164.531C583.579 169.512 577.195 171.461 572.286 175.202C570.124 175.104 568.003 175.006 565.882 174.907C572.427 171.343 578.649 167.228 585.174 163.645C587.982 159.372 590.588 154.981 593.336 150.669Z"></path>
<path fill="#FEFEFD" d="M432.841 211.646C447.794 210.939 463.32 214.592 477.68 208.497C473.308 212.312 468.581 216.61 462.41 216.308C450.8 216.731 437.272 214.956 428.391 224.421C430.883 229.749 437.371 231.403 441.307 235.541C431.753 231.868 420.935 232.776 412.865 239.456C412.37 226.964 419.906 213.402 432.841 211.646Z"></path>
<path fill="#FEFEFD" d="M270.9 272.262C286.431 265.165 303.612 271.823 317.512 279.558C342.448 293.97 365.356 312.19 384.804 333.5C356.706 312.828 323.517 300.987 291.561 287.87C283.607 284.342 275.494 280.016 270.9 272.262Z"></path>
<path fill="#FEFEFD" d="M459.772 269.246C462.178 271.694 466.134 273.763 465.299 277.862C463.43 283.652 459.792 288.646 456.651 293.779C458.122 288.885 460.428 284.328 462.138 279.533C463.748 275.912 460.886 272.529 459.772 269.246Z"></path>
<path fill="#FEFEFD" d="M508.298 277.858C507.121 273.911 510.46 271.619 512.776 269.246C507.835 277.221 513.703 285.015 516.232 292.611C513.124 288.006 509.611 283.381 508.298 277.858Z"></path>
<path fill="#FEFEFD" d="M249.288 284.433C265.889 285.676 280.674 293.509 296.018 299.053C286.6 299.822 277.401 302.782 267.924 302.525C258.705 300.631 254.037 291.536 249.288 284.433Z"></path>
<path fill="#FEFEFD" d="M609.691 380.213C628.216 369.787 650.173 376.791 668.103 384.988C659.872 391.137 648.844 393.166 639.145 389.505C629.545 385.725 619.926 381.885 609.691 380.213Z"></path>
<path fill="#FEFEFD" d="M322.887 403.417C345.31 388.867 374.141 398.142 395.318 410.555C388.022 409.064 380.725 406.868 373.211 407.594C361.92 408.496 350.808 412.437 339.378 410.79C333.15 410.339 327.831 406.868 322.887 403.417Z"></path>
<path fill="#FEFEFD" d="M523.241 479.53C540.11 480.103 557.119 482.238 573.113 487.773C598.974 496.866 618.29 519.303 627.799 544.368C609.935 540.375 593.782 529.087 584.591 513.254C570.825 492.893 545.919 485.362 523.241 479.53Z"></path>
<path fill="#FEFEFD" d="M736.35 591.098C746.215 595.11 756.318 600.852 761.261 610.745C766.521 621.035 763.563 634.186 755.524 642.191C745.163 653.157 729.304 656.117 714.854 656.653C689.943 657.627 666.203 648.27 641.491 647.058C626.009 646.323 610.169 646.006 595.144 650.316C575.255 655.998 555.783 665.493 541.789 681.088C569.578 666.685 599.451 652.899 631.547 654.448C661.201 653.872 689.288 666.626 718.942 665.394C712.789 671.215 704.869 674.413 696.453 674.969C708.085 683.213 721.582 690.782 727.18 704.708C724.083 704.43 720.987 704.132 717.93 703.834C725.651 713.508 729.582 726.46 726.525 738.697C724.957 746.544 719.042 752.345 713.166 757.291C716.759 751.054 720.649 743.962 718.049 736.532C716.422 728.606 708.72 724.891 702.527 720.997C695.421 716.806 690.161 710.25 685.596 703.536C682.797 709.436 680.118 716.428 673.548 718.991C667.871 721.673 661.598 719.805 655.822 718.713C661.261 716.885 667.91 714.799 669.479 708.442C672.277 697.695 663.96 688.12 655.862 682.28C640.181 671.652 620.312 669.169 601.793 670.42C583.135 672.148 564.377 675.883 547.406 684.068C533.075 691.398 520.193 701.748 510.447 714.581C499.769 729.222 494.33 746.922 491.114 764.582C491.551 754.908 492.504 745.134 496.037 736.055C500.503 723.183 508.264 711.76 512.571 698.847C518.208 682.637 523.171 666.129 526.128 649.204C526.823 642.926 528.232 635.199 523.389 630.193C519.955 626.716 514.735 628.107 510.447 627.888C514.933 626.061 519.439 624.273 524.084 622.783C518.447 621.392 512.532 618.909 506.716 620.777C502.567 622.127 501.575 626.875 499.431 630.133C496.295 623.677 497.843 614.757 505.366 612.393C520.967 607.804 537.184 621.67 538.534 637.165C540.042 653.852 533.075 669.665 528.431 685.359C537.72 670.798 550.622 658.421 566.581 651.429C583.135 643.761 601.436 640.503 619.637 640.404C650.761 640.026 681.944 643.403 713.067 640.741C723.488 639.808 734.226 637.742 743.079 631.842C749.629 627.471 754.135 619.306 752.21 611.34C750.423 602.421 742.821 596.7 736.35 591.098ZM629.423 657.965C637.085 659.772 644.846 661.242 652.269 663.984C676.942 672.426 697.505 691.1 708.958 714.482C697.704 681.485 664.397 657.527 629.423 657.965Z"></path>
<path fill="#FEFEFD" d="M248.987 596.995C255.972 593.291 268.945 598.321 267.243 607.628C263.975 616.302 249.613 615.589 245.719 607.708C244.467 603.985 245.445 599.054 248.987 596.995Z"></path>
<path fill="#FEFEFD" d="M713.436 596.263C719.162 593.503 727.79 596.08 727.671 603.65C728.248 615.319 709.261 617.449 705.165 607.729C703.694 602.148 708.684 597.684 713.436 596.263Z"></path>
<path fill="#FFFEFE" d="M582.597 107.766C589.15 105.035 593.739 99.4921 597.967 94.0095C598.989 102.103 599.61 111.963 592.737 117.808C581.134 128.913 562.478 121.925 550.415 131.845C547.991 132.93 545.506 133.874 543.101 134.898C544.825 131.444 546.628 128.03 548.552 124.696C549.554 125.7 550.596 126.724 551.678 127.728C558.391 116.482 571.476 112.927 582.597 107.766Z"></path>
<path fill="#FFFEFE" d="M427.111 106.86C436.771 111.49 446.214 119.166 446.926 130.7C448.866 126.822 451.598 123.439 454.864 120.57C451.262 129.889 458.823 137.783 460.209 146.626C457.913 153.432 451.123 158.595 451.618 166.39C451.677 181.406 464.148 191.615 474.759 200.32C455.141 191.358 434.475 181.921 420.737 164.649C412.284 154.085 409.631 139.721 398.823 130.898C406.029 132.342 414.343 132.322 420.123 137.565C426.002 143.658 428.002 152.205 431.743 159.604C435.128 167.004 440.651 173.117 446.728 178.439C440.612 168.408 433.267 158.496 431.624 146.547C430.971 137.802 435.544 129.473 434.277 120.709C433.386 115.446 429.882 111.232 427.111 106.86Z"></path>
<path fill="#FFFEFE" d="M295.747 122.643C301.046 120.118 306.881 122.285 312.279 123.259C308.032 124.83 302.991 125.367 299.875 128.987C296.025 133.341 293.782 138.77 291.122 143.861C296.918 143.284 302.753 142.847 308.607 142.668C290.011 147.58 282.489 169.275 284.692 186.694C288.145 210.119 302.118 233.445 324.683 242.672C318.551 236.349 311.287 231.198 305.829 224.238C296.064 212.048 290.388 196.22 291.5 180.55C291.916 173.649 296.521 168.181 301.006 163.369C301.423 166.57 301.82 169.772 302.217 172.973C307.575 164.661 315.018 156.707 325.338 155.395C339.826 152.531 353.302 161.639 361.439 172.934C353.183 169.076 344.788 163.09 335.182 164.88C326.152 166.073 318.948 172.218 313.152 178.82C317.181 179.357 321.25 179.953 325.298 180.55C317.677 182.777 313.45 189.498 311.088 196.617C315.236 195.225 319.364 193.774 323.512 192.322C317.538 199.063 313.688 208.171 316.348 217.239C320.615 230.721 330.915 241.34 341.731 249.97C325.814 246.49 310.334 239.232 298.982 227.301C283.224 210.159 272.367 187.887 270.978 164.442C269.906 147.281 279.969 129.683 295.747 122.643Z"></path>
<path fill="#FFFEFE" d="M578.159 133.092C585.318 127.052 594.902 126.315 603.85 126.873C599.137 128.946 593.669 130.82 591.164 135.743C587.624 142.719 587.147 150.991 582.494 157.449C576.031 166.797 565.831 172.498 555.67 176.923C560.541 178.438 565.811 179.395 570.106 182.384C574.063 185.195 575.972 189.839 578.219 193.985C570.523 186.251 559.487 187.786 549.645 188.623C555.55 191.793 560.004 196.796 564.936 201.221C570.146 204.37 576.509 204.39 582.355 205.566C572.572 208.576 562.013 209.293 552.886 203.891C553.124 205.486 553.582 208.655 553.82 210.25C548.988 204.25 542.307 200.324 534.95 198.31C536.382 201.599 537.813 204.908 539.146 208.257C532.584 204.848 525.902 200.563 518.227 200.782C511.367 201.041 504.825 203.214 498.124 204.41C498.74 204.051 499.953 203.313 500.55 202.935C519.261 191.254 540.597 183.002 556.207 166.937C565.871 157.23 568.793 142.998 578.159 133.092Z"></path>
<path fill="#FFFFFE" d="M721.145 294.207C724.407 293.453 727.808 293.929 731.189 293.909C730.002 297.776 729.805 302.534 726.305 305.131C721.58 307.431 716.519 304.814 711.913 303.605C714.483 300.095 716.816 295.813 721.145 294.207Z"></path>
<path fill="#FFFFFE" d="M280.83 315.447C283.338 308.838 291.4 307.703 297.53 307.265C322.332 306.309 345.421 318.951 363.435 335.036C384.594 353.77 404.539 374.155 421.02 397.169C405.434 383.93 389.729 370.632 371.735 360.738C348.945 347.519 323.028 341.706 298.645 332.289C291.32 328.865 281.985 324.386 280.83 315.447Z"></path>
<path fill="#FFFFFE" d="M305.948 384.127C323.513 376.571 344.628 370.088 362.607 380.071C346.56 381.841 332.424 394.885 315.785 390.391C312.276 389.059 307.091 388.264 305.948 384.127Z"></path>
<path fill="#FFFFFE" d="M576.98 410.636C592.888 401.674 610.863 394.972 629.475 396.131C636.912 396.446 643.712 399.708 649.996 403.384C639.338 412.425 624.504 412.386 611.519 409.378C600.066 406.47 588.275 407.806 576.98 410.636Z"></path>
<path fill="#FFFFFE" d="M358.519 464.996C368.125 458.573 379.985 457.692 391.134 456.552C411.573 454.611 431.695 460.274 450.81 466.978C432.565 465.337 416.04 474.182 398.961 478.984C389.157 482.026 378.938 483.126 368.857 484.787C373.186 479.865 377.139 474.642 380.638 469.099C373.225 467.918 365.813 466.717 358.519 464.996Z"></path>
<path fill="#FFFFFE" d="M521.489 467.39C548.278 455.595 579.19 452.276 607.273 461.392C610.341 462.612 613.209 464.331 616.117 465.97C608.209 467.03 600.242 467.81 592.375 469.089C595.482 474.507 599.286 479.465 603.389 484.203C592.435 482.984 581.52 481.184 571.004 477.846C554.831 473.068 538.877 464.471 521.489 467.39Z"></path>
<path fill="#FFFFFE" d="M388.481 517.696C397.182 506.779 408.731 497.998 421.604 492.381C417.794 495.842 413.584 498.848 409.493 501.993C406.847 504.03 404.26 506.166 401.754 508.361C400.771 510.24 399.869 512.159 399.248 514.176C401.132 515.857 403.298 517.202 405.443 518.566C396.982 531.56 395.919 547.976 385.974 560.139C380.902 546.572 379.318 529.958 388.481 517.696Z"></path>
<path fill="#FFFFFE" d="M208.856 617.475C211.44 604.017 224.165 595.935 235.915 591.098C229.871 596.353 222.733 601.41 220.427 609.532C218.041 616.937 220.944 625.318 226.888 630.195C235.994 637.899 248.301 639.811 259.792 641.005C288.243 643.454 316.812 640.726 345.302 640.507C363.514 640.328 382.043 642.12 399.161 648.749C417.869 655.398 433.973 668.477 444.371 685.418C439.56 670.488 433.158 655.398 433.874 639.432C434.51 623.188 450.793 608.059 467.235 612.319C475.565 615.106 476.381 625.019 472.245 631.649C471.191 628.185 471.887 623.407 468.07 621.576C462.324 618.669 455.863 621.058 449.958 622.033C453.278 623.745 456.658 625.418 460.038 627.07C455.823 628.185 450.276 628.045 447.731 632.286C444.67 637.342 445.664 643.533 446.419 649.087C449.382 666.785 455.167 683.845 460.972 700.786C465.048 713.149 472.444 724.058 476.878 736.301C480.297 745.498 481.589 755.372 481.768 765.166C478.786 746.931 472.881 728.776 461.986 713.686C446.598 693.739 423.695 680.083 399.101 675.126C373.236 669.054 344.407 667.044 320.192 679.924C310.231 685.358 299.873 695.71 302.497 708.112C303.79 714.542 310.45 716.812 315.778 719.001C309.933 720.514 303.332 721.987 297.845 718.603C292 715.657 289.415 709.326 286.95 703.693C282.477 710.521 277.228 717.13 270.051 721.251C263.848 725.173 256.035 728.995 254.563 736.997C252.197 744.343 256.094 751.311 259.553 757.522C254.563 753.082 249.175 748.504 247.008 741.954C242.595 729.174 245.676 714.542 254.364 704.25C251.243 704.449 248.161 704.628 245.08 704.808C251.024 691.052 264.424 683.387 276.214 675.285C267.765 674.449 259.792 671.284 253.43 665.63C283.252 666.964 311.484 653.885 341.326 654.701C373.196 653.646 403.117 666.606 430.733 681.178C413.794 662.684 389.538 652.511 365.263 648.172C341.326 644.907 316.991 647.515 293.551 652.87C271.84 657.468 247.764 660.196 227.206 649.943C215.258 644.25 206.231 631.051 208.856 617.475ZM316.156 662.266C292.259 670.209 272.099 689.24 263.49 713.009C270.091 703.056 276.314 692.624 285.419 684.701C301.205 669.831 322.2 662.206 343.155 658.165C334.089 658.902 324.844 659.34 316.156 662.266Z"></path>
<path fill="#FFFFFE" d="M374.427 695.656C383.143 701.129 393.57 701.188 403.262 703.628C408.993 704.877 413.231 709.141 417.351 713.008C415.46 708.685 413.59 704.361 411.819 700.018C423.321 704.917 436.554 707.039 445.947 715.903C453.688 722.547 458.086 731.867 463.16 740.494C478.185 763.141 480.453 792.234 474.941 818.292C471.618 838.044 462.583 857.082 447.997 871.023C434.743 883.636 415.838 890.974 397.471 888.534C390.486 887.404 382.586 884.231 379.979 877.092C378.168 872.372 381.65 868.287 384.198 864.717C383.819 866.185 383.083 869.139 382.725 870.607C387.163 877.687 394.665 882.486 402.963 883.636C417.291 886.412 431.679 880.285 442.763 871.539C460.394 857.697 470.663 836.081 473.269 814.147C473.449 798.778 467.399 783.587 457.648 771.768C452.733 765.878 444.653 760.94 436.793 763.875C424.316 768.357 410.187 765.918 398.446 772.759C400.217 766.929 402.824 761.337 407.142 756.954C398.108 757.37 389.809 753.662 381.173 751.877C374.327 750.509 368.198 754.634 362.288 757.351C366.089 747.554 374.765 739.84 385.67 739.463C375.78 738.967 366.208 735.893 358.188 730.043C350.248 724.272 340.935 720.722 331.065 720.286C346.826 713.246 364.298 707.257 381.71 711.441C378.048 706.801 375.8 701.347 374.427 695.656ZM380.954 721.654C400.217 722.21 420.873 724.768 436.276 737.44C456.275 752.512 467.499 775.695 474.742 799.016C475.299 776.547 466.245 753.721 448.673 739.284C430.644 722.745 404.714 716.934 380.954 721.654Z"></path>
<path fill="white" d="M395.886 489.254C413.364 482.501 432.107 479.383 450.81 478.946C438.413 482.68 425.464 485.123 413.957 491.3C403.617 496.841 393.711 504.03 387.464 514.199C378.389 529.452 362.967 540.634 345.668 544.368C354.446 520.475 371.963 498.886 395.886 489.254Z"></path>
<path fill="#FEFEFE" d="M368.449 126.72C376.455 126.76 385.22 126.422 392.029 131.416C402.291 138.618 404.468 151.988 412.115 161.339C427.608 181.752 452.666 190.765 473.591 204.314C467.361 202.961 461.271 200.852 454.882 200.414C446.936 199.957 440.107 204.632 433.459 208.233C434.597 205.07 435.775 201.906 436.973 198.763C429.805 200.454 423.675 204.592 418.504 209.666C418.644 208.193 418.943 205.209 419.083 203.717C409.859 209.785 398.837 208.054 388.834 205.388C395.004 204.155 401.892 204.433 407.323 200.852C412.314 196.634 416.567 191.521 422.357 188.258C412.394 188.059 401.113 186.726 393.227 194.147C396.102 189.432 398.677 184.02 403.729 181.215C408.241 178.827 413.373 178.171 418.304 176.957C403.549 171.267 387.896 161.438 384.781 144.726C383.423 135.892 377.234 128.809 368.449 126.72Z"></path>
<path fill="#FEFEFE" d="M709.576 176.371C709.755 169.769 711.9 158.097 720.817 160.284C722.942 168.133 717.103 175.43 709.576 176.371Z"></path>
<path fill="#FEFEFE" d="M734.109 276.06C739.463 269.458 745.058 257.766 755.323 261.057C762.166 263.203 760.536 273.28 754.779 275.733C748.057 277.838 740.932 276.346 734.109 276.06Z"></path>
<path fill="#FEFEFE" d="M676.865 299.161C692.141 293.921 706.682 286.001 723.011 284.433C718.184 291.519 713.615 300.372 704.537 302.536C695.22 302.675 686.102 300.094 676.865 299.161Z"></path>
<path fill="#FEFEFE" d="M626.124 475.441C634.884 481.216 644.102 486.326 653.5 491.103C645.499 492.316 637.278 494.02 629.277 492.101C622.672 490.437 616.786 486.933 610.859 483.761C615.888 480.884 620.976 478.123 626.124 475.441Z"></path>
<path fill="#FEFEFE" d="M328.728 524.508C335.577 510.051 344.827 495.355 360.548 489.46C358.266 492.169 356.221 494.937 353.958 497.605C358.782 497.406 363.605 497.167 368.449 496.729C361.521 502.006 355.864 508.657 349.373 514.412C343.556 519.669 336.013 522.158 328.728 524.508Z"></path>
<path fill="#FEFEFE" d="M551.279 491.797C564.386 498.004 576.611 506.869 585.029 518.709C593.306 530.946 592.183 547.089 586.492 560.139C576.631 545.999 575.088 527.872 563.865 514.465C564.887 514.584 566.911 514.822 567.933 514.921C568.575 514.049 569.837 512.303 570.479 511.431C566.009 503.2 558.594 497.409 551.279 491.797Z"></path>
<path fill="#FEFEFE" d="M508.978 632.684C511.785 632.132 514.492 633.669 516.416 635.619C519.103 642.75 507.494 647.596 503.665 641.43C500.938 637.668 505.169 633.255 508.978 632.684Z"></path>
<path fill="#FEFEFE" d="M414.955 847.735C415.801 840.64 422.225 836.054 426.856 831.172C429.394 836.252 433.663 841.687 431.548 847.656C428.165 857.539 416.546 863.824 406.417 859.654C412.478 859.634 418.519 858.863 423.816 855.78C420.533 853.625 415.015 852.558 414.955 847.735Z"></path>
<path fill="#FEFEFE" d="M541.682 849.801C538.078 843.674 541.561 836.559 545.829 831.756C550.581 836.243 556.903 841.026 557.265 848.003C557.446 852.964 551.265 853.814 548.225 856.343C553.943 859.012 560.225 859.506 566.466 859.605C556.983 863.419 545.91 858.893 541.682 849.801Z"></path>
<path fill="#FEFEFE" d="M348.589 855.627C357.609 853.782 366.229 857.317 374.29 860.814C369.43 862.115 364.389 864.932 359.229 863.475C354.649 862.484 351.649 858.755 348.589 855.627Z"></path>
<path fill="#FEFEFE" d="M598.593 860.831C606.148 856.908 614.539 854.199 623.126 855.414C619.991 858.959 616.623 863.062 611.716 863.799C607.141 864.337 602.838 862.166 598.593 860.831Z"></path>
<path fill="#FDFDFC" d="M750.126 146.046C761.796 133.807 780.632 126.781 796.61 134.841C782.379 135.12 767.83 139.399 757.549 149.668C744.33 162.783 736.271 179.938 724.958 194.565C714.895 209.093 701.259 221.213 685.043 228.358C691.732 223.084 698.202 217.352 702.708 210.029C717.416 187.938 730.754 164.475 750.126 146.046Z"></path>
<path fill="#FDFDFC" d="M596.027 375.754C599.045 372.574 602.186 375.489 602.682 378.975C602.454 383.357 600.615 387.455 598.673 391.328C595.593 391.205 595.49 387.801 594.746 385.62C594.23 382.379 592.638 377.976 596.027 375.754Z"></path>
<path fill="#FDFDFC" d="M607.873 487.708C614.183 490.371 620.65 493.152 625.816 497.842C634.059 505.035 638.87 515.109 644.154 524.508C637.746 522.362 631.14 520.275 625.737 516.063C617.87 509.943 611.501 502.174 603.85 495.815C605.881 495.676 609.923 495.358 611.954 495.219C610.633 492.676 609.273 490.172 607.873 487.708Z"></path>
<path fill="#FDFDFC" d="M592.167 856.873C596.501 849.499 597.773 839.587 606.082 835.261C606.002 840.236 606.976 845.782 604.233 850.285C601.689 854.494 596.421 855.32 592.167 856.873Z"></path>
<path fill="#FCFDFC" d="M174.52 134.938C187.83 129.018 203.872 130.413 215.201 139.881C238.771 159.234 253.704 186.501 270.777 211.316C275.174 217.993 280.977 223.494 287.256 228.358C277.234 223.813 267.945 217.634 260.201 209.781C242.692 192.261 232.591 168.881 215.835 150.763C205.338 139.402 189.691 134.38 174.52 134.938Z"></path>
<path fill="#FCFDFC" d="M720.09 157.095C720.521 150.421 720.403 141.618 726.878 137.819C729.46 139.005 731.592 141.658 730.125 144.673C728.443 149.959 724.159 153.718 720.09 157.095Z"></path>
<path fill="#FCFDFC" d="M596.269 865.051C602.791 867.371 610.208 869.164 614.364 875.167C610.487 875.109 605.396 877.233 602.89 872.945C601.459 876.415 601.001 880.372 598.218 883.159C596.985 878.773 596.269 874.29 595.672 869.807C597.124 870.041 600.027 870.489 601.499 870.723C600.186 869.3 597.581 866.474 596.269 865.051Z"></path>
<path fill="#FBFAFB" d="M252.467 156.868C246.884 152.02 237.487 143.259 245.871 136.365C250.897 141.988 253.222 149.338 252.467 156.868Z"></path>
<path fill="#FDFEFD" d="M379.547 150.669C382.252 154.989 384.291 159.884 388.167 163.352C393.981 167.573 400.28 171.081 406.417 174.826C404.499 174.905 400.643 175.103 398.725 175.202C398.079 174.331 396.807 172.626 396.161 171.754C392.205 170.288 388.208 168.584 385.825 164.957C381.848 161.133 380.294 155.921 379.547 150.669Z"></path>
<path fill="#FDFEFD" d="M270.316 191.556C264.717 191.718 257.796 181.909 263.989 178.707C267.268 182.234 268.897 186.956 270.316 191.556Z"></path>
<path fill="#FDFEFD" d="M271.776 193.31C278.591 200.532 279.278 210.867 283.167 219.596C276.765 212.335 268.104 203.977 271.776 193.31Z"></path>
<path fill="#FDFEFD" d="M407.552 266.593C420.531 259.284 437.816 265.282 445.91 277.079C451.293 284.845 451.891 294.636 452.23 303.752C452.39 331.299 453.805 359.282 462.139 385.757C466.405 400.453 473.762 413.919 480.6 427.543C458.869 399.997 451.771 364.089 451.134 329.769C449.977 313.921 454.024 297.079 447.047 282.124C440.806 267.824 421.208 259.86 407.532 268.559C399.417 273.445 396.407 286.175 403.644 293.047C408.409 297.953 415.526 298.469 421.986 298.31C423.94 296.582 425.953 294.914 428.027 293.305C426.432 295.351 425.594 298.628 422.584 298.946C414.091 300.276 403.664 297.774 399.318 289.711C395.031 281.468 399.477 270.684 407.552 266.593Z"></path>
<path fill="#FDFEFD" d="M724.763 286.353C728.611 283.493 732.828 277.928 738.288 280.36C742.194 281.586 740.367 286.956 737.647 288.591C733.391 291.47 728.689 287.968 724.763 286.353Z"></path>
<path fill="#FDFEFD" d="M616.117 368.603C625.562 363.761 636.248 359.872 647.111 361.225C653.782 361.969 659.154 366.163 664.015 370.299C648.094 368.889 632.096 365.82 616.117 368.603Z"></path>
<path fill="#FDFEFD" d="M228.881 527.349C239.691 523.354 256.823 530.676 253.552 543.963C248.666 556.895 228.542 556.974 219.627 548.175C213.444 540.459 219.766 529.003 228.881 527.349ZM228.801 530.991C221.88 532.664 217.134 543.589 224.593 547.506C232.511 552.151 246.871 551.856 250.461 542.093C251.179 531.404 237.058 527.645 228.801 530.991Z"></path>
<path fill="#FDFEFD" d="M733.31 526.512C740.045 525.595 747.595 527.11 752.462 532.21C757.588 537.47 756.635 547.632 749.84 551.059C741.078 556.179 728.105 555.362 721.132 547.652C714.774 538.606 723.158 526.811 733.31 526.512ZM731.264 530.457C724.41 531.692 719.502 540.718 724.529 546.377C732.198 552.473 744.873 551.935 751.489 544.484C755.224 533.306 740.045 527.05 731.264 530.457Z"></path>
<path fill="#FDFEFD" d="M483.286 556.961C485.471 555.574 488.954 555.594 490.233 558.268C493.382 563.695 492.3 570.45 490.961 576.273C489.722 579.7 488.993 584.256 485.274 585.841C480.787 577.323 477.107 565.478 483.286 556.961Z"></path>
<path fill="#FDFEFD" d="M263.891 620.42C277.105 618.807 291.369 618.15 302.443 609.79C300.64 613.731 299.154 618.568 294.697 620.181C284.752 623.525 274.054 621.614 263.891 620.42Z"></path>
<path fill="#FDFEFD" d="M669.856 610.374C681.496 617.803 695.59 618.853 708.992 620.623C698.54 621.673 687.415 623.598 677.319 619.825C673.063 618.406 671.677 613.874 669.856 610.374Z"></path>
<path fill="#FDFEFD" d="M576.98 835.261C586.166 838.93 590.808 849.373 587.7 858.626C584.632 850.564 577.688 844.162 576.98 835.261Z"></path>
<path fill="#FDFEFD" d="M357.934 873.651C361.767 868.434 368.581 867.554 374.29 865.635C371.663 871.372 363.762 880.628 357.934 873.651Z"></path>
<path fill="#FDFDFD" d="M251.911 160.687C259.145 157.236 263.609 167.907 263.291 173.877C255.977 177.507 250.257 166.955 251.911 160.687Z"></path>
<path fill="#FDFDFD" d="M702.567 192.726C703.084 187.004 705.197 181.083 710.727 178.123C713.13 184.779 707.91 189.587 702.567 192.726Z"></path>
<path fill="#FDFDFD" d="M690.884 218.428C693.26 209.566 695.318 200.342 700.643 192.726C705.334 202.693 696.644 211.354 690.884 218.428Z"></path>
<path fill="#FDFDFD" d="M239.182 255.96C242.394 251.84 249.445 253.12 251.56 257.761C254.556 263.122 256.633 268.942 259.218 274.503C253.851 271.843 248.211 269.743 243.001 266.802C239.084 264.922 238.105 259.881 239.182 255.96Z"></path>
<path fill="#FDFDFD" d="M219.918 276.479C213.38 275.505 208.968 264.75 216.262 261.422C226.317 257.161 232.438 268.423 237.605 275.119C231.782 276.093 225.821 277.513 219.918 276.479Z"></path>
<path fill="#FDFDFD" d="M366.952 835.261C375.135 839.966 376.929 849.629 380.715 857.457C376.574 855.564 371.25 854.841 368.707 850.683C365.808 846.056 366.873 840.376 366.952 835.261Z"></path>
<path fill="#FDFDFD" d="M384.555 858.626C381.698 849.479 385.561 838.551 395.318 835.261C394.172 843.996 387.573 850.557 384.555 858.626Z"></path>
<path fill="#FEFFFE" d="M308.284 370.883C320.452 356.04 341.751 359.95 356.182 368.888C340.183 366.078 324.184 368.949 308.284 370.883Z"></path>
<path fill="#FCFCFC" d="M460.628 223.999C467.712 224.68 473.04 219.254 478.848 216.091C470.626 230.365 449.053 235.25 435.623 225.901C443.765 223.578 452.206 223.318 460.628 223.999Z"></path>
<path fill="#FDFCFB" d="M721.548 256.76C724.667 251.594 735.514 252.568 733.885 259.978C732.554 270.09 719.998 270.229 712.945 274.68C715.985 268.799 718.031 262.402 721.548 256.76Z"></path>
<path fill="#FDFCFB" d="M259.996 361.042C264.943 358.34 267.447 364.737 270.824 367.2C270.208 370.339 269.592 373.498 269.016 376.657C264.526 372.485 257.851 368.214 259.996 361.042Z"></path>
<path fill="#FEFDFE" d="M232.619 280.362C238.539 276.805 243.784 282.607 247.956 286.103C244.281 287.732 240.506 290.613 236.254 289.401C232.778 288.209 230.056 283.66 232.619 280.362Z"></path>
<path fill="#FEFDFD" d="M241.58 294.169C244.997 294.09 248.454 293.772 251.871 294.249C255.864 296.335 258.208 300.427 260.97 303.844C255.884 305.056 249.944 307.838 245.076 304.58C242.474 301.758 242.454 297.686 241.58 294.169Z"></path>
<path fill="#FEFDFD" d="M458.528 633.478C463.038 629.704 466.991 635.266 470.587 637.531C468.461 640.332 466.912 644.822 462.501 644.028C456.939 644.485 452.647 636.28 458.528 633.478Z"></path>
<path fill="#FCFCFB" d="M370.595 378.882C371.489 376.16 373.595 374.313 376.615 375.207C381.641 380.253 377.489 387.465 374.529 392.451C372.86 388.061 370.734 383.67 370.595 378.882Z"></path>
<path fill="#FDFCFC" d="M414.01 414.693C422.566 415.516 428.571 422.316 431.534 429.88C423.528 428.312 415.502 423.276 414.01 414.693Z"></path>
<path fill="#FCFBFB" d="M541.432 430.795C543.578 422.47 550.114 416.133 558.577 414.504C557.584 423.563 549.061 428.053 541.432 430.795Z"></path>
<path fill="#FFFEFE" d="M347.967 475.158C353.708 473.568 362.947 470.31 366.761 476.37C365.192 479.171 363.185 481.674 361.238 484.197C356.788 481.178 352.377 478.158 347.967 475.158Z"></path>
<path fill="#FFFEFE" d="M604.332 473.31C611.663 472.933 619.351 472.059 626.225 475.416C621.099 478.138 616.033 480.939 611.027 483.86L610.133 484.356C608.186 480.681 606.259 476.986 604.332 473.31Z"></path>
<path fill="#FFFEFE" d="M401.707 508.395C404.19 506.19 406.753 504.045 409.375 501.998C410.27 503.965 411.164 505.972 412.097 507.958C411.183 509.786 410.289 511.614 409.395 513.442C406.813 511.753 404.27 510.064 401.707 508.395Z"></path>
<path fill="#FFFEFE" d="M399.224 514.236C399.84 512.21 400.734 510.283 401.708 508.395C404.271 510.064 406.814 511.753 409.396 513.442C408.304 515.329 407.211 517.236 406.158 519.144L405.363 518.647C403.237 517.276 401.092 515.925 399.224 514.236Z"></path>
<path fill="#3F6B90" d="M316.408 662.377C325.072 659.448 334.291 659.009 343.331 658.272C322.435 662.318 301.5 669.951 285.758 684.839C276.678 692.771 270.473 703.214 263.891 713.179C272.475 689.383 292.578 670.329 316.408 662.377Z"></path>
<path fill="#F2F8F9" d="M370.774 883.465C370.238 877.823 371.748 872.36 375.523 868.088C375.86 873.631 377.509 881.042 370.774 883.465Z"></path>
</svg>
