<svg xmlns="http://www.w3.org/2000/svg" fill="none" viewBox="0 0 1024 1024" height="1024" width="1024">
<rect fill="#22518C" height="1024" width="1024"></rect>
<path fill="#FFFFFE" d="M126.621 153.649C134.613 147.127 145.4 146.009 155.318 147.251C147.243 160.44 135.192 171.641 119.747 175.161C124.198 169.467 129.374 164.415 133.66 158.618C127.035 161.31 121.589 165.989 116.123 170.482C118.546 164.312 121.01 157.666 126.621 153.649Z"></path>
<path fill="#FFFFFE" d="M869.45 148.514C878.25 147.52 887.774 147.852 895.249 153.214C901.978 157.334 904.876 164.995 907.071 172.18C901.729 167.604 896.346 163.028 890.155 159.695C893.406 166.03 898.623 170.979 903.054 176.507C888.188 172.718 876.511 161.827 869.45 148.514Z"></path>
<path fill="#FFFFFE" d="M767.044 185.203C776.134 181.58 785.658 176.859 795.741 178.971C805.534 180.979 814.127 186.466 823.341 190.131C814.376 205.701 792.511 212.037 776.693 203.444C771.226 200.67 767.562 195.638 763.855 190.98C773.131 194.375 783.09 196.322 792.967 194.438C784.353 191.228 775.119 189.779 767.044 185.203Z"></path>
<path fill="#FFFFFE" d="M330.605 184.147C342.366 182.077 354.375 183.692 365.99 185.99C342.821 196.736 317.396 206.488 291.39 203.382C302.405 193.527 315.781 186.073 330.605 184.147Z"></path>
<path fill="#FFFFFE" d="M657.329 187.191C683.458 181.787 712.134 187.584 732.032 205.95C705.778 209.387 680.104 199.262 657.329 187.191Z"></path>
<path fill="#FFFFFE" d="M377.73 191.456C391.354 186.963 406.986 194.355 412.431 207.565C405.433 202.989 398.435 197.378 389.677 196.984C380.587 195.535 372.098 199.51 364.292 203.589C367.729 198.599 371.394 192.926 377.73 191.456Z"></path>
<path fill="#FFFFFE" d="M911.067 190.317C907.402 219.635 894.751 249.802 870.051 267.402C867.794 269.079 865.578 270.797 863.404 272.516C879.947 272.536 897.112 270.3 912.93 276.636C923.987 280.322 933.822 287.382 940.592 296.927C931.772 299.266 923.179 295.871 916.16 290.695C915.829 295.167 914.98 300.426 909.431 300.819C899.017 303.987 893.116 293.324 888.209 286.264C881.5 275.166 866.841 274.773 855.433 276.139C843.817 279.162 832.533 284.173 820.338 284.276C810.503 284.814 800.834 281.315 793.111 275.352C812.449 280.839 833.755 281.564 852.244 272.661C859.015 269.203 869.243 264.606 866.344 255.144C866.531 246.303 857.027 244.088 850.712 241.086C845.308 239.264 845.722 232.535 843.921 228.145C841.809 219.511 835.37 213.093 829.676 206.654C845.412 204.79 860.899 214.563 867.028 228.932C868.187 232.473 871.562 236.241 869.595 240.071C865.744 238.518 863.818 234.046 860.506 231.603C866.117 240.568 870.734 250.693 867.897 261.542C869.636 260.114 871.438 258.726 873.26 257.381L873.922 260.321C892.66 241.21 906.077 216.695 911.067 190.317ZM875.082 273.572C884.109 277.588 892.412 283.117 901.626 286.699C895 278.893 885.372 273.841 875.082 273.572Z"></path>
<path fill="#FFFFFE" d="M917.796 211.54C932.083 209.718 943.242 220.008 949.495 231.748C940.592 233.404 934.484 225.226 925.912 225.516C918.583 225.909 914.546 218.683 910.301 214.004C915.726 214.377 921.171 215.08 926.637 215.577C923.676 214.19 920.736 212.844 917.796 211.54Z"></path>
<path fill="#FFFFFE" d="M585.276 243.84C594.22 235.868 607.037 236.696 618.217 236.614C601.902 241.541 585.089 248.809 575.834 264.006C576.807 256.532 579.147 248.747 585.276 243.84Z"></path>
<path fill="#FFFFFE" d="M373.961 284.587C381.312 271.771 398.725 276.988 410.63 278.624C397.834 277.009 386.446 284.007 373.961 284.587Z"></path>
<path fill="#FFFFFE" d="M402.969 285.332C424.047 282.081 447.506 289.639 460.446 307.155C446.284 299.039 431.915 288.231 414.585 290.074C400.154 289.763 389.511 300.302 377.047 305.644C384.107 297.237 391.292 287.154 402.969 285.332Z"></path>
<path fill="#FFFFFE" d="M286.007 331.67C286.38 326.535 291.825 324.671 296.111 323.822C304.31 321.938 312.551 324.423 320.46 326.514C308.679 326.411 297.684 333.533 286.007 331.67Z"></path>
<path fill="#FFFFFE" d="M830.732 346.039C836.591 343.886 842.43 347.157 847.109 350.49C854.832 355.936 860.568 363.638 865.019 371.899C859.47 370.636 853.942 369.373 848.455 368.11C850.236 369.58 853.776 372.52 855.557 373.991C848.683 375.543 841.208 378.732 834.293 375.647C828.268 372.562 825.204 366.081 821.539 360.739C825.804 360.615 830.09 360.574 834.396 360.574C832.678 355.956 829.034 351.174 830.732 346.039Z"></path>
<path fill="#FFFFFE" d="M98.5654 434.449C109.518 437.389 120.306 433.807 131.113 432.358C142.17 431.405 149.396 441.261 155.773 448.714C149.313 447.824 142.895 446.768 136.435 446.23C141.632 448.093 146.953 449.439 152.315 450.909C142.75 456.292 131.051 458.57 120.637 454.201C110.719 451.158 103.638 443.124 98.5654 434.449Z"></path>
<path fill="#FFFFFE" d="M835.804 515.012C845.95 510.933 856.675 505.798 867.918 507.806C875.641 509.069 881.127 515.094 886.179 520.561C875.785 527.559 865.185 538.76 851.416 535.696C842.471 533.605 838.827 524.349 835.328 516.937C842.803 519.318 850.463 521.264 858.352 521.741C850.919 519.215 843.279 517.331 835.804 515.012Z"></path>
<path fill="#FFFFFE" d="M756.692 547.353C775.264 535.551 800.379 535.737 818.185 548.968C828.807 556.214 833.548 568.575 840.05 579.135C829.324 580.356 817.957 580.936 808.06 575.863C795.016 570.397 786.962 557.747 774.291 551.701C770.688 549.899 766.941 548.284 763.4 546.483C767.914 546.462 772.759 546.504 776.982 548.533C787.149 553.109 792.138 564.538 802.491 568.824C806.86 570.832 811.746 570.377 816.446 570.397C810.193 567.561 803.05 566.049 798.06 561.039C792.097 555.283 787.273 547.456 778.784 545.199C771.392 542.259 763.98 546.276 756.692 547.353Z"></path>
<path fill="#FFFFFE" d="M221.531 642.616C225.672 638.061 230.186 633.236 236.46 631.828C246.999 629.033 257.165 634.375 266.73 638.102C259.96 643.154 253.769 651.043 244.638 651.167C236.646 649.158 229.689 644.231 221.531 642.616Z"></path>
<path fill="#FFFFFE" d="M758.058 638.599C767.23 634.789 776.838 629.634 787.107 631.415C794.23 632.408 798.93 638.289 803.878 642.927C795.617 644.065 788.805 649.221 780.875 651.291C771.661 651.271 765.243 643.299 758.058 638.599Z"></path>
<path fill="#FFFFFE" d="M470.384 650.525C477.858 646.86 483.656 640.711 490.219 635.742C487.465 645.846 480.633 655.701 470.28 658.973C463.841 661.354 457.36 658.331 451.356 656.219C457.774 654.645 464.421 653.527 470.384 650.525Z"></path>
<path fill="#FFFFFE" d="M513.575 643.982C520.035 664.604 530.615 683.984 545.481 699.782C562.273 719.555 583.64 735.974 608.382 744.339C635.547 754.029 664.658 755.478 692.341 763.098C692.279 762.435 692.113 761.089 692.051 760.427C694.059 760.51 698.097 760.675 700.105 760.758C697.496 761.731 694.929 762.787 692.444 764.029C718.864 770.282 746.443 781.691 763.11 804.155C750.729 791.733 736.649 780.862 720.106 774.61C723.688 780.676 728.119 786.515 729.817 793.492C732.094 801.816 730.624 810.512 729.63 818.918C726.048 811.899 723.647 804.114 718.346 798.151C711.617 790.428 702.59 785.293 693.479 780.925C695.881 784.589 698.387 788.171 700.871 791.836C665.114 772.311 626.126 759.764 589.21 742.807C570.513 733.821 555.274 719.514 541.485 704.275C547.075 728.106 557.759 750.55 571.797 770.531C590.949 797.861 621.923 815.481 654.741 820.305C661.635 821.692 668.861 822.314 675.156 825.751C676.895 825.668 680.353 825.544 682.092 825.481L680.332 826.103C678.924 826.641 677.578 827.241 676.294 827.966C684.431 836.641 686.854 849.106 682.257 860.162C674.058 851.901 670.994 839.333 676.025 828.546C674.7 827.076 673.313 825.689 671.967 824.322C648.281 821.009 623.766 817.344 603.123 804.404C608.445 813.68 611.053 824.301 609.604 834.985C607.326 826.91 605.732 818.504 601.343 811.237C593.268 797.074 578.878 788.213 569.436 775.106C554.84 755.147 543.162 732.599 537.675 708.375C536.164 702.598 536.391 696.262 533.286 691.024C524.548 676.551 514.01 661.457 513.575 643.982Z"></path>
<path fill="#FFFFFE" d="M611.26 733.345C628.3 732.724 641.986 722.04 657.515 716.657C647.825 731.274 628.031 738.521 611.26 733.345Z"></path>
<path fill="#FFFFFE" d="M530.366 718.251C542.085 735.684 546.475 759.35 537.551 778.916C528.668 759.93 529.745 738.624 530.366 718.251Z"></path>
<path fill="#FFFFFE" d="M632.193 738.686C648.384 736.989 662.733 727.589 679.152 727.278C664.72 738.852 645.403 741.171 627.576 742.765C616.168 743.925 604.801 739.639 596.746 731.605C606.871 739.204 619.853 741.73 632.193 738.686Z"></path>
<path fill="#FFFFFE" d="M519.91 856.187C530.822 857.284 542.023 855.255 552.728 858.133C559.105 859.789 564.302 865.628 564.467 872.357C563.473 875.794 559.084 876.27 556.496 878.237C556.185 882.627 558.504 889.066 552.997 891.095C546.226 893.021 538.835 890.019 534.176 885.049C528.089 878.693 524.279 870.639 520.49 862.854C528.565 866.767 536.35 871.446 545.005 874.014C537.882 866.518 529.145 860.742 519.91 856.187Z"></path>
<path fill="#FFFFFE" d="M177.865 869.417C193.642 862.315 212.194 865.753 227.018 873.662C215.693 872.337 203.456 870.411 192.835 875.815C187.099 877.968 181.509 883 175.049 881.261C170.287 878.093 173.206 870.97 177.865 869.417Z"></path>
<path fill="#FEFEFD" d="M389.428 710.528C388.641 705.29 393.072 701.729 396.053 698.167C395.577 703.344 393.486 709.162 396.488 714.027C400.111 720.177 407.482 723.262 414.46 723.303C429.139 723.924 442.908 718.044 456.242 712.702C443.405 723.075 426.862 729.577 410.194 728.335C400.505 727.775 390.546 720.591 389.428 710.528Z"></path>
<path fill="#FFFEFE" d="M709.276 843.453C712.071 843.329 714.887 843.287 717.724 843.35C728.987 846.766 735.323 857.491 739.65 867.657C727.931 861.818 716.254 854.965 709.276 843.453Z"></path>
<path fill="white" d="M414.915 112.57C417.503 102.591 424.522 94.7022 430.961 87C439.719 94.6401 444.895 106.69 442.018 118.264C440.133 127.064 432.307 132.447 425.536 137.437C429.222 127.726 432.017 117.478 430.505 106.98C426.302 117.063 422.762 127.395 418.787 137.561C415.846 129.652 412.803 121.08 414.915 112.57Z"></path>
<path fill="white" d="M580.74 116.36C579.332 105.697 584.446 95.4682 592.397 88.6149C598.816 96.3379 605.793 104.247 608.257 114.268C610.286 122.509 607.201 130.708 604.489 138.389C600.162 128.679 596.932 118.575 592.811 108.802C591.424 119.217 594.136 129.383 597.739 139.052C589.83 133.71 581.237 126.691 580.74 116.36Z"></path>
<path fill="white" d="M458.333 116.608C464.13 112.384 471.708 114.227 478.375 114.227C474.71 121.536 473.302 130.149 467.691 136.34C463.033 141.288 455.807 140.708 449.637 141.019C434.439 141.06 419.263 150.274 413.217 164.374C407.502 178.681 411.25 195.68 420.919 207.399C436.075 226.903 451.604 246.2 464.606 267.257C485.725 300.426 506.596 335.542 511.544 375.316C515.872 351.691 523.077 328.46 534.899 307.445C552.292 274.214 573.141 242.804 597.159 214.004C604.903 205.059 611.57 194.521 612.087 182.346C614.158 166.279 603.557 150.481 588.67 144.849C579.705 140.232 569.373 142.862 559.952 140.419C549.931 136.008 549.662 123.523 544.175 115.366C550.863 115.676 558.524 113.399 564.383 117.643C571.05 122.405 573.866 130.501 577.634 137.437C588.442 141.537 600.244 145.595 607.201 155.492C616.477 167.811 615.938 184.582 610.886 198.496C618.382 191.953 626.436 185.721 635.898 182.346C651.779 176.631 668.86 176.714 685.507 175.534C693.437 174.975 701.45 173.401 708.469 169.447C698.758 170.917 688.985 171.849 679.171 171.517C686.48 164.229 694.037 156.568 704.079 153.131C718.862 146.568 735.323 152.262 750.562 147.707C742.238 155.595 731.41 159.591 720.891 163.587C727.393 164.167 733.936 164.623 740.458 165.451C731.969 170.938 724.349 178.308 714.514 181.352C704.058 182.988 694.265 176.549 683.768 177.398C657.804 178.06 628.879 182.16 610.514 202.471C579.788 236.613 554.9 275.746 534.92 317.031C548.606 296.844 564.756 277.796 585.73 264.896C620.659 242.1 664.429 232.555 705.57 239.843C739.257 246.096 772.178 262.805 792.965 290.674C816.652 320.22 818.039 364.694 798.473 396.683C790.771 408.878 776.878 417.222 762.322 417.16C751.162 417.015 740.913 412.067 731.12 407.284C726.875 411.611 719.297 413.847 718.552 420.68C717.061 435.443 727.02 449.398 723.128 464.202C721.264 472.877 714.08 478.737 710.021 486.273C706.025 494.928 706.874 506.108 699.027 512.734C692.091 518.842 682.028 517.91 673.809 515.426C650.122 508.427 625.649 503.106 600.845 503.272C578.318 502.941 555.832 508.676 533.367 504.97C554.072 501.098 573.742 493.064 594.467 489.337C608.857 486.584 623.33 490.29 636.85 495.073C625.131 480.869 604.716 480.289 588.173 484.368C607.367 475.589 626.394 462.442 648.528 464.595C661.593 464.906 673.125 471.324 684.741 476.542C675.01 465.051 659.936 460.64 645.546 458.984C658.094 455.982 671.179 452.4 684.12 455.154C690.145 456.52 695.632 459.46 701.367 461.717C686.48 447.389 663.518 446.188 644.553 451.634C656.23 440.143 660.847 423.061 674.119 413.019C681.324 407.305 690.704 406.228 699.421 404.365C682.132 400.41 664.367 404.779 647.617 409.147C637.741 411.736 628.444 416.001 619.334 420.514C636.374 405.897 655.609 394.219 675.817 384.571C646.209 389.395 621.674 408.506 600.389 428.486C585.337 442.607 574.094 459.999 561.029 475.776C569.332 453.414 583.742 434.035 599.292 416.208C582.396 428.362 569.29 444.718 555.004 459.647C545.148 470.31 535.873 481.511 527.963 493.706C537.777 460.93 563.141 435.774 589.395 415.173C630.846 383.515 680.641 359.725 733.522 358.11C741.431 357.965 752.674 358.089 755.634 367.241C757.643 372.293 752.052 375.316 749.092 378.359C741.244 384.55 735.489 392.956 731.72 402.17C738.387 403.64 745.675 405.607 752.239 402.501C769.134 395.089 780.045 376.641 780.17 358.4C780.604 336.991 772.033 316.327 759.817 299.101C753.44 290.384 745.862 281.44 735.033 278.458C726.813 276.118 719.608 271.46 712.278 267.277C718.655 267.671 725.302 268.395 730.851 271.936C742.839 279.038 756.007 284.897 765.531 295.415C781.329 312.414 789.922 336.515 786.712 359.683C783.876 379.084 772.881 396.621 757.27 408.361C773.523 410.68 789.777 401.839 798.017 387.946C806.879 373.017 807.976 354.59 805.036 337.798C798.245 304.898 773.586 277.775 744.04 262.95C690.29 235.992 621.467 243.632 574.115 280.342C549.517 300.757 529.537 327.756 520.655 358.731C515.002 374.736 513.801 391.735 511.462 408.423C509.991 391.134 508.625 373.576 502.703 357.137C498.48 343.368 490.984 330.966 483.468 318.812C465.476 290.343 438.373 267.153 406.322 256.242C373.505 245.165 337.106 243.073 303.874 253.612C274.515 262.66 246.874 280.756 230.993 307.569C217.845 329.102 212.98 356.868 222.421 380.74C229.233 398.215 247.723 410.825 266.75 408.05C255.301 399.499 245.735 388.194 241.118 374.508C230.579 347.695 239.234 316.224 258.303 295.478C268.552 284.235 282.714 278.106 295.696 270.714C300.582 267.795 306.38 267.422 311.928 266.946C304.599 271.605 297.124 276.222 288.697 278.603C279.484 281.295 272.672 288.521 266.937 295.871C252.919 314.278 242.712 336.887 243.768 360.449C244.223 378.069 255.611 394.923 271.637 402.128C278.407 405.379 286.006 403.599 292.983 402.087C289.691 395.172 286.027 388.256 280.436 382.894C276.647 378.918 271.864 375.854 268.8 371.237C268.138 365.543 272.527 360.367 277.931 359.186C288.263 356.971 298.926 358.296 309.299 359.456C367.128 367.075 420.215 397.47 461.314 438.093C477.029 454.16 490.177 473.291 496.616 495.011C485.042 475.175 468.395 459.129 453.177 442.192C444.585 432.917 435.889 423.62 425.515 416.332C441.562 434.283 455.869 454.408 463.985 477.267C448.477 456.417 433.549 434.594 413.051 418.216C394.23 402.273 372.739 388.236 347.955 384.115C367.645 393.391 386.735 404.261 403.009 418.879C388.868 411.901 373.588 407.615 358.163 404.654C347.21 402.729 335.78 401.569 324.869 404.323C334.538 405.938 345.056 407.222 352.613 414.158C364.084 424.676 369.426 439.936 379.758 451.447C360.751 446.023 337.83 447.451 322.985 461.8C330.459 458.777 337.747 454.636 346.009 454.284C357.024 453.145 367.852 456.168 378.391 459.005C363.918 460.351 349.363 465.651 339.445 476.687C348.431 472.981 356.899 467.784 366.548 465.941C379.447 463.477 393.216 464.057 405.37 469.378C415.722 473.788 425.909 478.674 435.93 483.851C419.801 480.393 399.676 480.786 388.599 494.907C399.572 491.222 410.898 487.743 422.658 488.551C445.454 489.917 466.242 500.787 488.603 504.493L488.665 505.094C476.739 506.357 464.731 506.295 452.825 504.949C431.127 502.589 408.993 502.195 387.501 506.481C374.209 508.717 361.268 512.548 348.286 516.067C340.149 518.407 330.252 517.786 324.268 511.119C316.794 503.375 319.134 491.18 312.798 482.815C308.222 476.418 302.301 470.392 301.038 462.297C298.408 448.59 306.876 436.022 306.545 422.481C306.731 414.469 298.098 411.715 293.253 406.973C281.596 413.206 268.448 418.817 254.949 416.477C239.627 413.889 227.266 402.232 220.972 388.422C207.99 359.973 208.818 324.837 225.734 298.169C241.656 273.096 267.516 255.683 295.22 245.993C351.061 226.158 417.503 240.755 459.741 282.392C471.356 293.076 480.28 306.141 489.017 319.185C484.607 307.196 477.733 296.389 471.646 285.249C455.061 255.807 435.267 228.228 413.196 202.678C394.106 182.18 364.892 176.404 338.058 175.431C328.182 174.954 318.865 180.068 309.05 179.075C298.636 176.404 291.099 168.039 282.652 161.931C288.946 161.434 295.282 161.227 301.617 160.854C290.892 156.444 279.525 152.614 271.388 143.918C286.109 149.736 302.425 143.752 317.063 149.901C327.706 153.359 336.339 160.875 343.338 169.405C333.648 169.82 324.041 168.536 314.517 167.024C321.266 170.461 328.575 172.78 336.153 173.422C353.607 175.203 371.662 175.368 388.164 182.035C397.108 185.514 404.583 191.705 411.788 197.895C406.591 183.05 406.239 164.726 417.42 152.469C424.418 143.938 435.392 141.205 444.916 136.692C449.802 130.294 451.5 121.494 458.333 116.608ZM446.779 137.789C450.548 137.002 454.999 137.623 458.478 135.553C461.024 133.42 461.687 129.963 462.991 127.085C457.525 130.542 452.142 134.145 446.779 137.789ZM559.145 128.803C562.002 136.029 569.083 138.969 576.496 138.597C570.822 135.139 565.108 131.743 559.145 128.803Z"></path>
<path fill="white" d="M362.946 126.277C373.319 131.495 384.665 139.176 386.487 151.62C387.978 159.84 381.394 165.989 375.969 171.02C376.487 164.271 377.025 157.521 376.507 150.771C375.244 156.879 374.706 163.132 373.753 169.302C368.122 163.794 363.049 157.334 361.061 149.591C358.949 141.826 361.227 133.876 362.946 126.277Z"></path>
<path fill="white" d="M637.202 150.316C639.066 139.176 648.963 132.344 658.301 127.561C659.854 136.775 662.607 146.34 660.268 155.678C658.446 162.697 652.752 167.604 647.658 172.325C647.099 165.285 646.996 158.225 646.623 151.185C644.863 158.308 645.112 165.699 645.091 173.008C639.438 166.962 635.153 158.784 637.202 150.316Z"></path>
<path fill="white" d="M508.045 150.398C511.42 147.023 514.609 142.075 520.095 142.634C524.837 146.05 525.893 152.386 526.038 157.852C526.162 169.198 519.474 178.805 514.816 188.661C514.588 179.24 514.05 169.323 508.853 161.165C507.776 170.296 508.48 179.509 508.418 188.702C500.84 178.536 493.945 166.859 494.152 153.773C493.862 149.529 496.885 146.257 498.956 142.903C502.02 145.326 505.064 147.831 508.045 150.398Z"></path>
<path fill="white" d="M92.3325 150.937C97.6744 152.51 104.031 153.483 107.447 158.432C109.994 161.538 109.683 165.741 110.118 169.509C108.13 166.258 105.977 163.132 103.824 160.026C104.548 163.815 105.377 167.625 106.101 171.455L104.693 171.372C97.4673 167.045 94.5479 158.597 92.3325 150.937Z"></path>
<path fill="white" d="M467.505 163.111C473.095 159.943 480.321 162.055 485.27 165.616C493.924 172.428 498.293 182.905 503.573 192.264C495.726 186.839 487.382 181.973 478.189 179.261C484.048 185.969 491.771 190.545 499.246 195.224C489.659 195.162 479.949 196.405 470.466 194.748C463.592 193.651 457.649 187.564 457.877 180.42C460.072 177.708 463.53 176.631 466.49 174.975C466.573 171.041 464.71 166.465 467.505 163.111Z"></path>
<path fill="white" d="M535.727 167.128C540.8 163.484 547.778 160.254 553.927 163.173C555.48 166.755 554.818 170.793 555.107 174.623C557.675 176.01 560.884 176.714 562.872 179.075C565.129 183.795 561.774 188.971 557.551 191.125C547.053 196.777 534.775 197.026 523.18 197.688C530.613 193.071 538.688 188.702 543.326 180.917C534.547 181.476 527.735 187.356 520.365 191.353C523.967 182.512 527.653 172.904 535.727 167.128Z"></path>
<path fill="white" d="M228.571 176.901C239.006 174.851 248.634 180.379 258.137 183.733C249.255 187.212 239.896 189.158 230.889 192.222C240.621 193.734 250.456 192.409 259.814 189.531C255.342 194.624 250.787 200.131 244.286 202.657C228.819 209.387 209.087 203.072 200.743 188.288C209.998 184.437 218.674 178.971 228.571 176.901Z"></path>
<path fill="white" d="M112.478 192.222C116.661 211.291 125.398 229.098 136.703 244.937C140.347 250.155 144.964 254.606 149.996 258.519C149.147 254.088 148.836 249.43 146.621 245.455C138.525 231.748 128.483 219.118 121.858 204.604C131.216 204.148 137.531 210.981 143.826 216.737C147.366 215.495 150.638 213.631 154.075 212.099C153.371 219.573 152.17 226.986 151.3 234.46C148.878 230.402 146.497 226.365 143.722 222.555C146.29 229.76 149.312 236.821 151.155 244.295C153.888 231.81 159.644 219.201 170.763 212.078C177.616 207.006 186.188 205.391 194.573 205.536C188.672 212.058 182.212 218.704 180.038 227.524C178.196 232.245 178.154 239.036 172.316 240.713C165.462 243.322 157.719 246.345 156.663 254.751C154.613 246.158 159.478 238.456 162.419 230.775C156.269 236.51 150.286 243.902 151.321 252.888C150.493 257.67 154.406 260.673 157.781 263.219C171.446 274.897 189.853 280.114 207.659 279.1C215.61 278.665 223.208 276.056 231.055 274.814C216.624 286.968 196.271 285.436 179.707 279.059C168.92 274.441 156.518 273.965 145.441 277.796C135.73 281.688 132.852 293.138 124.715 298.935C119.953 302.103 113.514 301.026 109.124 297.755C108.689 295.291 108.379 292.827 108.192 290.363C100.946 295.146 92.4981 298.149 83.7192 296.616C94.0303 281.833 111.671 273.903 129.187 272.04C139.685 270.942 150.203 272.868 160.741 272.164C148.463 263.551 136.807 253.529 129.187 240.423C120.636 225.619 114.652 209.2 112.478 192.222ZM122.251 287.299C131.299 282.392 140.099 276.926 149.934 273.655C139.105 273.033 128.442 278.458 122.251 287.299Z"></path>
<path fill="white" d="M504.091 196.881C506.782 195.245 509.495 193.651 512.228 192.015C514.215 194.396 516.286 196.777 517.549 199.717C515.83 201.25 514.008 202.637 512.083 203.9C507.693 204.086 506.265 199.717 504.091 196.881Z"></path>
<path fill="white" d="M464.13 207.15C476.47 200.214 491.046 200.421 504.732 199.158C494.339 203.154 483.551 208.807 478.437 219.304C486.988 217.213 493.738 211.374 501.15 207.005C497.838 215.971 493.924 225.371 485.994 231.272C480.922 235.04 473.716 238.56 467.629 234.999C465.911 231.541 466.718 227.524 466.49 223.859C463.509 222.099 458.892 221.665 458.084 217.689C456.449 213.155 460.527 209.18 464.13 207.15Z"></path>
<path fill="white" d="M519.495 201.726C530.551 202.595 541.981 200.67 552.789 203.9C558.648 205.763 564.673 211.105 563.783 217.834C562.23 221.105 558.172 221.954 555.377 223.901C555.729 228.828 556.226 236.696 549.248 236.717C532.477 237.897 525.479 219.884 518.895 207.709C526.99 212.161 534.962 217.006 543.844 219.801C537.239 211.954 528.315 206.633 519.495 201.726Z"></path>
<path fill="white" d="M495.664 238.228C496.243 227.213 503.407 218.269 506.741 208.082C507.072 218.29 506.182 229.967 513.097 238.353C513.905 228.539 512.932 218.724 512.89 208.91C520.944 219.801 528.419 232.555 527.674 246.593C527.653 250.693 523.905 253.032 521.255 255.558C518.895 253.405 516.534 251.231 514.215 249.099C510.571 252.163 506.575 258.623 500.985 255.869C496.016 251.562 495.229 244.357 495.664 238.228Z"></path>
<path fill="white" d="M879.822 217.751C885.433 211.623 892.1 205.701 900.962 205.556C897.67 212.968 892.991 219.615 889.015 226.654C883.487 236.531 874.687 245.04 873.776 256.946C868.393 245.806 876.509 233.984 879.698 223.217C876.675 227.068 874.46 231.458 872.762 236.054C871.209 228.228 869.677 220.36 869.408 212.368C872.886 214.066 876.364 215.888 879.822 217.751Z"></path>
<path fill="white" d="M887.814 267.816C896.428 259.078 908.768 254.937 920.901 257.049C913.488 267.754 899.471 267.774 887.814 267.816Z"></path>
<path fill="white" d="M520.427 320.986C513.532 300.53 523.284 278.541 536.328 262.785C543.14 284.048 526.783 301.958 520.427 320.986Z"></path>
<path fill="white" d="M503.138 320.944C495.954 302.082 480.239 284.11 485.995 262.66C499.556 278.272 508.915 300.198 503.138 320.944Z"></path>
<path fill="white" d="M851.664 338.937C855.515 338.44 860.008 337.508 863.466 339.993C866.219 344.776 868.787 349.704 871.727 354.424C872.037 358.296 871.251 362.147 870.961 366.019C869.636 364.404 866.985 361.153 865.66 359.518C865.888 361.568 866.344 365.646 866.571 367.696C859.573 359.497 853.672 349.559 851.664 338.937Z"></path>
<path fill="white" d="M159.437 371.382C165.752 360.263 174.572 349.642 186.995 345.314C189.728 344.693 194.656 344.258 194.511 348.441C193.703 352.706 191.633 356.578 189.997 360.574C194.283 360.449 198.59 360.367 202.917 360.387C199.107 366.599 195.256 374.032 187.823 376.434C181.073 378.276 174.365 375.047 167.822 373.763C172.75 371.133 177.719 368.483 181.943 364.756C174.613 367.51 167.243 370.346 159.437 371.382Z"></path>
<path fill="white" d="M107.923 367.717C116.122 367.033 124.797 365.398 132.645 368.793C139.829 371.526 146.848 377.386 147.842 385.44C148.049 391.962 144.508 397.822 143.68 404.199C143.784 409.81 148.546 413.702 151.486 418.03C138.815 415.421 130.243 405.731 122.127 396.497C124.86 402.232 128.504 407.47 131.671 412.978C125.336 409.396 119.207 404.509 116.93 397.304C113.7 387.511 112.354 377.137 107.923 367.717Z"></path>
<path fill="white" d="M880.671 377.386C889.284 366.185 904.564 365.626 917.36 367.779C911.128 377.386 911.169 389.188 906.759 399.478C903.964 406.29 897.421 410.369 891.417 414.013C897.028 406.559 902.515 398.816 905.331 389.809C900.548 397.242 896.034 405.151 889.015 410.762C883.984 414.965 877.524 416.663 871.437 418.692C868.766 433.165 862.989 448.445 850.131 456.81C849.282 458.549 848.475 460.309 847.688 462.111C848.661 464.885 849.697 467.659 850.38 470.579C848.537 474.989 843.257 476.024 839.034 476.5C827.874 477.184 816.983 473.933 805.885 473.54C815.989 471.324 826.259 467.721 833.609 460.102C824.064 461.841 815.389 466.417 806.03 468.798C812.034 460.847 816.962 452.069 823.691 444.698C829.033 439.107 836.984 437.596 844.438 437.762C844.023 442.606 843.464 447.472 842.843 452.317C848.371 451.737 854.666 451.178 858.082 446.085C866.695 436.416 869.159 423.061 869.097 410.472C863.962 411.632 858.434 413.475 853.341 411.301C843.713 407.864 838.682 398.422 833.526 390.347C840.835 386.972 846.963 381.548 854.252 378.194C862.471 375.088 870.277 382.107 872.265 389.768C877.048 399.395 869.118 408.982 870.878 418.961C875.826 414.8 882.369 409.209 880.319 401.88C878.435 393.909 874.667 384.571 880.671 377.386Z"></path>
<path fill="white" d="M150.782 401.818C148.298 391.072 157.18 373.99 170.1 378.131C177.367 381.403 183.434 386.869 190.784 390.078C185.773 398.132 180.825 407.491 171.404 411.032C166.145 413.392 160.493 411.591 155.317 410.162C155.213 423.558 157.739 438.321 168.009 447.866C171.632 451.717 177.243 451.489 182.067 452.421C181.343 447.431 180.825 442.441 180.659 437.43C188.175 437.782 196.395 439.045 201.696 444.967C208.57 452.628 213.766 461.614 219.978 469.813C210.557 466.479 201.551 461.821 191.612 460.226C198.279 467.183 207.845 469.709 216.541 473.126C204.056 473.974 190.867 479.44 178.692 474.492C173.123 472.504 174.717 466.251 177.015 462.38C176.518 461.055 175.504 458.404 174.986 457.079C164.323 450.951 158.257 439.356 154.82 427.968C152.024 419.396 154.695 410.079 150.782 401.818Z"></path>
<path fill="white" d="M354.726 408.505C372.573 413.454 390.856 418.216 406.467 428.61C431.769 443.58 448.374 468.425 467.609 489.855C446.821 484.099 427.317 474.492 408.683 463.746C392.781 454.967 378.971 442.337 369.385 426.871C365.327 420.121 360.958 413.433 354.726 408.505Z"></path>
<path fill="white" d="M610.037 433.993C627.844 420.68 649.335 413.909 670.641 408.505C660.619 415.131 656.623 426.974 649.149 435.877C636.56 452.835 617.822 463.539 599.374 473.001C585.833 480.041 571.609 485.735 556.971 490C574.508 471.221 588.691 448.963 610.037 433.993Z"></path>
<path fill="white" d="M212.69 423.351C213.725 420.97 214.491 417.098 217.846 417.243C221.759 419.003 223.829 422.937 226.21 426.312C227.639 423.765 229.006 421.198 230.786 418.899C236.749 417.222 240.31 424.034 241.014 428.941C242.36 442.047 236.107 454.346 229.875 465.444C229.565 465.568 228.964 465.796 228.674 465.899C227.784 457.514 228.529 449.046 227.37 440.702C223.726 448.776 223.457 457.762 222.877 466.479C213.146 454.574 208.404 438.403 212.69 423.351Z"></path>
<path fill="white" d="M783.524 429.335C784.29 424.717 787.106 417.491 792.986 419.106C795.118 421.094 796.754 423.537 798.597 425.877C801.061 422.357 802.883 417.222 807.997 417.057C813.836 423.724 813.712 433.434 813.153 441.778C812.531 451.075 807.376 459.067 802.345 466.603C801.848 458.032 801.33 449.336 797.997 441.323C796.527 449.936 797.023 458.694 797.375 467.37C799.115 468.798 800.812 470.31 802.469 471.925C796.547 486.315 801.206 503.023 794.642 517.351C791.64 522.755 784.952 525.902 778.907 524.515C775.801 523.438 775.884 519.256 774.289 516.958C758.264 526.772 741.079 534.702 723.21 540.437C733.998 543.274 745.385 548.574 750.189 559.341C753.357 565.821 751.7 573.234 748.139 579.176C748.574 583.151 751.038 588.493 747.062 591.495C743.315 595.347 736.896 592.676 734.805 588.39C734.474 580.957 743.418 579.839 747.559 575.553C753.108 561.887 740.582 547.891 727.538 545.406C714.017 543.377 700.435 546.959 687.764 551.431C690.414 562.861 691.78 574.787 697.184 585.387C699.255 590.336 702.899 596.568 698.965 601.579C693.354 607.811 684.14 611.062 681.366 619.613C678.612 629.261 683.933 639.117 690.393 646.032C702.381 658.662 718.283 666.571 734.163 673.156C720.581 670.857 707.682 665.826 695.632 659.283C683.809 652.865 670.061 647.606 656.479 650.96C649.501 652.368 644.346 657.689 637.927 660.318C624.138 661.105 618.133 644.044 604.82 643.051C596.289 642.657 587.159 645.514 579.229 641.166C565.273 635.307 558.027 619.302 560.242 604.726C555.294 597.541 556.081 588.307 553.637 580.232C549.6 561.453 539.641 543.874 524.899 531.472C521.11 529.629 520.634 535.779 518.75 537.828C516.058 544.35 506.037 542.135 504.236 536.048C501.979 530.954 505.664 526.275 508.149 522.155C505.374 519.173 501.544 516.357 501.627 511.864C500.964 504.183 506.492 498.013 509.163 491.263C510.985 491.201 512.828 491.159 514.691 491.201C517.756 497.806 522.994 504.059 522.621 511.761C522.808 516.212 519.081 519.049 516.431 522.03C517.238 523.811 518.046 525.612 518.874 527.434C526.514 527.973 531.028 534.474 536.307 539.174C552.975 555.407 561.402 579.321 559 602.469L561.236 602.676C562.54 594.456 564.404 586.257 564.362 577.913C564.28 569.672 561.381 561.908 559.414 554.02C575.025 573.834 585.274 600.44 578.607 625.679C584.674 618.681 587.428 609.736 587.552 600.543C596.538 612.594 609.375 620.627 622.605 627.294C623.247 621.228 623.475 615.161 623.434 609.095C631.964 611.786 640.846 613.194 649.77 613.815C634.076 599.715 627.947 578.513 613.371 563.523C630.804 569.258 649.977 572.799 664.202 585.222C668.674 589.321 671.924 594.539 675.9 599.136C671.614 585.429 660.06 575.635 647.824 569.051C655.298 567.498 662.359 564.165 667.494 558.388C644.097 568.968 618.816 559.009 596.641 550.251C613.412 553.316 632.585 554.33 646.706 543.067C637.616 544.723 628.734 547.87 619.396 548.057C599.437 548.761 580.264 541.514 562.913 532.259C579.208 530.789 595.006 525.861 611.321 524.764C619.707 523.915 627.471 527.372 635.049 530.457C623.723 519.567 606.849 519.546 592.314 521.865C574.197 524.991 555.107 525.385 537.674 518.821C546.991 518.78 556.329 519.463 565.646 518.842C584.363 517.848 602.874 512.61 621.715 514.887C645.857 517.662 669.854 528.325 685.445 547.456C700.539 542.963 716.026 539.671 730.664 533.687C742.155 529.194 753.191 523.687 764.206 518.159C762.819 514.142 763.626 510.042 765.034 506.191C761.452 504.887 755.427 506.005 754.371 501.263C754.289 494.389 759.258 488.737 764.579 485.031C772.488 479.523 782.364 478.819 791.474 476.645C784.476 483.147 778.41 490.704 774.476 499.462C779.859 495.383 784.89 490.89 790.17 486.666C787.872 492.609 785.242 498.427 783.089 504.452C790.232 497.764 796.278 488.737 795.926 478.571C794.767 476.211 793.421 474.037 792.158 471.821C793.297 470.972 795.595 469.254 796.733 468.405C790.895 456.003 782.385 443.683 783.524 429.335Z"></path>
<path fill="white" d="M867.793 449.294C874.853 442.358 881.603 432.358 892.701 432.73C903.82 433.973 914.938 437.844 926.16 434.387C918.851 448.714 902.991 458.673 886.697 456.292C881.293 455.174 874.356 454.118 872.203 448.176C871.106 448.466 868.911 449.025 867.793 449.294Z"></path>
<path fill="white" d="M255.839 437.968C259.794 436.084 267.082 434.035 269.132 439.521C268.925 445.112 265.446 449.812 262.9 454.574C268.221 453.124 275.302 448.983 279.981 454.015C282.507 458.197 276.068 460.661 273.583 462.876C275.385 465.547 279.256 468.032 277.289 471.718C274.474 475.175 269.794 476.418 265.508 476.376C256.274 476.335 247.329 473.747 238.344 471.966C245.942 469.295 253.624 466.479 260.042 461.448C250.953 461.8 242.36 464.698 233.871 467.639C240.228 457.224 244.555 444.138 255.839 437.968Z"></path>
<path fill="white" d="M756.835 437.347C763.916 434.159 771.743 438.3 776.525 443.621C782.965 450.93 787.064 459.874 792.033 468.177C783.399 465.154 774.765 461.262 765.386 462.09C771.929 466.086 779.155 468.736 786.195 471.78C774.724 473.974 761.846 479.544 750.624 474.099C744.536 471.283 748.802 466.21 751.783 462.794C748.843 460.765 745.696 458.818 743.853 455.692C747.828 448.59 756.566 452.503 762.384 454.491C759.734 449.232 753.916 443.662 756.835 437.347Z"></path>
<path fill="white" d="M222.297 470.144C224.098 469.751 225.9 469.399 227.742 469.088C229.15 469.689 231.925 470.91 233.333 471.531C231.738 473.809 230.144 476.107 228.55 478.405C230.848 488.116 234.823 497.723 242.567 504.411C240.31 498.323 237.639 492.402 235.486 486.273C240.6 490.621 245.445 495.238 250.766 499.338C246.853 490.476 240.89 482.671 233.602 476.335C244.741 478.675 257.309 479.979 265.508 488.882C268.779 492.63 272.403 498.22 269.918 503.293C267.082 505.342 263.396 505.404 260.145 506.295C261.367 510.063 261.657 513.997 260.85 517.931C285.716 531.12 312.094 541.493 339.652 547.498C356.092 526.979 382.387 516.109 408.206 514.494C424.998 513.148 441.458 517.538 458.146 518.593C467.836 519.442 477.568 519.07 487.278 518.904C476.574 522.631 465.228 524.432 453.881 523.956C437.276 523.708 420.546 517.745 404.024 522.217C398.102 523.48 393.195 527.207 389.013 531.431C397.874 525.964 408.268 523.356 418.662 525.033C433.259 526.793 447.483 530.872 462.163 532.114C445.04 541.452 426.054 548.616 406.281 547.994C396.819 547.87 387.833 544.765 378.681 542.963C391.787 553.937 409.676 552.632 425.619 551.432C404.086 560.065 379.157 568.679 356.734 557.933C362.159 563.999 369.633 567.478 377.563 568.927C365.471 575.076 354.187 584.477 349.549 597.624C354.601 592.448 358.784 586.319 364.809 582.158C378.391 572.406 395.017 568.803 410.67 563.792C396.446 578.907 390.048 599.757 374.457 613.753C383.609 613.008 392.802 611.973 401.518 608.97C400.814 615.223 400.959 621.559 401.726 627.833C414.749 620.565 428.166 613.029 436.945 600.523C437.09 609.55 439.657 618.495 445.661 625.431C439.326 599.633 450.134 572.82 465.869 552.57C459.741 566.484 459.244 581.764 461.625 596.589C462.536 596.796 464.379 597.21 465.29 597.417C463.882 570.024 478.479 542.59 501.854 528.325C493.407 537.352 484.442 546.173 478.893 557.395C471.584 572.302 467.961 588.866 467.174 605.409C466.987 603.38 466.635 599.322 466.449 597.293C465.393 598.597 464.379 599.964 463.405 601.351C467.836 616.838 460.113 635.224 444.895 641.374C436.696 645.701 427.42 642.45 418.724 643.092C407.668 644.914 402.036 656.53 391.684 659.884C384.934 662.182 380.089 655.743 374.499 653.279C360.502 646.363 344.104 651.063 331.122 658.124C318.305 665.246 304.537 671.002 289.898 672.949C306.214 666.468 322.364 658.269 334.642 645.411C340.874 638.661 346.174 629.158 343.503 619.737C340.563 610.855 330.625 607.811 325.345 600.813C322.136 595.533 326.028 589.777 328.037 584.891C333.337 574.497 334.683 562.84 337.416 551.659C320.687 546.172 299.63 539.091 284.184 551.287C275.86 556.96 273.604 568.016 277.144 577.126C282.113 578.969 288.553 580.708 290.064 586.63C289.65 592.51 280.933 595.719 277.02 591.185C273.852 587.934 275.985 583.151 276.005 579.259C271.989 572.903 270.581 564.703 274.225 557.85C279.132 547.974 290.064 543.854 299.65 540.002C283.066 533.335 266.481 526.441 251.263 516.958C249.565 519.712 249.213 525.053 244.803 524.826C236.128 525.882 228.363 518.449 228.301 509.877C225.423 496.75 228.446 482.443 222.297 470.144Z"></path>
<path fill="white" d="M504.215 476.811C504.629 470.454 514.484 466.914 518.108 472.691C522.58 477.991 518.273 484.534 515.416 489.42C512.994 489.172 510.592 488.903 508.211 488.633C506.472 484.865 503.594 481.18 504.215 476.811Z"></path>
<path fill="white" d="M191.24 489.255C198.859 480.372 211.054 478.84 221.8 476.376C213.601 482.546 206.623 490.435 202.731 500.042C208.28 495.611 213.373 490.642 218.736 486.004C216.231 492.133 213.394 498.137 211.323 504.452C215.547 500.353 218.922 495.508 221.986 490.518C221.717 499.586 224.057 509.504 219.833 517.993C216.417 524.764 207.7 522.113 201.758 521.451C198.548 518.635 199.17 513.894 198.383 510.125C194.242 511.057 188.589 513.293 185.898 508.593C182.834 501.947 186.892 494.327 191.24 489.255Z"></path>
<path fill="white" d="M803.069 476.5C814.829 479.171 828.619 481.035 835.886 491.988C839.22 496.957 842.823 505.28 837.481 510.125C834.665 513.417 830.482 510.726 827.045 510.353C825.845 514.101 826.383 519.442 822.552 521.699C816.879 522.155 808.411 524.639 805.45 517.993C801.889 509.566 803.815 500.001 803.504 491.118C806.9 495.88 810.419 500.58 814.519 504.804C812.469 498.593 809.798 492.65 807.5 486.584C812.386 490.911 817.066 495.528 822.076 499.752C818.308 490.186 810.999 482.733 803.069 476.5Z"></path>
<path fill="white" d="M139.312 520.54C144.012 515.529 148.836 509.835 155.855 508.241C167.636 505.032 179.169 510.705 189.852 515.012C182.44 517.206 174.924 519.028 167.615 521.575C174.966 520.912 182.15 519.256 189.252 517.289C185.629 524.888 181.467 534.391 172.067 535.799C158.919 538.056 149.292 527.062 139.312 520.54Z"></path>
<path fill="white" d="M427.027 556.98C442.804 547.725 459.575 540.065 476.946 534.309C467.215 544.123 457.629 554.247 449.989 565.821C442.866 576.402 439.346 588.99 431.541 599.177C424.128 609.778 413.941 617.977 403.444 625.369C404.21 615.782 406.943 606.341 412.741 598.556C404.21 604.705 394.044 607.749 383.878 609.881C399.365 593.131 406.943 569.403 427.027 556.98Z"></path>
<path fill="white" d="M547.115 534.288C565.48 540.313 583.39 548.098 599.809 558.368C618.671 570.853 625.939 593.524 640.784 609.716C631.094 607.687 621.322 605.036 613.267 599.032C618.03 606.796 620.183 615.72 620.659 624.789C609.665 617.418 599.354 608.68 592.003 597.541C584.798 587.541 581.506 575.366 574.342 565.345C566.392 554.061 556.929 543.936 547.115 534.288Z"></path>
<path fill="white" d="M203.518 551.369C213.808 542.901 227.246 538.16 240.6 538.45C250.166 538.615 258.862 542.984 267.806 545.862C261.616 547.332 255.363 548.843 249.71 551.784C237.06 558.078 228.819 570.749 215.609 576.153C205.899 580.77 194.905 580.17 184.49 579.197C190.308 569.61 194.677 558.699 203.518 551.369ZM242.215 546.566C235.279 549.589 231.242 556.339 225.879 561.308C220.993 565.842 214.222 567.25 208.28 569.818C213.063 570.19 218.115 570.459 222.566 568.265C230.869 564.579 235.61 556.339 242.65 550.955C248.075 546.607 255.425 547.125 261.885 545.696C255.384 544.558 248.406 543.812 242.215 546.566Z"></path>
<path fill="white" d="M222.504 586.837C234.202 570.811 249.254 556.359 268.034 549.113C243.747 562.115 223.891 583.4 213.725 609.115C207.472 624.085 204.718 640.173 203.331 656.26C204.511 656.323 206.892 656.447 208.093 656.529C207.016 656.695 204.863 657.047 203.786 657.213C201.902 687.732 210.971 720.632 234.306 741.544C257.744 761.938 291.14 767.694 321.08 762.042C321.494 761.586 322.363 760.717 322.798 760.261C327.457 761.027 332.136 763.387 336.94 762.021C361.951 756.017 387.667 753.139 412.306 745.623C437.4 738.086 459.409 722.164 476.325 702.37C489.597 687.835 500.902 671.189 507.507 652.554C510.757 643.589 510.467 633.941 512.145 624.665C513.18 630.586 513.635 636.611 514.153 642.616C508.521 654.521 505.271 667.482 498.148 678.704C494.794 685.144 488.872 690.486 487.754 697.939C484.007 723.034 473.054 746.513 459.306 767.632C452.245 778.895 442.783 788.316 433.093 797.302C422.596 807.22 416.695 820.989 415.039 835.192C412.802 824.281 415.618 813.348 420.981 803.824C399.551 817.013 374.208 822.252 349.383 823.949C362.862 820.968 376.693 819.374 389.861 815.026C413.175 807.903 434.48 793.699 449.036 774.03C464.337 753.449 475.663 729.846 481.812 704.938C472.081 715.29 462.494 725.994 450.568 733.883C435.143 744.836 416.778 750.095 399.696 757.756C375.513 767.446 351.475 777.467 327.871 788.482C329.134 785.728 330.418 782.995 331.722 780.283C321.887 784.569 311.079 788.192 303.77 796.453C298.408 802.975 296.399 811.381 292.859 818.897C291.513 812.479 290.271 805.895 291.058 799.352C291.782 791.608 295.696 784.776 298.946 777.902C285.799 782.457 274.659 791.339 265.384 801.505C262.009 805.315 258.613 809.332 256.977 814.239C252.733 826.434 257.516 840.223 251.408 851.963C247.37 858.734 239.896 862.316 234.595 867.947C233.664 860.638 225.299 856.932 225.547 849.354C225.547 838.215 235.009 830.782 243.291 824.964C252.961 818.67 257.888 807.924 265.177 799.393C279.67 781.649 301.617 772.042 323.212 766.017C318.243 762.87 312.425 764.692 306.98 764.961C276.067 768.005 242.65 757.114 222.773 732.454C207.762 714.855 201.281 691.707 199.977 668.994C193.765 660.733 187.72 651.291 177.74 647.295C169.561 645.245 159.478 649.718 152.666 643.299C148.794 640.463 152.169 636.446 153.122 633.029C142.189 629.427 133.618 621.31 127.903 611.517C139.912 608.618 152.438 611.269 162.812 617.811C162.853 616.259 162.936 613.173 162.977 611.621C168.754 611.662 174.8 612.573 179.251 616.59C190.929 625.659 193.206 641.187 198.051 654.252C191.219 644.521 182.233 636.073 170.969 631.829C181.342 641.498 193.579 649.718 200.205 662.72C200.101 636.011 206.602 608.681 222.504 586.837ZM325.159 766.286C326.07 765.624 327.912 764.299 328.844 763.636C327.788 763.098 325.656 761.98 324.579 761.421C322.757 763.429 322.943 765.044 325.159 766.286Z"></path>
<path fill="white" d="M759.941 550.769C783.938 562.343 802.593 583.669 813.36 607.811C821.538 625.783 823.67 645.618 825.327 665.06C830.255 651.871 841.311 642.492 852.512 634.644C852.595 634.003 852.74 632.74 852.823 632.118C841.435 637.502 832.325 646.446 826.155 657.358C830.959 643.506 833.526 627.418 845.141 617.314C849.717 612.987 856.012 611.6 862.161 612.159C862.14 614.271 862.161 616.403 862.202 618.577C872.368 611.207 885.35 609.053 897.546 611.683C891.831 621.787 882.99 629.862 871.913 633.609C872.638 636.57 875.516 640.048 872.762 642.864C864.459 652.078 850.235 642.616 841.27 650.649C832.988 657.482 823.753 666.074 823.505 677.607C821.414 700.59 811.807 723.116 794.974 739.142C771.142 763.325 734.06 770.137 701.719 762.911C712.837 762.394 723.894 765.768 735.033 763.946C757.104 761.69 779.051 752.869 794.559 736.616C812.738 717.733 820.896 690.962 820.772 665.143C821.434 633.961 811.62 602.158 791.661 577.954C782.903 566.96 771.536 558.513 759.941 550.769Z"></path>
<path fill="white" d="M508.398 561.846C516.555 556.442 525.438 568.037 521.959 575.801C520.427 581.888 513.387 583.607 508.066 581.785C500.985 577.375 501.027 565.925 508.398 561.846Z"></path>
<path fill="white" d="M501.606 588.472C504.07 580.211 515.044 585.015 521.4 583.131C523.947 587.851 526.183 593.235 524.547 598.701C522.663 606.838 511.4 611.082 504.857 605.74C499.826 601.579 499.515 594.187 501.606 588.472Z"></path>
<path fill="white" d="M267.496 671.893C276.668 679.305 287.704 684.026 296.628 691.749C305.904 699.72 310.935 711.253 315.138 722.454C301.141 721.874 284.805 721.17 275.033 709.596C265.84 699.347 265.86 684.73 267.496 671.893ZM289.443 704.234C295.261 712.971 304.454 719.39 314.765 721.564C307.27 714.545 298.595 708.83 289.443 704.234Z"></path>
<path fill="white" d="M728.407 691.272C737.207 684.026 747.808 679.367 756.566 672.038C758.45 685.289 758.077 700.548 748.284 710.839C738.035 721.046 722.486 722.847 708.696 722.35C714.142 711.398 718.697 699.285 728.407 691.272ZM709.379 721.646C719.483 719.576 729.277 713.799 734.391 704.606C725.384 709.224 717.206 715.269 709.379 721.646Z"></path>
<path fill="white" d="M858.766 714.234C861.292 714.213 863.859 714.213 866.447 714.234C866.737 715.332 867.337 717.526 867.648 718.624C863.59 718.686 859.573 718.706 855.556 718.499C858.352 727.113 864.874 739.018 856.302 746.327C856.177 749.433 857.648 753.263 854.997 755.727C852.968 758.253 849.096 757.218 846.363 758.066C847.067 760.51 848.04 763.015 848.434 765.624C846.964 768.874 843.216 770.013 840.462 771.897C838.309 775.852 836.632 782.829 830.566 781.214C818.081 776.597 813.36 761.98 801.517 756.389C795.926 753.284 789.404 754.422 783.379 754.857C786.899 753.097 790.274 750.882 794.146 749.971C806.962 748.19 819.178 752.559 830.379 758.315C821.559 749.515 809.157 747.196 797.583 744.256C809.281 737.962 822.429 735.933 835.514 735.105C825.576 732.123 815.058 732.247 805.078 734.877C815.886 725.332 828.288 716.739 842.968 714.876C847.192 714.648 853.651 712.205 855.743 717.692C856.736 716.512 857.73 715.352 858.766 714.234Z"></path>
<path fill="white" d="M168.299 746.244C159.334 737.486 167.284 724.11 169.893 714.048C178.506 714.13 187.244 715.021 195.277 718.375C204.698 721.833 212.007 728.914 220.04 734.628C209.667 731.605 198.714 731.75 188.279 734.297C202.338 736.16 217.349 737.051 229.047 746.119C216.686 746.513 204.18 749.577 194.573 757.714C207.638 749.308 224.533 745.374 239.006 752.869C233.83 753.594 228.467 753.718 223.519 755.54C211.22 760.571 206.955 775.707 194.47 780.386C186.457 783.098 186.043 771.586 180.163 768.895C175.545 766.721 176.146 761.772 176.767 757.549C174.489 757.3 172.253 756.907 170.059 756.43C166.849 753.904 167.926 749.66 168.299 746.244Z"></path>
<path fill="white" d="M485.373 779.434C477.485 759.516 481.087 736.409 492.537 718.624C493.034 738.997 495.105 760.654 485.373 779.434Z"></path>
<path fill="white" d="M283.48 739.825C289.463 736.409 295.654 732.827 302.611 732.04C310.686 731.046 318.554 733.717 326.111 736.181C313.274 743.614 297.207 747.217 283.48 739.825Z"></path>
<path fill="white" d="M508.728 805.211C511.896 801.65 514.795 796.702 520.199 796.722C525.499 799.724 526.824 806.391 527.094 812.002C527.238 823.225 521.172 833.039 516.41 842.77C515.395 833.763 515.312 823.929 509.743 816.309C509.08 825.502 509.556 834.716 509.349 843.929C501.419 833.536 494.649 821.258 494.959 807.82C494.959 803.928 497.527 800.76 499.245 797.509C502.475 799.932 505.643 802.52 508.728 805.211Z"></path>
<path fill="white" d="M579.436 796.826C586.207 807.095 591.569 821.444 584.157 832.811C582.128 836.952 574.778 838.194 573.473 832.852C575.13 827.221 578.463 822.148 579.353 816.309C580.244 809.829 579.478 803.286 579.436 796.826Z"></path>
<path fill="white" d="M673.167 818.38C673.954 807.613 685.652 803.162 693.582 798.193C691.449 804.301 690.083 811.092 685.714 816.102C682.629 819.622 677.246 820.678 673.167 818.38Z"></path>
<path fill="white" d="M763.047 804.093C768.409 811.382 773.047 819.581 780.77 824.736C788.68 830.306 797.665 836.952 798.887 847.367C799.819 852.315 796.754 856.601 794.518 860.742C794.001 859.293 792.986 856.373 792.468 854.903C792.054 859.293 791.35 863.661 790.709 868.072C782.447 861.198 771.122 855.069 770.397 842.998C769.59 829.747 770.211 815.916 763.047 804.093Z"></path>
<path fill="white" d="M469.493 817.324C475.725 815.005 482.972 817.241 487.775 821.63C495.291 828.318 499.225 837.821 503.656 846.621C495.871 841.528 487.754 836.703 478.644 834.529C485.27 841.196 493.138 846.518 501.544 850.721C490.529 849.789 479.12 852.398 468.437 848.836C462.826 846.952 457.505 841.528 458.167 835.296C460.838 832.749 464.234 831.196 467.443 829.477C467.526 825.481 465.29 819.974 469.493 817.324Z"></path>
<path fill="white" d="M538.772 820.202C543.554 817.2 550.284 814.425 555.501 818.069C555.977 821.817 555.812 825.626 555.791 829.436C559.953 830.948 566.868 832.645 565.067 838.691C562.044 846.663 552.333 848.63 544.921 850.327C534.196 853.102 520.965 849.499 512.828 858.816C510.178 857.636 507.901 856.021 505.975 853.93C495.498 857.781 484.566 863.765 479.887 874.49C488.045 871.86 494.794 866.498 501.979 862.046C498.583 873.641 492.186 885.588 480.363 890.309C476.491 891.613 470.652 893.497 467.94 889.294C466.739 885.898 467.464 882.151 467.257 878.672C461.853 877.409 455.559 872.233 460.341 866.581C471.522 854.406 489.805 856.477 504.733 853.723C506.451 851.508 508.17 849.189 510.613 847.719C514.505 847.304 517.052 850.534 519.475 853.081C529.579 850.245 538.854 844.178 544.631 835.275C535.935 835.834 529.082 841.673 521.752 845.669C525.21 836 529.765 825.916 538.772 820.202Z"></path>
<path fill="white" d="M283.998 839.913C295.282 834.074 306.939 827.014 320.231 828.753C316.463 833.432 312.405 838.505 306.421 840.41C299.112 843.06 291.369 840.886 283.998 839.913Z"></path>
<path fill="white" d="M285.033 866.891C289.878 853.93 300.479 842.025 315.283 841.735C309.837 854.737 297 861.156 285.033 866.891Z"></path>
<path fill="white" d="M588.815 870.494C594.053 865.69 597.904 859.748 601.113 853.474C593.991 869.479 586.993 887.927 593.121 905.361C597.428 893.932 596.786 881.53 598.629 869.645C603.453 882.296 608.215 895.671 607.201 909.44C606.58 920.227 595.772 926.273 593.515 936.501C591.299 930.414 587.883 924.906 584.467 919.461C575.439 904.533 575.812 883.062 588.815 870.494Z"></path>
<path fill="white" d="M432.452 886.395C431.52 875.442 426.944 865.359 422.741 855.379C427.42 865.566 438.249 871.219 442.183 881.799C447.173 893.953 445.848 908.405 438.995 919.585C435.682 924.948 432.597 930.476 430.609 936.501C428.704 926.024 417.379 920.31 416.633 909.481C415.308 896.044 420.422 883.186 424.211 870.556C426.779 881.861 426.302 893.725 430.298 904.761C434.274 899.439 432.887 892.483 432.452 886.395Z"></path>
<path fill="white" d="M514.029 863.558C521.835 874.531 529.579 886.996 529.04 900.951C528.999 905.154 525.479 907.804 522.891 910.599C520.241 908.322 517.653 906.044 515.085 903.746C511.814 907.059 508.936 912.173 503.573 911.821C498.004 909.212 496.803 902.296 496.534 896.81C495.954 885.505 502.517 875.856 507.28 866.166C508.294 875.401 508.046 885.608 514.071 893.331C515.044 883.414 514.05 873.475 514.029 863.558Z"></path>
<path fill="#FEFEFE" d="M432.804 186.756C433.549 178.992 438.788 172.905 444.316 167.873C443.301 178.184 441.459 188.516 442.535 198.91C443.136 207.068 445.703 214.873 447.711 222.762C436.717 214.542 430.112 200.484 432.804 186.756Z"></path>
<path fill="#FEFEFE" d="M598.837 225.164C614.635 214.273 634.18 208.579 653.291 212.575C636.768 222.265 617.285 222.617 598.837 225.164Z"></path>
<path fill="#FEFEFE" d="M800.999 289.494C819.074 294.256 835.742 307.01 841.291 325.417C823.63 319.081 811.952 303.842 800.999 289.494Z"></path>
<path fill="#FEFEFE" d="M404.252 308.832C417.234 302.103 432.866 301.42 446.656 305.975C458.312 309.826 469.948 314.754 479.431 322.746C489.68 331.483 495.167 344.238 499.453 356.681C488.045 340.718 476.077 324.175 458.644 314.34C445.952 306.99 430.361 304.174 416.116 308.17C404.459 311.565 394.003 320.365 390.255 332.105C387.688 339.641 390.255 348.731 396.881 353.306C400.504 355.191 404.811 354.921 408.765 355.729C404.687 357.261 400.484 360.512 395.991 358.607C387.398 355.853 383.236 346.142 383.92 337.674C384.396 325.127 393.34 314.278 404.252 308.832Z"></path>
<path fill="#FEFEFE" d="M160.307 340.262C164.075 336.784 169.5 338.771 174.055 338.834C169.127 349.041 164.469 359.456 157.884 368.731C158.381 366.268 159.396 361.34 159.893 358.897C157.781 360.822 155.648 362.748 153.516 364.673C152.895 363.245 151.652 360.429 151.052 359.021C149.023 359.559 148.091 361.423 148.215 364.57C145.958 362.023 143.598 359.373 141.362 356.95C142.397 361.857 143.722 366.785 144.882 371.692C143.122 368.897 141.486 366.019 139.871 363.183L139.188 367.22C132.583 364.549 125.606 362.81 119.146 359.808C116.475 355.853 121.195 352.23 122.479 348.689C128.007 353.658 133.68 358.441 139.229 363.41C136.455 356.019 133.805 348.586 131.776 340.966C135.275 340.055 139.229 337.529 142.604 340.262C143.453 342.519 144.219 344.838 144.923 347.198C146.724 349.621 148.443 352.043 150.244 354.549C153.495 353.658 155.069 350.263 157.305 348.006C158.174 345.397 157.967 342.063 160.307 340.262Z"></path>
<path fill="#FEFEFE" d="M879.284 347.405C880.485 344.32 880.071 339.476 884.378 339.082C887.049 339.579 889.699 340.262 892.329 341.153C890.755 347.074 889.037 353.037 886.138 358.483C886.821 359.477 887.546 360.45 888.291 361.443C892.142 357.178 896.304 353.12 901.232 350.097C904.751 351.194 905.145 356.122 907.195 358.855C899.492 362.375 891.48 365.067 883.612 368.173C882.949 368.711 881.603 369.829 880.941 370.388C881.438 365.978 882.017 361.588 882.556 357.22C879.926 360.056 877.4 363.017 874.791 365.874C873.88 359.207 874.067 352.313 879.284 347.405ZM883.26 364.777C883.777 365.17 883.777 365.17 883.26 364.777Z"></path>
<path fill="#FEFEFE" d="M429.76 373.225C430.154 367.924 438.084 368.235 440.651 371.837C444.627 377.2 444.689 385.047 450.797 388.919C476.968 409.458 501.213 435.422 509.599 468.55C501.275 445.257 486.202 425.152 468.168 408.464C458.271 399.727 449.327 389.499 437.421 383.453C433.591 381.424 429.346 378.007 429.76 373.225Z"></path>
<path fill="#FEFEFE" d="M584.302 370.988C587.552 367.51 595.379 369.353 594.261 374.86C592.501 382.852 583.018 384.343 577.655 389.229C551.961 411.446 525.81 435.878 513.988 468.633C522.394 435.484 547.551 409.976 573.349 389.043C579.788 384.881 579.146 376.04 584.302 370.988Z"></path>
<path fill="#FEFEFE" d="M529.434 616.238C537.198 629.945 528.233 645.763 533.802 659.987C537.778 672.949 552.043 683.467 565.75 678.435C574.322 676.344 578.836 668.207 579.747 659.967C582.169 666.344 583.991 674.522 578.007 679.616C563.804 692.411 539.952 683.632 532.084 667.71C523.098 651.809 528.813 633.299 529.434 616.238Z"></path>
<path fill="#FEFEFE" d="M534.279 635.058C540.262 639.862 545.521 645.68 552.375 649.366C558.69 653.01 565.936 654.376 572.935 656.136C567.365 658.227 561.443 661.043 555.377 659.345C544.113 656.654 536.639 645.908 534.279 635.058Z"></path>
<path fill="#FEFEFE" d="M149.644 721.853C154.51 720.984 159.603 720.528 164.158 722.93C162.212 724.566 160.162 726.077 158.216 727.692C158.858 728.976 160.162 731.523 160.825 732.806C155.586 735.022 149.955 734.649 146.104 730.218C148.381 729.597 152.915 728.376 155.193 727.775C153.392 725.725 151.508 723.758 149.644 721.853Z"></path>
<path fill="#FEFEFE" d="M862.327 738.521C868.766 736.761 876.075 736.223 880.527 742.144C878.311 742.6 873.839 743.511 871.624 743.966C874.522 745.664 877.462 747.466 880.34 749.35C879.305 750.095 877.235 751.586 876.22 752.352C877.649 752.87 880.548 753.946 881.997 754.464C879.347 757.487 870.94 755.975 871.106 760.261C875.744 761.648 875.33 764.133 872.1 766.307C865.951 766.597 861.54 761.793 857.047 758.398C860.008 758.377 863.01 758.336 866.033 758.273C867.959 757.093 868.125 755.354 866.53 753.077C868.973 752.725 871.499 752.414 873.984 752.103C869.615 750.468 865.288 748.832 861.085 746.865C864.895 746.14 868.725 745.499 872.576 744.898C869.118 742.786 865.681 740.716 862.327 738.521Z"></path>
<path fill="#FEFEFE" d="M330.232 797.53C337.417 802.023 346.899 805.729 350.005 814.301C351.703 820.326 343.814 820.264 340.543 817.696C333.917 813.183 332.447 804.632 330.232 797.53Z"></path>
<path fill="#FEFEFE" d="M323.358 834.571C330.377 829.084 339.342 824.384 348.514 825.668C349.653 832.376 350.854 839.271 349.777 846.083C348.763 851.57 344.974 855.897 341.64 860.162C339.735 853.019 337.334 845.089 341.288 838.153C342.468 834.302 346.444 831.051 345.823 826.869C337.499 825.13 330.128 831.486 323.172 835.213C325.076 839.747 327.851 844.261 327.54 849.396C327.188 855.814 323.109 861.094 319.962 866.456C316.96 855.98 314.413 842.998 323.358 834.571Z"></path>
<path fill="#FEFEFE" d="M703.748 829.871C716.937 827.117 728.284 835.379 739.444 840.927C731.493 842.108 723.418 842.998 715.447 841.673C711.306 838.774 707.289 835.731 703.562 832.376C703.603 831.755 703.707 830.492 703.748 829.871Z"></path>
<path fill="#FEFEFE" d="M700.58 836.683C702.34 838.836 703.914 841.176 705.343 843.619C707.848 851.197 706.046 859.148 704.721 866.767C697.64 858.464 693.913 846.373 700.58 836.683Z"></path>
<path fill="#FEFEFE" d="M744.061 878.175C757.312 870.991 771.95 877.906 786.009 876.333C780.791 878.9 775.284 880.681 769.776 882.503C777.892 884.718 784.808 879.77 790.709 874.821C788.68 883 783.151 890.743 774.455 892.42C762.24 895.236 751.887 886.271 744.061 878.175Z"></path>
<path fill="#FEFEFE" d="M372.47 906.148C376.259 900.206 381.311 895.195 385.825 889.812C387.771 901.676 378.723 910.144 372.698 919.068C372.201 914.823 370.006 910.123 372.47 906.148Z"></path>
<path fill="#FDFEFD" d="M725.385 303.035C729.05 300.322 732.28 294.877 737.56 296.596C737.539 303.138 731.327 307.114 726.337 310.116C720.23 313.76 713.024 314.505 706.109 313.553C713.149 311.358 720.168 308.48 725.385 303.035Z"></path>
<path fill="#FDFEFD" d="M703.645 326.555C713.604 324.133 724.992 320.779 734.62 326.059C737.229 326.473 740.272 333.637 735.365 332.332C724.661 331.67 714.474 327.032 703.645 326.555Z"></path>
<path fill="#FDFEFD" d="M839.097 778.523C844.791 782.146 851.582 786.246 851.913 793.865C844.501 792.085 840.339 785.625 839.097 778.523Z"></path>
<path fill="#FDFEFE" d="M902.33 134.621C906.015 138.949 910.301 143.462 911.171 149.363C911.668 153.877 910.901 158.39 910.487 162.904C904.4 154.788 900.88 144.829 902.33 134.621Z"></path>
<path fill="#FDFEFE" d="M610.577 208.517C615.36 196.757 627.969 189.551 640.537 191.187C648.984 191.394 655.486 197.502 660.02 204.086C651.78 200.297 643.084 195.908 633.725 197.502C624.822 198.061 617.803 203.983 610.577 208.517Z"></path>
<path fill="#FDFEFE" d="M103.638 256.78C115.978 253.55 128.153 258.664 137.449 266.635C125.689 266.801 111.237 267.816 103.638 256.78Z"></path>
<path fill="#FDFEFE" d="M340.606 276.305C356.797 263.944 378.164 260.859 398.02 262.039C417.711 263.178 436.283 272.578 450.031 286.533C436.987 278.148 423.612 269.451 408.124 266.429C389.283 262.867 368.992 264.379 351.724 273.137C340.357 279.141 330.026 288.603 325.905 301.068C323.007 310.054 323.648 321.504 331.123 328.129C337.293 332.767 348.039 336.204 352.884 327.963C352.511 337.156 342.138 335.894 335.989 333.388C326.588 330.469 321.888 320.178 321.888 310.944C321.392 297.051 329.86 284.4 340.606 276.305Z"></path>
<path fill="#FDFEFE" d="M289.32 303.635C287.125 301.171 284.226 295.498 289.961 295.912C298.637 302.621 306.546 310.696 317.478 313.781C307.229 314.588 296.318 311.441 289.32 303.635Z"></path>
<path fill="#FDFEFE" d="M363.112 342.167C367.895 338.813 375.493 344.776 372.843 350.242C371.58 354.259 365.866 354.569 363.008 352.209C359.799 349.911 359.281 344.093 363.112 342.167Z"></path>
<path fill="#FDFEFE" d="M253.645 577.085C258.097 572.509 264.826 581.412 258.78 584.021C254.97 587.624 248.324 579.279 253.645 577.085Z"></path>
<path fill="#FDFEFE" d="M237.019 609.799C240.891 605.492 247.475 611.911 243.438 615.886C239.421 620.627 232.236 613.526 237.019 609.799Z"></path>
<path fill="#FDFEFE" d="M781.641 609.861C786.9 604.581 792.138 616.59 785.099 617.335C780.564 619.571 777.624 611.517 781.641 609.861Z"></path>
<path fill="#FDFEFE" d="M681.719 688.974C682.547 686.22 682.153 682.141 685.86 681.5C693.852 680.444 698.345 689.223 699.856 695.827C705.384 718.334 688.613 741.875 666.77 747.279C660.455 748.521 653.995 747.424 647.721 746.451C665.258 745.25 683.665 736.968 691.264 720.197C696.585 708.602 698.842 691.5 687.164 682.99C685.383 684.999 683.561 687.007 681.719 688.974Z"></path>
<path fill="#FDFEFE" d="M155.462 717.174C158.237 711.874 166.415 713.116 167.43 719.141C163.392 718.748 159.314 718.52 155.462 717.174Z"></path>
<path fill="#FDFEFE" d="M366.342 716.47C376.28 718.934 384.562 725.249 394.024 728.872C399.635 731.046 405.515 732.434 411.251 734.339C394.645 737.341 375.949 730.632 366.342 716.47Z"></path>
<path fill="#FDFEFE" d="M143.329 747.134C149.541 743.242 156.56 744.939 163.02 747.113C158.32 748.832 153.454 750.054 148.588 751.192C153.226 752.021 158.051 752.869 162.109 755.52C155.918 757.735 148.982 758.75 143.06 755.271C144.24 753.594 145.503 751.979 146.849 750.468C145.959 749.639 144.199 747.962 143.329 747.134Z"></path>
<path fill="#FDFEFE" d="M842.596 773.989C848.973 775.914 856.737 779.413 857.648 786.929C850.05 788.378 846.364 779.041 842.596 773.989Z"></path>
<path fill="#FDFEFE" d="M182.689 796.267C183.104 790.18 185.091 782.229 192.835 782.85C191.965 788.917 188.88 794.404 182.689 796.267Z"></path>
<path fill="#FDFEFE" d="M831.104 782.829C838.351 783.119 840.919 790.159 841.229 796.391C834.707 794.838 831.891 788.937 831.104 782.829Z"></path>
<path fill="#FDFEFE" d="M313.399 809.787C320.232 814.384 329.446 819.27 327.499 829.146C317.354 828.587 314.29 818.193 313.399 809.787Z"></path>
<path fill="#FDFEFE" d="M629.77 876.126C621.26 860.286 622.13 841.611 624.842 824.384C625.236 839.25 624.49 854.841 631.157 868.61C634.801 877.161 642.007 886.664 652.38 885.919C664.326 884.905 667.018 865.628 656.935 860.473C652.959 861.032 649.129 862.295 645.257 863.185C649.729 860.141 655.61 856.27 661.014 859.665C672.091 867.74 668.488 889.066 654.492 891.675C643.725 893.373 634.242 885.236 629.77 876.126Z"></path>
<path fill="#FDFEFE" d="M339.819 897.493C352.076 892.379 365.431 895.961 378.185 896.168C367.17 905.92 352.221 901.427 339.819 897.493Z"></path>
<path fill="#FDFDFD" d="M405.348 235.309C416.612 235.91 429.697 235.164 438.455 243.632C444.232 248.726 446.551 256.366 446.944 263.861C438.807 247.753 421.477 240.651 405.348 235.309Z"></path>
<path fill="#FDFDFD" d="M573.555 286.533C587.945 272.371 607.366 262.992 627.678 262.143C647.368 261.169 668.549 264.462 684.305 277.154C695.155 285.622 702.609 299.122 701.718 313.118C701.097 321.711 696.231 330.862 687.515 333.492C681.427 336.163 673.394 336.659 669.688 330.034C679.75 337.053 694.968 330.779 698.033 319.123C702.36 304.608 694.161 289.452 683.042 280.384C663.932 264.731 637.036 261.873 613.557 267.153C598.836 270.404 586.537 279.431 573.555 286.533Z"></path>
<path fill="#FDFDFD" d="M861.083 729.68C867.316 728.272 874.5 727.692 879.118 733.034C872.74 735.498 866.156 734.194 861.083 729.68Z"></path>
<path fill="#FDFDFD" d="M851.021 769.868C857.17 772.208 863.361 774.92 868.372 779.351C868.247 783.637 863.879 782.353 861.104 781.608C856.032 779.558 853.609 774.258 851.021 769.868Z"></path>
<path fill="#FDFDFD" d="M172.232 793.617C172.087 786.018 178.878 781.918 184.53 778.419C183.185 785.314 179.168 791.401 172.232 793.617Z"></path>
<path fill="#FDFDFD" d="M638.423 890.081C640.328 892.172 642.212 894.305 644.055 896.541C645.732 898.591 647.451 900.682 649.107 902.814C653.786 906.914 652.772 913.229 652.13 918.757C645.318 910.475 636.581 901.841 638.423 890.081Z"></path>
<path fill="#FEFFFE" d="M579.436 169.323C585.482 174.105 590.306 180.814 590.72 188.765C592.563 202.409 585.42 215.722 574.405 223.528C581.672 206.385 582.604 187.502 579.436 169.323Z"></path>
<path fill="#FEFFFE" d="M72 202.989C84.3608 201.001 99.227 196.839 109.31 206.861C106.474 207.047 100.8 207.42 97.9639 207.585C102.912 210.795 109.041 209.739 114.569 210.753C109.786 211.229 104.983 210.815 100.221 210.484L100.552 214.459C105.024 214.004 109.538 213.693 114.052 213.445C108.565 220.05 101.815 227.317 92.2908 224.832C87.1145 228.973 80.841 231.085 74.2154 230.671C80.5304 222.928 86.6176 212.223 97.8604 211.809C97.9432 210.981 98.1088 209.325 98.1916 208.517C89.0608 210.029 79.226 209.366 72 202.989Z"></path>
<path fill="#FEFFFE" d="M370.545 211.726C388.869 208.062 408.207 212.658 423.363 223.466C405.412 221.685 386.653 220.712 370.545 211.726Z"></path>
<path fill="#FEFFFE" d="M243.541 589.259C248.655 586.899 253.976 595.077 248.344 598.018C242.505 602.159 236.273 591.268 243.541 589.259Z"></path>
<path fill="#FEFFFE" d="M492.517 642.14C491.792 633.982 490.571 625.327 495.084 617.977C496.617 634.893 500.965 653.589 491.503 669.097C483.303 684.026 460.942 691.873 447.028 680.154C440.734 675.35 441.914 667.048 443.923 660.443C445.662 664.749 446.532 669.801 450.113 673.156C458.292 681.085 472.723 681.52 481.295 673.922C490.447 666.281 493.552 653.589 492.517 642.14Z"></path>
<path fill="#FEFFFE" d="M323.13 704.316C323.068 695.558 326.153 684.274 335.574 681.5C340.605 679.988 342.324 685.227 342.759 689.119C340.812 687.028 338.887 684.937 337.003 682.845C328.099 688.912 327.147 700.983 329.28 710.673C331.909 724.483 342.572 735.436 354.933 741.357C361.724 744.608 369.323 745.229 376.632 746.679C350.585 754.132 322.654 730.819 323.13 704.316Z"></path>
<path fill="#FEFFFE" d="M432.928 703.364C449.824 700.817 466.16 694.668 480.819 685.889C468.686 699.389 451.087 707.132 433.322 709.575C421.044 710.963 405.971 709.285 398.662 697.981C410.236 698.933 421.085 705.248 432.928 703.364Z"></path>
<path fill="#FEFFFE" d="M544.528 685.786C558.463 694.565 574.219 700.321 590.39 703.323C600.059 705.165 609.48 701.832 618.569 698.995C625.319 696.366 634.222 700.942 634.76 708.478C635.216 718.21 626.706 726.657 617.285 727.672C600.266 730.053 582.708 723.738 569.478 713.137C585.358 718.934 602.813 726.719 619.832 721.191C628.59 718.168 630.433 708.168 628.715 700.093C626.851 700.217 624.988 700.403 623.166 700.631C617.078 708.561 606.146 710.238 596.788 710.114C577.159 709.099 557.779 700.424 544.528 685.786Z"></path>
<path fill="#FEFFFE" d="M344.56 727.03C358.391 726.947 370.545 734.359 383.858 736.906C391.891 738.438 400.028 740.447 408.29 739.846C414.625 739.328 420.029 735.684 425.785 733.365C416.696 741.999 403.569 743.946 391.581 742.124C375.41 739.722 357.335 738.397 344.56 727.03Z"></path>
<path fill="#FEFFFE" d="M697.806 736.512C704.66 734.442 711.575 732.061 718.822 731.999C726.752 732.061 733.916 735.974 740.5 740.012C726.814 747.486 710.726 743.656 697.806 736.512Z"></path>
<path fill="#FEFFFE" d="M152.274 771.483C155.586 764.63 163.951 763.491 170.701 762.994C168.32 765.396 165.918 767.839 163.144 769.827C162.481 770.945 161.135 773.16 160.473 774.278C164.676 772.56 168.941 770.883 173.227 769.288C169.852 776.245 161.446 785.728 153.392 779.02L159.106 776.846C156.829 775.024 154.468 773.326 152.274 771.483Z"></path>
<path fill="#FEFFFE" d="M628.714 809.166C642.359 806.951 654.492 800.304 666.832 794.528C664.41 798.938 661.987 803.845 657.308 806.288C648.757 811.754 638.218 810.408 628.714 809.166Z"></path>
<path fill="#FEFFFE" d="M441.501 834.716C431.645 823.742 437.753 807.592 445.041 796.971C443.757 809.621 444.606 822.583 451.232 833.784C448.271 835.523 444.337 838.236 441.501 834.716Z"></path>
<path fill="#FEFFFE" d="M798.08 873.786C812.594 866.27 830.545 862.564 846.094 869.21C850.67 870.784 854.439 877.285 850.049 881.136C844.542 883.973 839.117 879.066 834.21 877.037C823.174 870.659 810.109 872.627 798.08 873.786Z"></path>
<path fill="#FEFFFE" d="M239.482 876.519C253.003 877.596 267.682 870.515 280.168 878.279C272.486 887.865 259.193 896.541 246.667 891.219C239.524 888.673 235.776 881.592 233.913 874.718C239.855 879.169 246.522 884.408 254.473 882.523C249.462 880.515 244.39 878.693 239.482 876.519Z"></path>
<path fill="#FEFFFE" d="M665.589 895.174C672.008 894.304 678.468 895.402 684.555 897.534C674.472 900.537 662.587 905.713 652.649 899.75C651.593 899.129 649.481 897.866 648.425 897.224C654.119 896.458 659.854 895.712 665.589 895.174Z"></path>
<path fill="#FCFDFD" d="M583.908 304.318C598.754 301.213 615.152 304.153 627.202 313.615C636.934 321.359 642.793 334.92 638.859 347.157C636.809 353.824 630.598 359.021 623.538 359.29C620.246 358.648 617.326 357.012 614.324 355.687C618.92 354.921 624.386 355.853 628.238 352.602C634.283 347.695 636.023 338.875 633.497 331.711C628.652 317.135 613.827 307.507 598.816 306.679C581.486 305.022 564.508 312.58 551.733 323.947C540.656 333.243 532.54 345.335 523.968 356.847C528.792 342.415 536.204 327.901 549 319.019C559.497 311.855 571.486 306.948 583.908 304.318Z"></path>
<path fill="#FDFCFC" d="M636.788 821.63C645.961 828.753 655.423 839.581 650.93 852.108C647.865 840.948 635.774 834.032 636.788 821.63Z"></path>
<path fill="#3F6B90" d="M446.78 137.789C452.142 134.145 457.526 130.542 462.992 127.085C461.687 129.963 461.025 133.42 458.478 135.553C455 137.623 450.548 137.002 446.78 137.789Z"></path>
<path fill="#3F6B90" d="M559.145 128.803C565.108 131.743 570.823 135.139 576.496 138.597C569.084 138.969 562.003 136.029 559.145 128.803Z"></path>
<path fill="#3F6B90" d="M122.251 287.299C128.442 278.458 139.105 273.033 149.934 273.655C140.099 276.926 131.299 282.392 122.251 287.299Z"></path>
<path fill="#3F6B90" d="M875.081 273.572C885.371 273.841 894.999 278.893 901.625 286.699C892.411 283.117 884.108 277.589 875.081 273.572Z"></path>
<path fill="#3F6B90" d="M242.215 546.566C248.406 543.812 255.383 544.558 261.885 545.696C255.425 547.125 248.075 546.607 242.65 550.955C235.61 556.339 230.869 564.579 222.566 568.265C218.115 570.459 213.063 570.19 208.28 569.818C214.222 567.25 220.993 565.842 225.879 561.308C231.242 556.339 235.279 549.589 242.215 546.566Z"></path>
<path fill="#3F6B90" d="M289.443 704.234C298.595 708.83 307.27 714.545 314.765 721.564C304.454 719.389 295.261 712.971 289.443 704.234Z"></path>
<path fill="#3F6B90" d="M709.38 721.646C717.206 715.269 725.385 709.223 734.391 704.606C729.277 713.799 719.484 719.576 709.38 721.646Z"></path>
<path fill="#3F6B90" d="M325.159 766.286C322.944 765.044 322.757 763.429 324.579 761.42C325.656 761.979 327.789 763.098 328.845 763.636C327.913 764.298 326.07 765.623 325.159 766.286Z"></path>
<path fill="#FEFFFF" d="M914.69 207.668C924.773 197.647 939.722 202.223 952 204.21C947.259 207.192 942.269 210.795 936.389 210.36C929.101 209.904 921.895 208.6 914.69 207.668Z"></path>
<path fill="#FEFFFF" d="M182.813 325.313C188.466 306.679 205.506 294.235 223.581 288.976C212.09 303.138 200.744 318.957 182.813 325.313Z"></path>
<path fill="#FEFFFF" d="M653.249 342.809C656.044 340.697 661.324 340.614 662.691 344.445C665.072 349.124 659.937 354.776 655.009 353.534C649.522 353.286 648.839 345.273 653.249 342.809Z"></path>
<path fill="#FEFFFF" d="M512.166 543.294C519.143 542.611 520.613 553.688 513.863 555.241C506.265 556.173 504.691 544.557 512.166 543.294Z"></path>
<path fill="#FEFFFF" d="M695.963 824.301C697.33 817.365 705.239 814.694 710.042 810.429C708.593 816.081 707.724 822.189 704.017 826.931C701.181 827.842 698.241 828.525 695.404 829.25C695.528 828.007 695.818 825.523 695.963 824.301Z"></path>
<path fill="#FEFFFF" d="M373.298 851.88C369.095 838.878 379.157 828.732 388.309 821.278C388.764 833.784 376.859 840.782 373.298 851.88Z"></path>
<path fill="#FDFEFC" d="M113.038 145.802C114.591 140.957 118.338 137.292 121.879 133.834C123.121 144.208 118.607 153.752 112.955 162.097C112.479 156.693 111.34 151.082 113.038 145.802Z"></path>
<path fill="#FEFEFF" d="M912.744 167.335C914.401 158.287 922.952 153.815 931.316 152.717C928.956 161.248 924.235 168.929 917.113 174.292C915.664 171.952 914.173 169.613 912.744 167.335Z"></path>
<path fill="#7C98B1" d="M103.823 160.026C105.976 163.132 108.13 166.258 110.117 169.509C112.312 176.818 112.188 184.582 111.691 192.139C109.393 185.203 112.415 174.975 104.423 171.352L104.693 171.372L106.1 171.455C105.376 167.625 104.548 163.815 103.823 160.026Z"></path>
<path fill="#8199AE" d="M151.321 252.888C150.286 243.902 156.27 236.51 162.419 230.775C159.479 238.456 154.613 246.158 156.663 254.751C156.994 257.567 157.367 260.383 157.781 263.219C154.406 260.673 150.493 257.67 151.321 252.888Z"></path>
<path fill="#FDFFFF" d="M611.156 278.686C624.303 276.988 640.743 272.599 650.93 283.904C644.594 285.394 638.631 282.661 632.73 280.86C625.753 278.665 618.382 278.789 611.156 278.686Z"></path>
<path fill="#FDFFFE" d="M563.285 307.217C574.217 292.206 593.142 284.98 611.238 284.649C619.458 284.338 628.092 286.367 634.407 291.875C639.107 295.954 642.958 300.902 646.85 305.747C637.492 301.813 629.831 294.422 619.872 291.875C608.857 288.935 596.869 289.722 586.433 294.256C578.255 297.714 571.257 303.345 563.285 307.217Z"></path>
<path fill="#FDFFFE" d="M765.593 576.919C769.775 574.186 775.718 579.694 771.618 583.648C767.663 588.555 760.147 580.584 765.593 576.919Z"></path>
<path fill="#5D7490" d="M883.259 364.777C883.777 365.17 883.777 365.17 883.259 364.777Z"></path>
<path fill="#FDFEFF" d="M777.706 589.342C780.439 588.514 784.083 590.481 783.814 593.607C784.311 597.79 778.534 600.585 775.512 597.645C771.785 595.512 773.814 590.025 777.706 589.342Z"></path>
<path fill="#FDFEFF" d="M357.687 794.093C369.799 800.49 382.47 805.977 395.991 808.71C386.756 809.559 376.569 811.899 368.101 806.826C362.863 804.342 359.964 799.124 357.687 794.093Z"></path>
<path fill="#7391AC" d="M814.603 651.374C817.025 649.801 819.758 653.942 817.812 655.846C815.348 657.379 812.594 653.238 814.603 651.374Z"></path>
<path fill="#E3EBF0" d="M860.402 722.288C865.681 720.259 872.307 720.156 875.889 725.311C871.065 724.876 862.514 728.334 860.402 722.288Z"></path>
<path fill="#F3F8F9" d="M143.888 737.838C149.686 737.154 155.794 736.513 161.322 738.956C157.202 744.318 146.684 745.105 143.888 737.838Z"></path>
<path fill="#ACBAC7" d="M794.145 749.971C795.243 748.024 796.423 746.14 797.582 744.256C809.156 747.196 821.559 749.515 830.379 758.315C819.177 752.559 806.962 748.19 794.145 749.971Z"></path>
<path fill="#F2F6F7" d="M146.227 764.174C149.871 756.886 158.981 759.019 165.524 759.101C160.43 764.464 153.142 765.209 146.227 764.174Z"></path>
<path fill="#EFF4F7" d="M853.568 763.18C861.043 764.195 870.153 766.887 871.747 775.541C863.983 774.568 857.171 770.199 853.568 763.18Z"></path>
<path fill="#F1F5F6" d="M168.962 779.869C172.358 776.556 176.975 775.086 181.447 773.885C177.886 778.999 174.262 784.817 168.03 786.95C162.916 786.494 167.326 781.484 168.962 779.869Z"></path>
<path fill="#FEFFFD" d="M398.724 822.106C402.369 840.099 403.217 859.769 394.314 876.436C389.946 885.774 379.738 893.952 368.972 891.281C355.886 887.741 353.588 868.051 363.216 859.81C367.998 855.918 374.065 858.816 378.641 861.508C374.003 861.487 367.025 857.574 364.251 863.268C360.503 870.245 361 881.55 369.282 885.049C377.15 888.155 385.308 882.337 389.18 875.691C399.284 859.81 400.091 840.327 398.724 822.106Z"></path>
<path fill="#446F92" d="M682.091 825.481C685.797 825.502 689.379 826.848 692.982 827.718C693.727 826.848 695.218 825.15 695.963 824.301C695.818 825.523 695.528 828.007 695.404 829.25C698.241 828.525 701.181 827.842 704.017 826.931L703.748 829.871C703.707 830.492 703.603 831.755 703.562 832.376C707.289 835.73 711.306 838.774 715.447 841.673L717.724 843.35C714.888 843.288 712.072 843.329 709.276 843.453C708.283 843.495 706.316 843.578 705.343 843.619C703.914 841.176 702.34 838.836 700.58 836.683C693.872 833.059 686.812 830.119 680.331 826.103L682.091 825.481Z"></path>
<path fill="#9BB0C1" d="M644.056 896.541C651.095 894.76 658.384 894.988 665.589 895.174C659.854 895.712 654.118 896.458 648.424 897.224C649.48 897.866 651.592 899.129 652.648 899.75C651.758 900.516 649.998 902.048 649.108 902.814C647.451 900.682 645.733 898.59 644.056 896.541Z"></path>
</svg>
